{
.appVersion = "1138";
DisplayStrings = (
LO,
"/breveacute/breveacute.case/brevecomb_acutecomb.case/Einvertedbreve",
"/Nhookleft",
"/Gcommaaccent"
);
classes = (
{
automatic = 1;

glyphs = (
{
glyphname = A;
layers = (
{
anchors = (
{
name = bottom;
position = "{343, 0}";
},
{
name = ogonek;
position = "{597, -4}";
},
{
name = top;
position = "{340, 688}";
}
);
color = -1;
layerId = "CCCBC4F5-0E52-43D6-BD5E-05F7881D6474";
paths = (
{
closed = 1;
nodes = (
"685 0 LINE",
"466 688 LINE",
"283 688 LINE",
"401 276 LINE",
"321 276 LINE",
"279 122 LINE",
"446 122 LINE",
"481 0 LINE"
);
},
{
closed = 1;
nodes = (
"202 0 LINE",
"317 414 LINE",
"238 688 LINE",
"221 688 LINE",
"2 0 LINE"
);
}
);
width = 687;
}
);
leftKerningGroup = A;
note = A;
rightKerningGroup = A;
unicode = 0041;
},
{
glyphname = AE;
layers = (
{
anchors = (
{
name = top;
position = "{621, 688}";
}
);
color = -1;
layerId = "CCCBC4F5-0E52-43D6-BD5E-05F7881D6474";
paths = (
{
closed = 1;
nodes = (
"179 0 LINE",
"400 526 LINE",
"405 526 LINE",
"430 276 LINE",
"340 276 LINE",
"276 122 LINE",
"446 122 LINE",
"459 0 LINE",
"654 0 LINE",
"569 688 LINE",
"296 688 LINE",
"-20 0 LINE"
);
},
{
closed = 1;
nodes = (
"924 0 LINE",
"924 153 LINE",
"678 153 LINE",
"697 0 LINE"
);
},
{
closed = 1;
nodes = (
"877 271 LINE",
"877 424 LINE",
"645 424 LINE",
"664 271 LINE"
);
},
{
closed = 1;
nodes = (
"924 535 LINE",
"924 688 LINE",
"612 688 LINE",
"631 535 LINE"
);
}
);
width = 979;
}
);
note = AE;
rightKerningGroup = E;
unicode = 00C6;
},
{
glyphname = B;
layers = (
{
color = -1;
layerId = "CCCBC4F5-0E52-43D6-BD5E-05F7881D6474";
paths = (
{
closed = 1;
nodes = (
"422 0 LINE SMOOTH",
"569 0 OFFCURVE",
"628 64 OFFCURVE",
"628 184 CURVE SMOOTH",
"628 240 OFFCURVE",
"617 277 OFFCURVE",
"596 302 CURVE SMOOTH",
"575 326 OFFCURVE",
"543 340 OFFCURVE",
"503 349 CURVE",
"503 353 LINE",
"583 372 OFFCURVE",
"622 415 OFFCURVE",
"622 515 CURVE SMOOTH",
"622 635 OFFCURVE",
"550 688 OFFCURVE",
"421 688 CURVE SMOOTH",
"307 688 LINE",
"307 535 LINE",
"342 535 LINE SMOOTH",
"375 535 OFFCURVE",
"396 534 OFFCURVE",
"406 526 CURVE SMOOTH",
"416 518 OFFCURVE",
"418 504 OFFCURVE",
"418 479 CURVE SMOOTH",
"418 455 OFFCURVE",
"416 441 OFFCURVE",
"406 433 CURVE SMOOTH",
"396 425 OFFCURVE",
"375 424 OFFCURVE",
"342 424 CURVE SMOOTH",
"307 424 LINE",
"307 271 LINE",
"348 271 LINE SMOOTH",
"381 271 OFFCURVE",
"402 269 OFFCURVE",
"412 261 CURVE SMOOTH",
"422 253 OFFCURVE",
"424 238 OFFCURVE",
"424 211 CURVE SMOOTH",
"424 184 OFFCURVE",
"422 170 OFFCURVE",
"412 162 CURVE SMOOTH",
"402 154 OFFCURVE",
"381 153 OFFCURVE",
"348 153 CURVE SMOOTH",
"307 153 LINE",
"307 0 LINE"
);
},
{
closed = 1;
nodes = (
"265 0 LINE",
"265 688 LINE",
"65 688 LINE",
"65 0 LINE"
);
}
);
width = 670;
}
);
note = B;
rightKerningGroup = O;
unicode = 0042;
},
{
glyphname = C;
layers = (
{
anchors = (
{
name = bottom;
position = "{301, 0}";
},
{
name = top;
position = "{311, 688}";
}
);
color = -1;
layerId = "CCCBC4F5-0E52-43D6-BD5E-05F7881D6474";
paths = (
{
closed = 1;
nodes = (
"371 -8 OFFCURVE",
"396 -7 OFFCURVE",
"419 -5 CURVE SMOOTH",
"463 -2 OFFCURVE",
"498 3 OFFCURVE",
"530 10 CURVE",
"530 155 LINE",
"518 153 OFFCURVE",
"505 151 OFFCURVE",
"491 150 CURVE",
"467 147 OFFCURVE",
"433 145 OFFCURVE",
"394 145 CURVE SMOOTH",
"358 145 OFFCURVE",
"330 147 OFFCURVE",
"311 151 CURVE SMOOTH",
"272 158 OFFCURVE",
"256 183 OFFCURVE",
"253 236 CURVE SMOOTH",
"252 262 OFFCURVE",
"251 298 OFFCURVE",
"251 344 CURVE SMOOTH",
"251 691 LINE",
"162 680 OFFCURVE",
"110 652 OFFCURVE",
"82 597 CURVE SMOOTH",
"53 541 OFFCURVE",
"47 460 OFFCURVE",
"47 344 CURVE SMOOTH",
"47 211 OFFCURVE",
"56 123 OFFCURVE",
"97 68 CURVE SMOOTH",
"137 13 OFFCURVE",
"212 -8 OFFCURVE",
"344 -8 CURVE SMOOTH"
);
},
{
closed = 1;
nodes = (
"314 541 OFFCURVE",
"346 543 OFFCURVE",
"394 543 CURVE SMOOTH",
"415 543 OFFCURVE",
"448 541 OFFCURVE",
"476 538 CURVE SMOOTH",
"493 536 OFFCURVE",
"509 534 OFFCURVE",
"526 533 CURVE",
"526 676 LINE",
"511 680 OFFCURVE",
"494 683 OFFCURVE",
"475 686 CURVE SMOOTH",
"443 691 OFFCURVE",
"399 696 OFFCURVE",
"344 696 CURVE SMOOTH",
"318 696 LINE SMOOTH",
"309 696 OFFCURVE",
"301 696 OFFCURVE",
"293 695 CURVE",
"293 532 LINE"
);
}
);
width = 568;
}
);
leftKerningGroup = O;
note = C;
unicode = 0043;
},
{
glyphname = D;
layers = (
{
anchors = (
{
name = center;
position = "{186, 348}";
},
{
name = top;
position = "{323, 688}";
}
);
color = -1;
layerId = "CCCBC4F5-0E52-43D6-BD5E-05F7881D6474";
paths = (
{
closed = 1;
nodes = (
"315 0 LINE SMOOTH",
"419 0 OFFCURVE",
"489 8 OFFCURVE",
"537 29 CURVE SMOOTH",
"584 50 OFFCURVE",
"608 84 OFFCURVE",
"620 135 CURVE SMOOTH",
"632 186 OFFCURVE",
"633 253 OFFCURVE",
"633 344 CURVE SMOOTH",
"633 433 OFFCURVE",
"632 502 OFFCURVE",
"620 553 CURVE SMOOTH",
"608 604 OFFCURVE",
"584 638 OFFCURVE",
"537 659 CURVE SMOOTH",
"489 680 OFFCURVE",
"419 688 OFFCURVE",
"315 688 CURVE SMOOTH",
"307 688 LINE",
"307 535 LINE",
"315 535 LINE SMOOTH",
"344 535 OFFCURVE",
"366 534 OFFCURVE",
"381 532 CURVE SMOOTH",
"412 527 OFFCURVE",
"424 504 OFFCURVE",
"427 453 CURVE SMOOTH",
"428 427 OFFCURVE",
"429 391 OFFCURVE",
"429 344 CURVE SMOOTH",
"429 297 OFFCURVE",
"428 261 OFFCURVE",
"427 236 CURVE SMOOTH",
"426 210 OFFCURVE",
"422 191 OFFCURVE",
"415 179 CURVE SMOOTH",
"401 154 OFFCURVE",
"372 153 OFFCURVE",
"315 153 CURVE SMOOTH",
"307 153 LINE",
"307 0 LINE"
);
},
{
closed = 1;
nodes = (
"265 0 LINE",
"265 688 LINE",
"65 688 LINE",
"65 0 LINE"
);
}
);
width = 680;
}
);
note = D;
rightKerningGroup = O;
unicode = 0044;
},
{
glyphname = E;
layers = (
{
anchors = (
{
name = bottom;
position = "{322, 0}";
},
{
name = ogonek;
position = "{473, -4}";
},
{
name = top;
position = "{321, 688}";
}
);
color = -1;
layerId = "CCCBC4F5-0E52-43D6-BD5E-05F7881D6474";
paths = (
{
closed = 1;
nodes = (
"265 0 LINE",
"265 688 LINE",
"65 688 LINE",
"65 0 LINE"
);
},
{
closed = 1;
nodes = (
"561 0 LINE",
"561 153 LINE",
"307 153 LINE",
"307 0 LINE"
);
},
{
closed = 1;
nodes = (
"514 271 LINE",
"514 424 LINE",
"307 424 LINE",
"307 271 LINE"
);
},
{
closed = 1;
nodes = (
"561 535 LINE",
"561 688 LINE",
"307 688 LINE",
"307 535 LINE"
);
}
);
width = 616;
}
);
note = E;
rightKerningGroup = E;
unicode = 0045;
},
{
glyphname = F;
layers = (
{
color = -1;
layerId = "CCCBC4F5-0E52-43D6-BD5E-05F7881D6474";
paths = (
{
closed = 1;
nodes = (
"265 0 LINE",
"265 688 LINE",
"65 688 LINE",
"65 0 LINE"
);
},
{
closed = 1;
nodes = (
"504 251 LINE",
"504 404 LINE",
"307 404 LINE",
"307 251 LINE"
);
},
{
closed = 1;
nodes = (
"541 535 LINE",
"541 688 LINE",
"307 688 LINE",
"307 535 LINE"
);
}
);
width = 576;
}
);
note = F;
unicode = 0046;
},
{
glyphname = G;
layers = (
{
anchors = (
{
name = bottom;
position = "{347, 0}";
},
{
name = top;
position = "{355, 688}";
}
);
color = -1;
layerId = "CCCBC4F5-0E52-43D6-BD5E-05F7881D6474";
paths = (
{
closed = 1;
nodes = (
"369 -8 LINE",
"369 141 LINE",
"316 141 OFFCURVE",
"286 149 OFFCURVE",
"270 178 CURVE SMOOTH",
"254 206 OFFCURVE",
"251 257 OFFCURVE",
"251 344 CURVE SMOOTH",
"251 690 LINE",
"168 679 OFFCURVE",
"118 654 OFFCURVE",
"87 600 CURVE SMOOTH",
"56 546 OFFCURVE",
"47 464 OFFCURVE",
"47 344 CURVE SMOOTH",
"47 200 OFFCURVE",
"61 112 OFFCURVE",
"107 60 CURVE SMOOTH",
"153 8 OFFCURVE",
"231 -8 OFFCURVE",
"359 -8 CURVE SMOOTH"
);
},
{
closed = 1;
nodes = (
"436 -5 OFFCURVE",
"460 -3 OFFCURVE",
"483 0 CURVE",
"528 4 OFFCURVE",
"565 9 OFFCURVE",
"600 17 CURVE",
"600 409 LINE",
"340 409 LINE",
"340 264 LINE",
"411 264 LINE",
"411 -6 LINE"
);
},
{
closed = 1;
nodes = (
"320 543 OFFCURVE",
"361 543 OFFCURVE",
"429 543 CURVE SMOOTH",
"443 543 OFFCURVE",
"460 542 OFFCURVE",
"479 541 CURVE",
"498 539 OFFCURVE",
"517 537 OFFCURVE",
"534 536 CURVE",
"555 533 OFFCURVE",
"576 531 OFFCURVE",
"597 529 CURVE",
"597 672 LINE",
"574 677 OFFCURVE",
"550 681 OFFCURVE",
"524 684 CURVE",
"480 691 OFFCURVE",
"420 696 OFFCURVE",
"359 696 CURVE SMOOTH",
"335 696 OFFCURVE",
"313 695 OFFCURVE",
"293 694 CURVE",
"293 528 LINE"
);
}
);
width = 660;
}
);
leftKerningGroup = O;
note = G;
unicode = 0047;
},
{
glyphname = H;
layers = (
{
anchors = (
{
name = bottom;
position = "{357, 0}";
},
{
name = center;
position = "{360, 552}";
},
{
name = top;
position = "{356, 688}";
}
);
color = -1;
layerId = "CCCBC4F5-0E52-43D6-BD5E-05F7881D6474";
paths = (
{
closed = 1;
nodes = (
"651 0 LINE",
"651 688 LINE",
"451 688 LINE",
"451 425 LINE",
"307 425 LINE",
"307 265 LINE",
"451 265 LINE",
"451 0 LINE"
);
},
{
closed = 1;
nodes = (
"265 0 LINE",
"265 688 LINE",
"65 688 LINE",
"65 0 LINE"
);
}
);
width = 716;
}
);
note = H;
unicode = 0048;
},
{
glyphname = I;
layers = (
{
anchors = (
{
name = bottom;
position = "{168, 0}";
},
{
name = ogonek;
position = "{177, -4}";
},
{
name = top;
position = "{164, 688}";
}
);
color = -1;
layerId = "CCCBC4F5-0E52-43D6-BD5E-05F7881D6474";
paths = (
{
closed = 1;
nodes = (
"265 0 LINE",
"265 688 LINE",
"65 688 LINE",
"65 0 LINE"
);
}
);
width = 330;
}
);
note = I;
unicode = 0049;
},
{
glyphname = J;
layers = (
{
anchors = (
{
name = top;
position = "{261, 688}";
}
);
color = -1;
layerId = "CCCBC4F5-0E52-43D6-BD5E-05F7881D6474";
paths = (
{
closed = 1;
nodes = (
"129 0 OFFCURVE",
"204 1 OFFCURVE",
"255 14 CURVE SMOOTH",
"306 27 OFFCURVE",
"332 53 OFFCURVE",
"347 102 CURVE SMOOTH",
"362 151 OFFCURVE",
"363 225 OFFCURVE",
"363 334 CURVE SMOOTH",
"363 688 LINE",
"163 688 LINE",
"163 266 LINE SMOOTH",
"163 238 OFFCURVE",
"162 216 OFFCURVE",
"161 200 CURVE SMOOTH",
"158 168 OFFCURVE",
"142 152 OFFCURVE",
"103 148 CURVE SMOOTH",
"84 146 OFFCURVE",
"56 145 OFFCURVE",
"20 145 CURVE",
"20 0 LINE"
);
}
);
width = 425;
}
);
note = J;
unicode = 004A;
},
{
glyphname = K;
layers = (
{
anchors = (
{
name = bottom;
position = "{344, 0}";
}
);
color = -1;
layerId = "CCCBC4F5-0E52-43D6-BD5E-05F7881D6474";
paths = (
{
closed = 1;
nodes = (
"686 0 LINE",
"446 364 LINE",
"683 688 LINE",
"465 688 LINE",
"307 456 LINE",
"307 241 LINE",
"462 0 LINE"
);
},
{
closed = 1;
nodes = (
"265 0 LINE",
"265 688 LINE",
"65 688 LINE",
"65 0 LINE"
);
}
);
width = 683;
}
);
note = K;
rightKerningGroup = X;
unicode = 004B;
},
{
glyphname = L;
layers = (
{
anchors = (
{
name = bottom;
position = "{285, 0}";
},
{
name = center;
position = "{176, 382}";
},
{
name = top;
position = "{163, 688}";
},
{
name = topright;
position = "{178, 604}";
}
);
color = -1;
layerId = "CCCBC4F5-0E52-43D6-BD5E-05F7881D6474";
paths = (
{
closed = 1;
nodes = (
"265 0 LINE",
"265 688 LINE",
"65 688 LINE",
"65 0 LINE"
);
},
{
closed = 1;
nodes = (
"521 0 LINE",
"521 161 LINE",
"307 161 LINE",
"307 0 LINE"
);
}
);
width = 541;
}
);
note = L;
unicode = 004C;
},
{
glyphname = M;
layers = (
{
color = -1;
layerId = "CCCBC4F5-0E52-43D6-BD5E-05F7881D6474";
paths = (
{
closed = 1;
nodes = (
"504 0 LINE",
"537 76 LINE",
"249 688 LINE",
"65 688 LINE",
"65 658 LINE",
"374 0 LINE"
);
},
{
closed = 1;
nodes = (
"249 0 LINE",
"249 167 LINE",
"65 559 LINE",
"65 0 LINE"
);
},
{
closed = 1;
nodes = (
"820 0 LINE",
"820 688 LINE",
"630 688 LINE",
"473 311 LINE",
"559 127 LINE",
"626 289 LINE",
"630 289 LINE",
"630 0 LINE"
);
}
);
width = 885;
}
);
note = M;
unicode = 004D;
},
{
glyphname = N;
layers = (
{
anchors = (
{
name = bottom;
position = "{356, 0}";
},
{
name = top;
position = "{359, 688}";
}
);
color = -1;
layerId = "CCCBC4F5-0E52-43D6-BD5E-05F7881D6474";
paths = (
{
closed = 1;
nodes = (
"651 0 LINE",
"651 29 LINE",
"265 688 LINE",
"65 688 LINE",
"65 660 LINE",
"452 0 LINE"
);
},
{
closed = 1;
nodes = (
"255 0 LINE",
"255 252 LINE",
"65 577 LINE",
"65 0 LINE"
);
},
{
closed = 1;
nodes = (
"651 688 LINE",
"461 688 LINE",
"461 437 LINE",
"651 112 LINE"
);
}
);
width = 716;
}
);
note = N;
unicode = 004E;
},
{
glyphname = Eng;
layers = (
{
color = -1;
layerId = "CCCBC4F5-0E52-43D6-BD5E-05F7881D6474";
paths = (
{
closed = 1;
nodes = (
"651 0 LINE",
"651 29 LINE",
"265 688 LINE",
"65 688 LINE",
"65 660 LINE",
"452 0 LINE"
);
},
{
closed = 1;
nodes = (
"255 0 LINE",
"255 252 LINE",
"65 577 LINE",
"65 0 LINE"
);
},
{
closed = 1;
nodes = (
"484 -199 OFFCURVE",
"562 -194 OFFCURVE",
"602 -162 CURVE SMOOTH",
"641 -130 OFFCURVE",
"651 -71 OFFCURVE",
"651 17 CURVE",
"452 287 LINE",
"452 -18 LINE SMOOTH",
"452 -27 OFFCURVE",
"451 -35 OFFCURVE",
"450 -41 CURVE",
"447 -54 OFFCURVE",
"438 -62 OFFCURVE",
"416 -66 CURVE SMOOTH",
"405 -68 OFFCURVE",
"391 -69 OFFCURVE",
"372 -69 CURVE",
"372 -199 LINE"
);
},
{
closed = 1;
nodes = (
"651 688 LINE",
"461 688 LINE",
"461 437 LINE",
"651 112 LINE"
);
}
);
width = 716;
}
);
unicode = 014A;
},
{
glyphname = Nhookleft;
layers = (
{
color = -1;
layerId = "CCCBC4F5-0E52-43D6-BD5E-05F7881D6474";
paths = (
{
closed = 1;
nodes = (
"651 0 LINE",
"651 29 LINE",
"265 688 LINE",
"65 688 LINE",
"65 660 LINE",
"452 0 LINE"
);
},
{
closed = 1;
nodes = (
"97 -199 OFFCURVE",
"166 -194 OFFCURVE",
"206 -162 CURVE SMOOTH",
"245 -130 OFFCURVE",
"255 -71 OFFCURVE",
"255 37 CURVE SMOOTH",
"255 252 LINE",
"65 577 LINE",
"65 -18 LINE SMOOTH",
"65 -27 OFFCURVE",
"64 -35 OFFCURVE",
"63 -41 CURVE",
"60 -54 OFFCURVE",
"51 -62 OFFCURVE",
"29 -66 CURVE SMOOTH",
"18 -68 OFFCURVE",
"4 -69 OFFCURVE",
"-15 -69 CURVE",
"-15 -199 LINE"
);
},
{
closed = 1;
nodes = (
"651 688 LINE",
"461 688 LINE",
"461 437 LINE",
"651 112 LINE"
);
}
);
width = 716;
}
);
unicode = 019D;
},
{
glyphname = O;
layers = (
{
anchors = (
{
name = bottom;
position = "{353, 0}";
},
{
name = center;
position = "{345, 335}";
},
{
name = ogonek;
position = "{317, -11}";
},
{
name = top;
position = "{346, 688}";
},
{
name = topright;
position = "{422, 688}";
}
);
color = -1;
layerId = "CCCBC4F5-0E52-43D6-BD5E-05F7881D6474";
paths = (
{
closed = 1;
nodes = (
"547 5 OFFCURVE",
"598 34 OFFCURVE",
"624 89 CURVE SMOOTH",
"650 144 OFFCURVE",
"651 227 OFFCURVE",
"651 344 CURVE SMOOTH",
"651 477 OFFCURVE",
"650 567 OFFCURVE",
"612 621 CURVE SMOOTH",
"574 675 OFFCURVE",
"497 696 OFFCURVE",
"349 696 CURVE SMOOTH",
"320 696 LINE SMOOTH",
"311 696 OFFCURVE",
"302 696 OFFCURVE",
"293 695 CURVE",
"293 539 LINE",
"306 543 OFFCURVE",
"325 543 OFFCURVE",
"349 543 CURVE SMOOTH",
"374 543 OFFCURVE",
"393 542 OFFCURVE",
"406 540 CURVE SMOOTH",
"433 535 OFFCURVE",
"444 512 OFFCURVE",
"446 458 CURVE SMOOTH",
"447 431 OFFCURVE",
"447 393 OFFCURVE",
"447 344 CURVE SMOOTH",
"447 -4 LINE"
);
},
{
closed = 1;
nodes = (
"378 -8 LINE SMOOTH",
"387 -8 OFFCURVE",
"396 -8 OFFCURVE",
"405 -7 CURVE",
"405 148 LINE",
"390 145 OFFCURVE",
"373 145 OFFCURVE",
"349 145 CURVE SMOOTH",
"324 145 OFFCURVE",
"305 146 OFFCURVE",
"292 149 CURVE",
"265 153 OFFCURVE",
"255 177 OFFCURVE",
"253 231 CURVE SMOOTH",
"252 258 OFFCURVE",
"251 295 OFFCURVE",
"251 344 CURVE SMOOTH",
"251 692 LINE",
"151 681 OFFCURVE",
"100 654 OFFCURVE",
"74 599 CURVE SMOOTH",
"48 543 OFFCURVE",
"47 461 OFFCURVE",
"47 344 CURVE SMOOTH",
"47 255 OFFCURVE",
"47 186 OFFCURVE",
"59 134 CURVE SMOOTH",
"71 82 OFFCURVE",
"94 46 OFFCURVE",
"139 24 CURVE SMOOTH",
"183 2 OFFCURVE",
"250 -8 OFFCURVE",
"349 -8 CURVE SMOOTH"
);
}
);
width = 698;
}
);
leftKerningGroup = O;
note = O;
rightKerningGroup = O;
unicode = 004F;
},
{
glyphname = Oogonek;
layers = (
{
color = -1;
layerId = "CCCBC4F5-0E52-43D6-BD5E-05F7881D6474";
paths = (
{
closed = 1;
nodes = (
"349 -8 LINE SMOOTH",
"448 -8 OFFCURVE",
"515 2 OFFCURVE",
"559 24 CURVE SMOOTH",
"604 46 OFFCURVE",
"627 82 OFFCURVE",
"639 134 CURVE SMOOTH",
"651 186 OFFCURVE",
"651 255 OFFCURVE",
"651 344 CURVE SMOOTH",
"651 461 OFFCURVE",
"650 543 OFFCURVE",
"624 599 CURVE SMOOTH",
"598 654 OFFCURVE",
"547 681 OFFCURVE",
"447 692 CURVE",
"447 344 LINE SMOOTH",
"447 295 OFFCURVE",
"446 258 OFFCURVE",
"445 231 CURVE SMOOTH",
"443 177 OFFCURVE",
"433 153 OFFCURVE",
"406 149 CURVE",
"393 146 OFFCURVE",
"374 145 OFFCURVE",
"349 145 CURVE SMOOTH",
"325 145 OFFCURVE",
"308 145 OFFCURVE",
"293 148 CURVE",
"293 -7 LINE",
"302 -8 OFFCURVE",
"311 -8 OFFCURVE",
"320 -8 CURVE SMOOTH"
);
},
{
closed = 1;
nodes = (
"452 -196 OFFCURVE",
"469 -195 OFFCURVE",
"484 -194 CURVE",
"492 -193 OFFCURVE",
"500 -193 OFFCURVE",
"508 -192 CURVE",
"508 -103 LINE",
"506 -104 OFFCURVE",
"504 -104 OFFCURVE",
"502 -104 CURVE SMOOTH",
"491 -104 LINE SMOOTH",
"452 -104 OFFCURVE",
"444 -89 OFFCURVE",
"444 -70 CURVE SMOOTH",
"444 -37 OFFCURVE",
"478 -4 OFFCURVE",
"532 13 CURVE",
"368 17 LINE",
"332 -16 OFFCURVE",
"300 -69 OFFCURVE",
"300 -108 CURVE SMOOTH",
"300 -132 OFFCURVE",
"308 -154 OFFCURVE",
"328 -170 CURVE SMOOTH",
"348 -186 OFFCURVE",
"381 -196 OFFCURVE",
"433 -196 CURVE SMOOTH"
);
},
{
closed = 1;
nodes = (
"251 344 LINE SMOOTH",
"251 393 OFFCURVE",
"251 431 OFFCURVE",
"252 458 CURVE SMOOTH",
"254 512 OFFCURVE",
"265 535 OFFCURVE",
"292 540 CURVE SMOOTH",
"305 542 OFFCURVE",
"324 543 OFFCURVE",
"349 543 CURVE SMOOTH",
"373 543 OFFCURVE",
"392 543 OFFCURVE",
"405 539 CURVE",
"405 695 LINE",
"396 696 OFFCURVE",
"387 696 OFFCURVE",
"378 696 CURVE SMOOTH",
"349 696 LINE SMOOTH",
"201 696 OFFCURVE",
"124 675 OFFCURVE",
"86 621 CURVE SMOOTH",
"48 567 OFFCURVE",
"47 477 OFFCURVE",
"47 344 CURVE SMOOTH",
"47 227 OFFCURVE",
"48 144 OFFCURVE",
"74 89 CURVE SMOOTH",
"100 34 OFFCURVE",
"151 5 OFFCURVE",
"251 -4 CURVE"
);
}
);
width = 698;
}
);
unicode = 01EA;
},
{
glyphname = OE;
layers = (
{
color = -1;
layerId = "CCCBC4F5-0E52-43D6-BD5E-05F7881D6474";
paths = (
{
closed = 1;
nodes = (
"547 13 OFFCURVE",
"598 41 OFFCURVE",
"624 95 CURVE SMOOTH",
"650 149 OFFCURVE",
"651 229 OFFCURVE",
"651 344 CURVE SMOOTH",
"651 475 OFFCURVE",
"650 561 OFFCURVE",
"612 614 CURVE SMOOTH",
"574 667 OFFCURVE",
"497 688 OFFCURVE",
"349 688 CURVE SMOOTH",
"320 688 LINE SMOOTH",
"311 688 OFFCURVE",
"302 688 OFFCURVE",
"293 687 CURVE",
"293 531 LINE",
"306 534 OFFCURVE",
"325 535 OFFCURVE",
"349 535 CURVE SMOOTH",
"374 535 OFFCURVE",
"393 534 OFFCURVE",
"406 532 CURVE SMOOTH",
"433 527 OFFCURVE",
"444 504 OFFCURVE",
"446 453 CURVE SMOOTH",
"447 427 OFFCURVE",
"447 391 OFFCURVE",
"447 344 CURVE SMOOTH",
"447 4 LINE"
);
},
{
closed = 1;
nodes = (
"370 0 LINE",
"388 0 LINE SMOOTH",
"394 0 OFFCURVE",
"400 0 OFFCURVE",
"405 1 CURVE",
"405 156 LINE",
"390 153 OFFCURVE",
"373 153 OFFCURVE",
"349 153 CURVE SMOOTH",
"324 153 OFFCURVE",
"305 154 OFFCURVE",
"292 157 CURVE",
"265 161 OFFCURVE",
"255 184 OFFCURVE",
"253 236 CURVE SMOOTH",
"252 261 OFFCURVE",
"251 297 OFFCURVE",
"251 344 CURVE SMOOTH",
"251 684 LINE",
"151 673 OFFCURVE",
"100 647 OFFCURVE",
"74 593 CURVE SMOOTH",
"48 539 OFFCURVE",
"47 459 OFFCURVE",
"47 344 CURVE SMOOTH",
"47 213 OFFCURVE",
"49 127 OFFCURVE",
"87 74 CURVE SMOOTH",
"125 21 OFFCURVE",
"201 0 OFFCURVE",
"349 0 CURVE SMOOTH"
);
},
{
closed = 1;
nodes = (
"976 0 LINE",
"976 153 LINE",
"686 153 LINE",
"675 78 OFFCURVE",
"654 31 OFFCURVE",
"602 0 CURVE"
);
},
{
closed = 1;
nodes = (
"929 271 LINE",
"929 424 LINE",
"692 424 LINE",
"693 411 OFFCURVE",
"693 398 OFFCURVE",
"693 385 CURVE SMOOTH",
"693 344 LINE SMOOTH",
"693 331 OFFCURVE",
"693 318 OFFCURVE",
"693 306 CURVE SMOOTH",
"693 294 OFFCURVE",
"693 282 OFFCURVE",
"692 271 CURVE"
);
},
{
closed = 1;
nodes = (
"976 535 LINE",
"976 688 LINE",
"602 688 LINE",
"654 657 OFFCURVE",
"675 608 OFFCURVE",
"686 535 CURVE"
);
}
);
width = 1031;
}
);
leftKerningGroup = O;
note = OE;
unicode = 0152;
},
{
glyphname = P;
layers = (
{
color = -1;
layerId = "CCCBC4F5-0E52-43D6-BD5E-05F7881D6474";
paths = (
{
closed = 1;
nodes = (
"390 214 LINE SMOOTH",
"494 214 OFFCURVE",
"551 238 OFFCURVE",
"583 279 CURVE SMOOTH",
"615 320 OFFCURVE",
"620 379 OFFCURVE",
"620 451 CURVE SMOOTH",
"620 530 OFFCURVE",
"613 589 OFFCURVE",
"581 629 CURVE SMOOTH",
"549 668 OFFCURVE",
"491 688 OFFCURVE",
"390 688 CURVE SMOOTH",
"307 688 LINE",
"307 535 LINE",
"331 535 LINE SMOOTH",
"370 535 OFFCURVE",
"391 533 OFFCURVE",
"403 522 CURVE",
"415 510 OFFCURVE",
"417 490 OFFCURVE",
"417 451 CURVE SMOOTH",
"417 412 OFFCURVE",
"415 392 OFFCURVE",
"403 381 CURVE",
"391 369 OFFCURVE",
"370 367 OFFCURVE",
"331 367 CURVE SMOOTH",
"307 367 LINE",
"307 214 LINE"
);
},
{
closed = 1;
nodes = (
"265 0 LINE",
"265 688 LINE",
"65 688 LINE",
"65 0 LINE"
);
}
);
width = 645;
}
);
note = P;
unicode = 0050;
},
{
glyphname = Thorn;
layers = (
{
color = -1;
layerId = "CCCBC4F5-0E52-43D6-BD5E-05F7881D6474";
paths = (
{
closed = 1;
nodes = (
"390 115 LINE SMOOTH",
"494 115 OFFCURVE",
"551 139 OFFCURVE",
"583 180 CURVE SMOOTH",
"615 221 OFFCURVE",
"620 280 OFFCURVE",
"620 352 CURVE SMOOTH",
"620 431 OFFCURVE",
"613 490 OFFCURVE",
"581 530 CURVE SMOOTH",
"549 569 OFFCURVE",
"491 589 OFFCURVE",
"390 589 CURVE SMOOTH",
"307 589 LINE",
"307 436 LINE",
"331 436 LINE SMOOTH",
"370 436 OFFCURVE",
"391 434 OFFCURVE",
"403 423 CURVE",
"415 411 OFFCURVE",
"417 391 OFFCURVE",
"417 352 CURVE SMOOTH",
"417 313 OFFCURVE",
"415 293 OFFCURVE",
"403 282 CURVE",
"391 270 OFFCURVE",
"370 268 OFFCURVE",
"331 268 CURVE SMOOTH",
"307 268 LINE",
"307 115 LINE"
);
},
{
closed = 1;
nodes = (
"265 0 LINE",
"265 688 LINE",
"65 688 LINE",
"65 0 LINE"
);
}
);
width = 645;
}
);
note = Thorn;
unicode = 00DE;
},
{
glyphname = Q;
layers = (
{
color = -1;
layerId = "CCCBC4F5-0E52-43D6-BD5E-05F7881D6474";
paths = (
{
closed = 1;
nodes = (
"736 -115 LINE",
"736 -109 LINE",
"604 69 LINE",
"647 128 OFFCURVE",
"651 219 OFFCURVE",
"651 344 CURVE SMOOTH",
"651 477 OFFCURVE",
"650 567 OFFCURVE",
"612 621 CURVE SMOOTH",
"574 675 OFFCURVE",
"497 696 OFFCURVE",
"349 696 CURVE SMOOTH",
"320 696 LINE SMOOTH",
"311 696 OFFCURVE",
"302 696 OFFCURVE",
"293 695 CURVE",
"293 539 LINE",
"306 543 OFFCURVE",
"325 543 OFFCURVE",
"349 543 CURVE SMOOTH",
"374 543 OFFCURVE",
"393 542 OFFCURVE",
"406 540 CURVE SMOOTH",
"433 535 OFFCURVE",
"444 512 OFFCURVE",
"446 458 CURVE SMOOTH",
"447 431 OFFCURVE",
"447 393 OFFCURVE",
"447 344 CURVE SMOOTH",
"447 -2 LINE",
"512 -115 LINE"
);
},
{
closed = 1;
nodes = (
"369 -8 OFFCURVE",
"386 -7 OFFCURVE",
"405 -6 CURVE",
"405 148 LINE",
"390 145 OFFCURVE",
"373 145 OFFCURVE",
"349 145 CURVE SMOOTH",
"324 145 OFFCURVE",
"305 146 OFFCURVE",
"292 149 CURVE",
"265 153 OFFCURVE",
"255 177 OFFCURVE",
"253 231 CURVE SMOOTH",
"252 258 OFFCURVE",
"251 295 OFFCURVE",
"251 344 CURVE SMOOTH",
"251 692 LINE",
"151 681 OFFCURVE",
"100 654 OFFCURVE",
"74 599 CURVE SMOOTH",
"48 543 OFFCURVE",
"47 461 OFFCURVE",
"47 344 CURVE SMOOTH",
"47 255 OFFCURVE",
"47 186 OFFCURVE",
"59 134 CURVE SMOOTH",
"71 82 OFFCURVE",
"94 46 OFFCURVE",
"139 24 CURVE SMOOTH",
"183 2 OFFCURVE",
"250 -8 OFFCURVE",
"349 -8 CURVE SMOOTH"
);
}
);
width = 698;
}
);
leftKerningGroup = O;
note = Q;
rightKerningGroup = O;
unicode = 0051;
},
{
glyphname = R;
layers = (
{
anchors = (
{
name = bottom;
position = "{334, 0}";
},
{
name = top;
position = "{330, 688}";
}
);
color = -1;
layerId = "CCCBC4F5-0E52-43D6-BD5E-05F7881D6474";
paths = (
{
closed = 1;
nodes = (
"645 0 LINE",
"541 257 LINE",
"580 274 OFFCURVE",
"602 301 OFFCURVE",
"615 336 CURVE SMOOTH",
"627 371 OFFCURVE",
"630 413 OFFCURVE",
"630 461 CURVE SMOOTH",
"630 536 OFFCURVE",
"624 593 OFFCURVE",
"593 631 CURVE SMOOTH",
"561 669 OFFCURVE",
"506 688 OFFCURVE",
"410 688 CURVE SMOOTH",
"307 688 LINE",
"307 535 LINE",
"341 535 LINE SMOOTH",
"380 535 OFFCURVE",
"401 534 OFFCURVE",
"413 524 CURVE SMOOTH",
"425 514 OFFCURVE",
"427 494 OFFCURVE",
"427 461 CURVE SMOOTH",
"427 428 OFFCURVE",
"425 409 OFFCURVE",
"413 399 CURVE SMOOTH",
"401 389 OFFCURVE",
"380 387 OFFCURVE",
"341 387 CURVE SMOOTH",
"307 387 LINE",
"307 234 LINE",
"347 234 LINE",
"435 0 LINE"
);
},
{
closed = 1;
nodes = (
"265 0 LINE",
"265 688 LINE",
"65 688 LINE",
"65 0 LINE"
);
}
);
width = 674;
}
);
note = R;
unicode = 0052;
},
{
glyphname = S;
layers = (
{
anchors = (
{
name = bottom;
position = "{291, 0}";
},
{
name = top;
position = "{310, 688}";
}
);
color = -1;
layerId = "CCCBC4F5-0E52-43D6-BD5E-05F7881D6474";
paths = (
{
closed = 1;
nodes = (
"431 -3 OFFCURVE",
"482 7 OFFCURVE",
"518 40 CURVE SMOOTH",
"553 72 OFFCURVE",
"574 126 OFFCURVE",
"574 218 CURVE SMOOTH",
"574 306 OFFCURVE",
"557 356 OFFCURVE",
"529 385 CURVE SMOOTH",
"501 413 OFFCURVE",
"461 421 OFFCURVE",
"413 428 CURVE SMOOTH",
"275 445 LINE",
"256 446 OFFCURVE",
"248 449 OFFCURVE",
"244 457 CURVE",
"239 464 OFFCURVE",
"239 474 OFFCURVE",
"239 493 CURVE SMOOTH",
"239 694 LINE",
"180 690 OFFCURVE",
"130 678 OFFCURVE",
"95 647 CURVE SMOOTH",
"59 616 OFFCURVE",
"38 567 OFFCURVE",
"38 487 CURVE SMOOTH",
"38 424 OFFCURVE",
"43 374 OFFCURVE",
"67 338 CURVE SMOOTH",
"91 301 OFFCURVE",
"135 276 OFFCURVE",
"214 267 CURVE SMOOTH",
"337 252 LINE SMOOTH",
"368 248 OFFCURVE",
"374 244 OFFCURVE",
"374 203 CURVE SMOOTH",
"374 -7 LINE"
);
},
{
closed = 1;
nodes = (
"332 -8 LINE",
"332 148 LINE",
"315 145 OFFCURVE",
"293 145 OFFCURVE",
"261 145 CURVE SMOOTH",
"240 145 OFFCURVE",
"217 146 OFFCURVE",
"193 147 CURVE SMOOTH",
"145 150 OFFCURVE",
"103 153 OFFCURVE",
"58 157 CURVE",
"58 11 LINE",
"81 7 OFFCURVE",
"107 4 OFFCURVE",
"135 1 CURVE SMOOTH",
"183 -4 OFFCURVE",
"248 -8 OFFCURVE",
"321 -8 CURVE SMOOTH"
);
},
{
closed = 1;
nodes = (
"539 674 LINE",
"520 678 OFFCURVE",
"499 682 OFFCURVE",
"476 685 CURVE SMOOTH",
"436 690 OFFCURVE",
"378 696 OFFCURVE",
"306 696 CURVE SMOOTH",
"281 696 LINE",
"281 541 LINE",
"297 542 OFFCURVE",
"318 543 OFFCURVE",
"349 543 CURVE SMOOTH",
"375 543 OFFCURVE",
"400 542 OFFCURVE",
"423 541 CURVE",
"469 537 OFFCURVE",
"504 534 OFFCURVE",
"539 530 CURVE"
);
}
);
width = 612;
}
);
leftKerningGroup = S;
note = S;
unicode = 0053;
},
{
glyphname = Germandbls;
layers = (
{
color = -1;
layerId = "CCCBC4F5-0E52-43D6-BD5E-05F7881D6474";
paths = (
{
closed = 1;
nodes = (
"264 0 LINE",
"264 328 LINE SMOOTH",
"264 522 OFFCURVE",
"268 542 OFFCURVE",
"395 542 CURVE SMOOTH",
"400 542 OFFCURVE",
"406 542 OFFCURVE",
"414 542 CURVE",
"540 684 LINE",
"482 691 OFFCURVE",
"420 696 OFFCURVE",
"359 696 CURVE SMOOTH",
"95 696 OFFCURVE",
"59 621 OFFCURVE",
"59 328 CURVE SMOOTH",
"59 0 LINE"
);
},
{
closed = 1;
nodes = (
"470 -8 OFFCURVE",
"474 -8 OFFCURVE",
"479 -8 CURVE",
"479 148 LINE",
"466 146 OFFCURVE",
"450 146 OFFCURVE",
"429 146 CURVE SMOOTH",
"404 146 OFFCURVE",
"360 151 OFFCURVE",
"324 158 CURVE",
"324 14 LINE",
"362 2 OFFCURVE",
"422 -8 OFFCURVE",
"465 -8 CURVE SMOOTH"
);
},
{
closed = 1;
nodes = (
"681 6 OFFCURVE",
"726 73 OFFCURVE",
"726 184 CURVE SMOOTH",
"726 320 OFFCURVE",
"671 365 OFFCURVE",
"555 377 CURVE",
"692 531 LINE",
"692 661 LINE",
"661 666 OFFCURVE",
"627 672 OFFCURVE",
"591 678 CURVE",
"348 403 LINE",
"348 272 LINE",
"440 272 LINE SMOOTH",
"504 272 OFFCURVE",
"520 265 OFFCURVE",
"520 206 CURVE SMOOTH",
"520 -6 LINE"
);
}
);
width = 770;
}
);
unicode = 1E9E;
},
{
glyphname = Schwa;
layers = (
{
color = -1;
layerId = "CCCBC4F5-0E52-43D6-BD5E-05F7881D6474";
paths = (
{
closed = 1;
nodes = (
"547 5 OFFCURVE",
"598 34 OFFCURVE",
"624 89 CURVE SMOOTH",
"650 144 OFFCURVE",
"651 227 OFFCURVE",
"651 344 CURVE SMOOTH",
"651 477 OFFCURVE",
"650 567 OFFCURVE",
"612 621 CURVE SMOOTH",
"574 675 OFFCURVE",
"497 696 OFFCURVE",
"349 696 CURVE SMOOTH",
"307 696 OFFCURVE",
"160 699 OFFCURVE",
"75 677 CURVE",
"75 540 LINE",
"141 546 OFFCURVE",
"211 548 OFFCURVE",
"269 548 CURVE SMOOTH",
"336 547 OFFCURVE",
"389 544 OFFCURVE",
"406 540 CURVE SMOOTH",
"433 534 OFFCURVE",
"444 512 OFFCURVE",
"446 458 CURVE SMOOTH",
"447 431 OFFCURVE",
"447 393 OFFCURVE",
"447 344 CURVE SMOOTH",
"447 -4 LINE"
);
},
{
closed = 1;
nodes = (
"378 -8 LINE SMOOTH",
"387 -8 OFFCURVE",
"396 -8 OFFCURVE",
"405 -7 CURVE",
"405 148 LINE",
"390 145 OFFCURVE",
"373 145 OFFCURVE",
"349 145 CURVE SMOOTH",
"324 145 OFFCURVE",
"305 146 OFFCURVE",
"292 149 CURVE",
"265 153 OFFCURVE",
"255 177 OFFCURVE",
"253 231 CURVE SMOOTH",
"252 258 OFFCURVE",
"251 305 OFFCURVE",
"251 354 CURVE",
"47 354 LINE",
"47 265 OFFCURVE",
"47 186 OFFCURVE",
"59 134 CURVE SMOOTH",
"71 82 OFFCURVE",
"94 46 OFFCURVE",
"139 24 CURVE SMOOTH",
"183 2 OFFCURVE",
"250 -8 OFFCURVE",
"349 -8 CURVE SMOOTH"
);
},
{
closed = 1;
nodes = (
"407 227 LINE",
"407 354 LINE",
"184 354 LINE",
"184 227 LINE"
);
}
);
width = 698;
}
);
unicode = 018F;
},
{
glyphname = T;
layers = (
{
anchors = (
{
name = bottom;
position = "{290, 0}";
},
{
name = center;
position = "{296, 293}";
},
{
name = top;
position = "{290, 688}";
}
);
color = -1;
layerId = "CCCBC4F5-0E52-43D6-BD5E-05F7881D6474";
paths = (
{
closed = 1;
nodes = (
"390 0 LINE",
"390 488 LINE",
"190 488 LINE",
"190 0 LINE"
);
},
{
closed = 1;
nodes = (
"572 528 LINE",
"572 688 LINE",
"9 688 LINE",
"9 528 LINE"
);
}
);
width = 581;
}
);
note = T;
unicode = 0054;
},
{
glyphname = U;
layers = (
{
anchors = (
{
name = bottom;
position = "{353, 0}";
},
{
name = ogonek;
position = "{298, -11}";
},
{
name = top;
position = "{345, 688}";
},
{
name = topright;
position = "{509, 688}";
}
);
color = -1;
layerId = "CCCBC4F5-0E52-43D6-BD5E-05F7881D6474";
paths = (
{
closed = 1;
nodes = (
"366 -8 LINE SMOOTH",
"373 -8 OFFCURVE",
"379 -8 OFFCURVE",
"386 -7 CURVE",
"386 147 LINE",
"381 146 OFFCURVE",
"375 145 OFFCURVE",
"368 145 CURVE SMOOTH",
"345 145 LINE SMOOTH",
"324 145 OFFCURVE",
"308 146 OFFCURVE",
"297 149 CURVE",
"274 153 OFFCURVE",
"266 168 OFFCURVE",
"264 203 CURVE SMOOTH",
"263 220 OFFCURVE",
"262 244 OFFCURVE",
"262 274 CURVE SMOOTH",
"262 688 LINE",
"62 688 LINE",
"62 314 LINE SMOOTH",
"62 195 OFFCURVE",
"63 115 OFFCURVE",
"99 64 CURVE SMOOTH",
"135 13 OFFCURVE",
"205 -8 OFFCURVE",
"345 -8 CURVE SMOOTH"
);
},
{
closed = 1;
nodes = (
"525 3 OFFCURVE",
"576 30 OFFCURVE",
"602 82 CURVE SMOOTH",
"628 133 OFFCURVE",
"628 209 OFFCURVE",
"628 314 CURVE SMOOTH",
"628 688 LINE",
"428 688 LINE",
"428 -5 LINE"
);
}
);
width = 690;
}
);
note = U;
unicode = 0055;
},
{
glyphname = Uogonek;
layers = (
{
color = -1;
layerId = "CCCBC4F5-0E52-43D6-BD5E-05F7881D6474";
paths = (
{
closed = 1;
nodes = (
"345 -8 LINE SMOOTH",
"485 -8 OFFCURVE",
"555 13 OFFCURVE",
"591 64 CURVE SMOOTH",
"627 115 OFFCURVE",
"628 195 OFFCURVE",
"628 314 CURVE SMOOTH",
"628 688 LINE",
"428 688 LINE",
"428 274 LINE SMOOTH",
"428 244 OFFCURVE",
"427 220 OFFCURVE",
"426 203 CURVE SMOOTH",
"424 168 OFFCURVE",
"416 153 OFFCURVE",
"393 149 CURVE",
"382 146 OFFCURVE",
"366 145 OFFCURVE",
"345 145 CURVE SMOOTH",
"322 145 LINE SMOOTH",
"315 145 OFFCURVE",
"309 146 OFFCURVE",
"304 147 CURVE",
"304 -7 LINE",
"311 -8 OFFCURVE",
"317 -8 OFFCURVE",
"324 -8 CURVE SMOOTH"
);
},
{
closed = 1;
nodes = (
"452 -196 OFFCURVE",
"469 -195 OFFCURVE",
"484 -194 CURVE",
"492 -193 OFFCURVE",
"500 -193 OFFCURVE",
"508 -192 CURVE",
"508 -103 LINE",
"506 -104 OFFCURVE",
"504 -104 OFFCURVE",
"502 -104 CURVE SMOOTH",
"491 -104 LINE SMOOTH",
"452 -104 OFFCURVE",
"444 -89 OFFCURVE",
"444 -70 CURVE SMOOTH",
"444 -37 OFFCURVE",
"479 -1 OFFCURVE",
"528 16 CURVE",
"368 17 LINE",
"332 -16 OFFCURVE",
"300 -69 OFFCURVE",
"300 -108 CURVE SMOOTH",
"300 -132 OFFCURVE",
"308 -154 OFFCURVE",
"328 -170 CURVE SMOOTH",
"348 -186 OFFCURVE",
"381 -196 OFFCURVE",
"433 -196 CURVE SMOOTH"
);
},
{
closed = 1;
nodes = (
"262 688 LINE",
"62 688 LINE",
"62 314 LINE SMOOTH",
"62 209 OFFCURVE",
"62 133 OFFCURVE",
"88 82 CURVE SMOOTH",
"114 30 OFFCURVE",
"165 3 OFFCURVE",
"262 -5 CURVE"
);
}
);
width = 690;
}
);
unicode = 0172;
},
{
glyphname = V;
layers = (
{
color = -1;
layerId = "CCCBC4F5-0E52-43D6-BD5E-05F7881D6474";
paths = (
{
closed = 1;
nodes = (
"396 0 LINE",
"209 688 LINE",
"5 688 LINE",
"107 343 LINE SMOOTH",
"120 300 OFFCURVE",
"132 258 OFFCURVE",
"145 217 CURVE SMOOTH",
"177 107 LINE SMOOTH",
"186 74 OFFCURVE",
"194 48 OFFCURVE",
"200 29 CURVE SMOOTH",
"209 0 LINE"
);
},
{
closed = 1;
nodes = (
"454 0 LINE",
"463 29 LINE SMOOTH",
"469 48 OFFCURVE",
"477 74 OFFCURVE",
"486 107 CURVE SMOOTH",
"495 139 OFFCURVE",
"506 176 OFFCURVE",
"519 217 CURVE SMOOTH",
"531 258 OFFCURVE",
"543 300 OFFCURVE",
"556 343 CURVE SMOOTH",
"658 688 LINE",
"458 688 LINE",
"357 305 LINE",
"440 0 LINE"
);
}
);
width = 663;
}
);
leftKerningGroup = V;
note = V;
rightKerningGroup = V;
unicode = 0056;
},
{
glyphname = W;
layers = (
{
anchors = (
{
name = top;
position = "{495, 688}";
}
);
color = -1;
layerId = "CCCBC4F5-0E52-43D6-BD5E-05F7881D6474";
paths = (
{
closed = 1;
nodes = (
"404 0 LINE SMOOTH",
"404 0 OFFCURVE",
"407 11 OFFCURVE",
"412 33 CURVE SMOOTH",
"417 54 OFFCURVE",
"423 83 OFFCURVE",
"432 120 CURVE SMOOTH",
"441 157 OFFCURVE",
"450 199 OFFCURVE",
"461 247 CURVE SMOOTH",
"495 398 LINE",
"501 398 LINE",
"513 345 OFFCURVE",
"525 295 OFFCURVE",
"537 247 CURVE SMOOTH",
"548 199 OFFCURVE",
"558 157 OFFCURVE",
"567 120 CURVE SMOOTH",
"588 33 LINE SMOOTH",
"593 11 OFFCURVE",
"596 0 OFFCURVE",
"596 0 CURVE SMOOTH",
"767 0 LINE",
"603 688 LINE",
"398 688 LINE",
"323 344 LINE",
"393 0 LINE"
);
},
{
closed = 1;
nodes = (
"351 0 LINE",
"209 688 LINE",
"10 688 LINE",
"91 343 LINE SMOOTH",
"101 300 OFFCURVE",
"111 258 OFFCURVE",
"121 217 CURVE SMOOTH",
"148 107 LINE SMOOTH",
"155 74 OFFCURVE",
"161 48 OFFCURVE",
"166 29 CURVE SMOOTH",
"171 10 OFFCURVE",
"173 0 OFFCURVE",
"173 0 CURVE SMOOTH"
);
},
{
closed = 1;
nodes = (
"822 0 LINE SMOOTH",
"822 0 OFFCURVE",
"824 10 OFFCURVE",
"829 29 CURVE SMOOTH",
"834 48 OFFCURVE",
"840 74 OFFCURVE",
"848 107 CURVE SMOOTH",
"855 139 OFFCURVE",
"864 176 OFFCURVE",
"874 217 CURVE SMOOTH",
"904 343 LINE SMOOTH",
"928 444 OFFCURVE",
"955 559 OFFCURVE",
"986 688 CURVE",
"787 688 LINE",
"727 350 LINE",
"810 0 LINE"
);
}
);
width = 996;
}
);
leftKerningGroup = V;
note = W;
rightKerningGroup = V;
unicode = 0057;
},
{
glyphname = X;
layers = (
{
color = -1;
layerId = "CCCBC4F5-0E52-43D6-BD5E-05F7881D6474";
paths = (
{
closed = 1;
nodes = (
"673 0 LINE",
"236 688 LINE",
"9 688 LINE",
"445 0 LINE"
);
},
{
closed = 1;
nodes = (
"224 0 LINE",
"301 147 LINE",
"197 312 LINE",
"5 0 LINE"
);
},
{
closed = 1;
nodes = (
"670 688 LINE",
"451 688 LINE",
"375 548 LINE",
"480 382 LINE"
);
}
);
width = 678;
}
);
note = X;
rightKerningGroup = X;
unicode = 0058;
},
{
glyphname = Y;
layers = (
{
anchors = (
{
name = bottom;
position = "{312, 0}";
},
{
name = top;
position = "{326, 688}";
}
);
color = -1;
layerId = "CCCBC4F5-0E52-43D6-BD5E-05F7881D6474";
paths = (
{
closed = 1;
nodes = (
"416 0 LINE",
"416 226 LINE",
"199 688 LINE",
"-5 688 LINE",
"36 601 OFFCURVE",
"73 524 OFFCURVE",
"105 457 CURVE SMOOTH",
"146 372 LINE SMOOTH",
"159 344 OFFCURVE",
"170 319 OFFCURVE",
"181 298 CURVE SMOOTH",
"192 277 OFFCURVE",
"200 260 OFFCURVE",
"207 247 CURVE",
"216 227 LINE",
"216 0 LINE"
);
},
{
closed = 1;
nodes = (
"446 290 OFFCURVE",
"454 307 OFFCURVE",
"464 327 CURVE SMOOTH",
"527 458 LINE SMOOTH",
"538 481 OFFCURVE",
"549 504 OFFCURVE",
"560 526 CURVE SMOOTH",
"585 577 OFFCURVE",
"611 631 OFFCURVE",
"638 688 CURVE",
"438 688 LINE",
"345 475 LINE",
"439 275 LINE"
);
}
);
width = 633;
}
);
leftKerningGroup = Y;
note = Y;
rightKerningGroup = Y;
unicode = 0059;
},
{
glyphname = Z;
layers = (
{
anchors = (
{
name = top;
position = "{317, 688}";
}
);
color = -1;
layerId = "CCCBC4F5-0E52-43D6-BD5E-05F7881D6474";
paths = (
{
closed = 1;
nodes = (
"172 0 LINE",
"540 495 LINE",
"298 495 LINE",
"40 147 LINE",
"40 0 LINE"
);
},
{
closed = 1;
nodes = (
"578 0 LINE",
"578 153 LINE",
"338 153 LINE",
"224 0 LINE"
);
},
{
closed = 1;
nodes = (
"570 535 LINE",
"578 546 LINE",
"578 688 LINE",
"51 688 LINE",
"51 535 LINE"
);
}
);
width = 618;
}
);
note = Z;
unicode = 005A;
},
{
glyphname = A.salt;
layers = (
{
anchors = (
{
name = bottom;
position = "{344, 0}";
},
{
name = ogonek;
position = "{540, -4}";
},
{
name = top;
position = "{341, 688}";
}
);
color = -1;
layerId = "CCCBC4F5-0E52-43D6-BD5E-05F7881D6474";
paths = (
{
closed = 1;
nodes = (
"628 0 LINE",
"628 374 LINE SMOOTH",
"628 493 OFFCURVE",
"627 573 OFFCURVE",
"591 624 CURVE SMOOTH",
"555 675 OFFCURVE",
"485 696 OFFCURVE",
"345 696 CURVE SMOOTH",
"324 696 LINE SMOOTH",
"317 696 OFFCURVE",
"311 696 OFFCURVE",
"304 695 CURVE",
"304 541 LINE",
"315 542 OFFCURVE",
"328 543 OFFCURVE",
"345 543 CURVE SMOOTH",
"366 543 OFFCURVE",
"382 542 OFFCURVE",
"393 540 CURVE SMOOTH",
"416 535 OFFCURVE",
"425 520 OFFCURVE",
"427 485 CURVE SMOOTH",
"428 468 OFFCURVE",
"428 444 OFFCURVE",
"428 414 CURVE SMOOTH",
"428 332 LINE",
"304 332 LINE",
"304 171 LINE",
"428 171 LINE",
"428 0 LINE"
);
},
{
closed = 1;
nodes = (
"262 0 LINE",
"262 693 LINE",
"163 684 OFFCURVE",
"113 657 OFFCURVE",
"88 606 CURVE SMOOTH",
"63 554 OFFCURVE",
"62 479 OFFCURVE",
"62 374 CURVE SMOOTH",
"62 0 LINE"
);
}
);
width = 690;
}
);
note = A.salt;
},
{
glyphname = G.salt;
layers = (
{
anchors = (
{
name = bottom;
position = "{358, 0}";
},
{
name = top;
position = "{366, 688}";
}
);
color = -1;
layerId = "CCCBC4F5-0E52-43D6-BD5E-05F7881D6474";
paths = (
{
closed = 1;
nodes = (
"379 -8 LINE SMOOTH",
"384 -8 OFFCURVE",
"389 -8 OFFCURVE",
"394 -7 CURVE",
"394 146 LINE",
"389 145 OFFCURVE",
"383 145 OFFCURVE",
"376 145 CURVE SMOOTH",
"351 145 LINE SMOOTH",
"329 145 OFFCURVE",
"312 146 OFFCURVE",
"299 149 CURVE",
"273 154 OFFCURVE",
"259 179 OFFCURVE",
"255 232 CURVE",
"252 259 OFFCURVE",
"251 296 OFFCURVE",
"251 344 CURVE SMOOTH",
"251 689 LINE",
"168 678 OFFCURVE",
"118 652 OFFCURVE",
"87 598 CURVE SMOOTH",
"56 544 OFFCURVE",
"47 463 OFFCURVE",
"47 344 CURVE SMOOTH",
"47 200 OFFCURVE",
"56 112 OFFCURVE",
"100 60 CURVE SMOOTH",
"144 8 OFFCURVE",
"224 -8 OFFCURVE",
"364 -8 CURVE SMOOTH"
);
},
{
closed = 1;
nodes = (
"535 2 OFFCURVE",
"585 24 OFFCURVE",
"610 67 CURVE SMOOTH",
"634 110 OFFCURVE",
"635 173 OFFCURVE",
"635 261 CURVE SMOOTH",
"635 418 LINE",
"350 418 LINE",
"350 273 LINE",
"436 273 LINE",
"436 -5 LINE"
);
},
{
closed = 1;
nodes = (
"320 542 OFFCURVE",
"364 543 OFFCURVE",
"439 543 CURVE SMOOTH",
"453 543 OFFCURVE",
"470 542 OFFCURVE",
"489 541 CURVE",
"508 539 OFFCURVE",
"527 537 OFFCURVE",
"544 536 CURVE",
"565 533 OFFCURVE",
"586 531 OFFCURVE",
"607 529 CURVE",
"607 672 LINE",
"584 677 OFFCURVE",
"560 681 OFFCURVE",
"534 684 CURVE",
"490 691 OFFCURVE",
"430 696 OFFCURVE",
"369 696 CURVE SMOOTH",
"341 696 OFFCURVE",
"316 695 OFFCURVE",
"293 694 CURVE",
"293 527 LINE"
);
}
);
width = 690;
}
);
leftKerningGroup = O;
note = G.salt;
rightKerningGroup = O;
},
{
glyphname = R.salt;
layers = (
{
anchors = (
{
name = bottom;
position = "{344, 0}";
},
{
name = top;
position = "{340, 688}";
}
);
color = -1;
layerId = "CCCBC4F5-0E52-43D6-BD5E-05F7881D6474";
paths = (
{
closed = 1;
nodes = (
"634 0 LINE",
"633 30 OFFCURVE",
"631 57 OFFCURVE",
"629 81 CURVE",
"628 102 OFFCURVE",
"626 121 OFFCURVE",
"625 139 CURVE SMOOTH",
"623 171 LINE SMOOTH",
"620 223 OFFCURVE",
"610 254 OFFCURVE",
"592 275 CURVE SMOOTH",
"574 296 OFFCURVE",
"547 307 OFFCURVE",
"512 315 CURVE",
"512 319 LINE",
"549 330 OFFCURVE",
"579 344 OFFCURVE",
"599 372 CURVE SMOOTH",
"619 399 OFFCURVE",
"630 439 OFFCURVE",
"630 500 CURVE SMOOTH",
"630 624 OFFCURVE",
"577 688 OFFCURVE",
"444 688 CURVE SMOOTH",
"307 688 LINE",
"307 535 LINE",
"341 535 LINE SMOOTH",
"380 535 OFFCURVE",
"401 534 OFFCURVE",
"413 524 CURVE SMOOTH",
"425 514 OFFCURVE",
"427 494 OFFCURVE",
"427 461 CURVE SMOOTH",
"427 428 OFFCURVE",
"425 409 OFFCURVE",
"413 399 CURVE SMOOTH",
"401 389 OFFCURVE",
"380 387 OFFCURVE",
"341 387 CURVE SMOOTH",
"307 387 LINE",
"307 235 LINE",
"344 235 LINE SMOOTH",
"361 235 OFFCURVE",
"375 234 OFFCURVE",
"385 231 CURVE",
"405 226 OFFCURVE",
"415 213 OFFCURVE",
"419 192 CURVE SMOOTH",
"423 171 OFFCURVE",
"425 138 OFFCURVE",
"428 103 CURVE SMOOTH",
"429 86 OFFCURVE",
"431 69 OFFCURVE",
"432 54 CURVE SMOOTH",
"433 36 OFFCURVE",
"435 18 OFFCURVE",
"436 0 CURVE"
);
},
{
closed = 1;
nodes = (
"265 0 LINE",
"265 688 LINE",
"65 688 LINE",
"65 0 LINE"
);
}
);
width = 674;
}
);
note = R.salt;
},
{
glyphname = a;
layers = (
{
anchors = (
{
name = bottom;
position = "{268, 0}";
},
{
name = ogonek;
position = "{415, -4}";
},
{
name = top;
position = "{284, 510}";
}
);
color = -1;
layerId = "CCCBC4F5-0E52-43D6-BD5E-05F7881D6474";
paths = (
{
closed = 1;
nodes = (
"503 0 LINE",
"503 304 LINE SMOOTH",
"503 380 OFFCURVE",
"500 433 OFFCURVE",
"469 468 CURVE SMOOTH",
"437 503 OFFCURVE",
"378 518 OFFCURVE",
"266 518 CURVE SMOOTH",
"181 518 OFFCURVE",
"110 509 OFFCURVE",
"63 500 CURVE",
"63 370 LINE",
"116 373 LINE",
"147 376 OFFCURVE",
"181 377 OFFCURVE",
"205 377 CURVE SMOOTH",
"233 377 OFFCURVE",
"255 377 OFFCURVE",
"270 376 CURVE SMOOTH",
"285 375 OFFCURVE",
"297 373 OFFCURVE",
"304 369 CURVE SMOOTH",
"318 361 OFFCURVE",
"318 345 OFFCURVE",
"318 316 CURVE SMOOTH",
"318 0 LINE"
);
},
{
closed = 1;
nodes = (
"209 -7 OFFCURVE",
"244 -4 OFFCURVE",
"276 21 CURVE",
"276 123 LINE",
"266 123 LINE SMOOTH",
"253 123 OFFCURVE",
"243 124 OFFCURVE",
"236 125 CURVE SMOOTH",
"229 126 OFFCURVE",
"224 129 OFFCURVE",
"221 133 CURVE",
"215 140 OFFCURVE",
"214 150 OFFCURVE",
"214 169 CURVE SMOOTH",
"214 180 OFFCURVE",
"214 188 OFFCURVE",
"215 194 CURVE",
"216 206 OFFCURVE",
"222 212 OFFCURVE",
"236 213 CURVE",
"243 214 OFFCURVE",
"253 214 OFFCURVE",
"266 214 CURVE SMOOTH",
"276 214 LINE",
"276 303 LINE",
"245 304 OFFCURVE",
"209 305 OFFCURVE",
"192 305 CURVE SMOOTH",
"128 305 OFFCURVE",
"89 296 OFFCURVE",
"66 272 CURVE SMOOTH",
"42 248 OFFCURVE",
"35 209 OFFCURVE",
"35 148 CURVE SMOOTH",
"35 45 OFFCURVE",
"78 -7 OFFCURVE",
"170 -7 CURVE SMOOTH"
);
}
);
width = 558;
}
);
leftKerningGroup = a;
note = a;
rightKerningGroup = a;
unicode = 0061;
},
{
glyphname = aacute;
layers = (
{
background = {
paths = (
{
closed = 1;
nodes = (
"330 596 LINE",
"194 596 LINE",
"194 601 LINE",
"282 743 LINE",
"465 743 LINE",
"465 738 LINE"
);
},
{
closed = 1;
nodes = (
"503 0 LINE",
"318 0 LINE",
"318 316 LINE SMOOTH",
"318 345 OFFCURVE",
"318 361 OFFCURVE",
"304 369 CURVE SMOOTH",
"297 373 OFFCURVE",
"285 375 OFFCURVE",
"270 376 CURVE SMOOTH",
"255 377 OFFCURVE",
"233 377 OFFCURVE",
"205 377 CURVE SMOOTH",
"181 377 OFFCURVE",
"147 376 OFFCURVE",
"116 373 CURVE",
"63 370 LINE",
"63 500 LINE",
"110 509 OFFCURVE",
"181 518 OFFCURVE",
"266 518 CURVE SMOOTH",
"378 518 OFFCURVE",
"437 503 OFFCURVE",
"469 468 CURVE SMOOTH",
"500 433 OFFCURVE",
"503 380 OFFCURVE",
"503 304 CURVE SMOOTH"
);
},
{
closed = 1;
nodes = (
"276 123 LINE",
"276 21 LINE",
"244 -4 OFFCURVE",
"209 -7 OFFCURVE",
"170 -7 CURVE SMOOTH",
"78 -7 OFFCURVE",
"35 45 OFFCURVE",
"35 148 CURVE SMOOTH",
"35 209 OFFCURVE",
"42 248 OFFCURVE",
"66 272 CURVE SMOOTH",
"89 296 OFFCURVE",
"128 305 OFFCURVE",
"192 305 CURVE SMOOTH",
"209 305 OFFCURVE",
"245 304 OFFCURVE",
"276 303 CURVE",
"276 214 LINE",
"266 214 LINE SMOOTH",
"253 214 OFFCURVE",
"243 214 OFFCURVE",
"236 213 CURVE",
"222 212 OFFCURVE",
"216 206 OFFCURVE",
"215 194 CURVE",
"214 188 OFFCURVE",
"214 180 OFFCURVE",
"214 169 CURVE SMOOTH",
"214 150 OFFCURVE",
"215 140 OFFCURVE",
"221 133 CURVE",
"224 129 OFFCURVE",
"229 126 OFFCURVE",
"236 125 CURVE SMOOTH",
"243 124 OFFCURVE",
"253 123 OFFCURVE",
"266 123 CURVE SMOOTH"
);
}
);
};
color = -1;
components = (
{
name = a;
},
{
name = acutecomb;
transform = "{1, 0, 0, 1, 505, 0}";
}
);
layerId = "CCCBC4F5-0E52-43D6-BD5E-05F7881D6474";
width = 558;
}
);
leftKerningGroup = a;
note = aacute;
rightKerningGroup = a;
unicode = 00E1;
},
{
glyphname = ae;
layers = (
{
anchors = (
{
name = top;
position = "{415, 510}";
}
);
color = -1;
layerId = "CCCBC4F5-0E52-43D6-BD5E-05F7881D6474";
paths = (
{
closed = 1;
nodes = (
"609 -8 OFFCURVE",
"636 -7 OFFCURVE",
"659 -5 CURVE SMOOTH",
"706 -2 OFFCURVE",
"741 3 OFFCURVE",
"769 11 CURVE",
"769 140 LINE",
"752 139 OFFCURVE",
"735 137 OFFCURVE",
"718 136 CURVE",
"689 133 OFFCURVE",
"653 133 OFFCURVE",
"625 133 CURVE SMOOTH",
"596 133 OFFCURVE",
"573 134 OFFCURVE",
"557 135 CURVE SMOOTH",
"540 136 OFFCURVE",
"528 139 OFFCURVE",
"520 144 CURVE SMOOTH",
"504 154 OFFCURVE",
"503 174 OFFCURVE",
"503 214 CURVE SMOOTH",
"503 515 LINE",
"468 510 OFFCURVE",
"440 502 OFFCURVE",
"417 489 CURVE",
"384 508 OFFCURVE",
"334 518 OFFCURVE",
"266 518 CURVE SMOOTH",
"181 518 OFFCURVE",
"110 509 OFFCURVE",
"63 500 CURVE",
"63 370 LINE",
"116 373 LINE",
"147 376 OFFCURVE",
"181 377 OFFCURVE",
"205 377 CURVE SMOOTH",
"233 377 OFFCURVE",
"255 377 OFFCURVE",
"270 376 CURVE SMOOTH",
"285 375 OFFCURVE",
"297 373 OFFCURVE",
"304 369 CURVE SMOOTH",
"318 361 OFFCURVE",
"318 345 OFFCURVE",
"318 316 CURVE SMOOTH",
"318 0 LINE",
"343 5 OFFCURVE",
"366 15 OFFCURVE",
"386 28 CURVE",
"425 4 OFFCURVE",
"484 -8 OFFCURVE",
"579 -8 CURVE SMOOTH"
);
},
{
closed = 1;
nodes = (
"245 -8 OFFCURVE",
"261 -7 OFFCURVE",
"276 -6 CURVE",
"276 123 LINE",
"266 123 LINE SMOOTH",
"253 123 OFFCURVE",
"243 124 OFFCURVE",
"236 125 CURVE SMOOTH",
"229 126 OFFCURVE",
"224 129 OFFCURVE",
"221 133 CURVE",
"215 140 OFFCURVE",
"214 150 OFFCURVE",
"214 169 CURVE SMOOTH",
"214 180 OFFCURVE",
"214 188 OFFCURVE",
"215 194 CURVE",
"216 206 OFFCURVE",
"222 212 OFFCURVE",
"236 213 CURVE",
"243 214 OFFCURVE",
"253 214 OFFCURVE",
"266 214 CURVE SMOOTH",
"276 214 LINE",
"276 303 LINE",
"245 304 OFFCURVE",
"209 305 OFFCURVE",
"192 305 CURVE SMOOTH",
"128 305 OFFCURVE",
"89 296 OFFCURVE",
"66 272 CURVE SMOOTH",
"42 248 OFFCURVE",
"35 209 OFFCURVE",
"35 148 CURVE SMOOTH",
"35 92 OFFCURVE",
"45 53 OFFCURVE",
"74 28 CURVE SMOOTH",
"103 3 OFFCURVE",
"151 -8 OFFCURVE",
"230 -8 CURVE SMOOTH"
);
},
{
closed = 1;
nodes = (
"789 214 LINE",
"789 254 LINE SMOOTH",
"789 349 OFFCURVE",
"789 416 OFFCURVE",
"760 458 CURVE SMOOTH",
"731 500 OFFCURVE",
"674 518 OFFCURVE",
"559 518 CURVE SMOOTH",
"545 518 LINE",
"545 391 LINE",
"559 391 LINE SMOOTH",
"583 391 OFFCURVE",
"596 389 OFFCURVE",
"604 377 CURVE SMOOTH",
"612 365 OFFCURVE",
"615 344 OFFCURVE",
"615 305 CURVE",
"545 305 LINE",
"545 214 LINE"
);
}
);
width = 834;
}
);
note = ae;
rightKerningGroup = b;
unicode = 00E6;
},
{
glyphname = b;
layers = (
{
color = -1;
layerId = "CCCBC4F5-0E52-43D6-BD5E-05F7881D6474";
paths = (
{
closed = 1;
nodes = (
"242 0 LINE",
"242 743 LINE",
"57 743 LINE",
"57 0 LINE"
);
},
{
closed = 1;
nodes = (
"438 -7 OFFCURVE",
"476 8 OFFCURVE",
"501 48 CURVE SMOOTH",
"525 88 OFFCURVE",
"536 153 OFFCURVE",
"536 253 CURVE SMOOTH",
"536 352 OFFCURVE",
"525 418 OFFCURVE",
"501 459 CURVE SMOOTH",
"476 500 OFFCURVE",
"438 517 OFFCURVE",
"386 517 CURVE SMOOTH",
"343 517 OFFCURVE",
"312 513 OFFCURVE",
"284 490 CURVE",
"284 363 LINE",
"295 363 LINE SMOOTH",
"308 363 OFFCURVE",
"319 362 OFFCURVE",
"326 361 CURVE",
"340 358 OFFCURVE",
"346 346 OFFCURVE",
"347 317 CURVE SMOOTH",
"348 302 OFFCURVE",
"348 282 OFFCURVE",
"348 255 CURVE SMOOTH",
"348 228 OFFCURVE",
"348 208 OFFCURVE",
"347 193 CURVE SMOOTH",
"346 178 OFFCURVE",
"344 168 OFFCURVE",
"341 161 CURVE",
"334 148 OFFCURVE",
"322 147 OFFCURVE",
"295 147 CURVE SMOOTH",
"284 147 LINE",
"284 20 LINE",
"312 -1 OFFCURVE",
"345 -7 OFFCURVE",
"386 -7 CURVE SMOOTH"
);
}
);
width = 578;
}
);
note = b;
rightKerningGroup = b;
unicode = 0062;
},
{
glyphname = c;
layers = (
{
anchors = (
{
name = bottom;
position = "{211, 0}";
},
{
name = top;
position = "{254, 510}";
}
);
color = -1;
layerId = "CCCBC4F5-0E52-43D6-BD5E-05F7881D6474";
paths = (
{
closed = 1;
nodes = (
"333 -8 OFFCURVE",
"386 1 OFFCURVE",
"423 10 CURVE",
"423 140 LINE",
"412 139 OFFCURVE",
"401 137 OFFCURVE",
"389 136 CURVE",
"369 133 OFFCURVE",
"343 133 OFFCURVE",
"316 133 CURVE SMOOTH",
"276 133 OFFCURVE",
"255 138 OFFCURVE",
"243 155 CURVE SMOOTH",
"231 172 OFFCURVE",
"230 203 OFFCURVE",
"230 255 CURVE SMOOTH",
"230 516 LINE",
"139 509 OFFCURVE",
"92 480 OFFCURVE",
"68 433 CURVE SMOOTH",
"44 386 OFFCURVE",
"42 323 OFFCURVE",
"42 254 CURVE SMOOTH",
"42 179 OFFCURVE",
"44 114 OFFCURVE",
"73 67 CURVE SMOOTH",
"101 20 OFFCURVE",
"157 -8 OFFCURVE",
"265 -8 CURVE SMOOTH"
);
},
{
closed = 1;
nodes = (
"419 500 LINE",
"383 508 OFFCURVE",
"336 517 OFFCURVE",
"272 518 CURVE",
"272 373 LINE",
"282 376 OFFCURVE",
"297 377 OFFCURVE",
"316 377 CURVE SMOOTH",
"343 377 OFFCURVE",
"369 376 OFFCURVE",
"388 373 CURVE",
"419 370 LINE"
);
}
);
width = 465;
}
);
leftKerningGroup = d;
note = c;
unicode = 0063;
},
{
glyphname = d;
layers = (
{
anchors = (
{
name = center;
position = "{402, 613}";
}
);
color = -1;
layerId = "CCCBC4F5-0E52-43D6-BD5E-05F7881D6474";
paths = (
{
closed = 1;
nodes = (
"521 0 LINE",
"521 743 LINE",
"336 743 LINE",
"336 0 LINE"
);
},
{
closed = 1;
nodes = (
"233 -7 OFFCURVE",
"266 -1 OFFCURVE",
"294 20 CURVE",
"294 147 LINE",
"283 147 LINE SMOOTH",
"270 147 OFFCURVE",
"260 148 OFFCURVE",
"253 149 CURVE",
"239 152 OFFCURVE",
"232 164 OFFCURVE",
"231 193 CURVE SMOOTH",
"230 208 OFFCURVE",
"230 228 OFFCURVE",
"230 255 CURVE SMOOTH",
"230 282 OFFCURVE",
"230 302 OFFCURVE",
"231 317 CURVE SMOOTH",
"232 332 OFFCURVE",
"234 342 OFFCURVE",
"237 349 CURVE",
"244 362 OFFCURVE",
"256 363 OFFCURVE",
"283 363 CURVE SMOOTH",
"294 363 LINE",
"294 490 LINE",
"266 513 OFFCURVE",
"235 517 OFFCURVE",
"192 517 CURVE SMOOTH",
"140 517 OFFCURVE",
"102 500 OFFCURVE",
"78 459 CURVE SMOOTH",
"53 418 OFFCURVE",
"42 352 OFFCURVE",
"42 253 CURVE SMOOTH",
"42 153 OFFCURVE",
"53 88 OFFCURVE",
"78 48 CURVE SMOOTH",
"102 8 OFFCURVE",
"140 -7 OFFCURVE",
"192 -7 CURVE SMOOTH"
);
}
);
width = 578;
}
);
leftKerningGroup = d;
note = d;
unicode = 0064;
},
{
glyphname = eth;
layers = (
{
color = -1;
layerId = "CCCBC4F5-0E52-43D6-BD5E-05F7881D6474";
paths = (
{
closed = 1;
nodes = (
"431 -1 OFFCURVE",
"479 19 OFFCURVE",
"504 60 CURVE SMOOTH",
"528 101 OFFCURVE",
"530 163 OFFCURVE",
"530 254 CURVE SMOOTH",
"530 414 OFFCURVE",
"504 522 OFFCURVE",
"460 603 CURVE",
"521 612 LINE",
"521 716 LINE",
"392 698 LINE",
"377 714 OFFCURVE",
"364 728 OFFCURVE",
"345 743 CURVE",
"150 743 LINE",
"150 739 LINE",
"173 719 OFFCURVE",
"196 697 OFFCURVE",
"217 673 CURVE",
"151 664 LINE",
"151 560 LINE",
"283 578 LINE",
"294 558 OFFCURVE",
"304 535 OFFCURVE",
"313 511 CURVE",
"311 508 LINE",
"299 511 OFFCURVE",
"285 513 OFFCURVE",
"272 514 CURVE",
"272 377 LINE",
"286 377 LINE SMOOTH",
"300 377 OFFCURVE",
"311 376 OFFCURVE",
"319 374 CURVE SMOOTH",
"334 370 OFFCURVE",
"340 354 OFFCURVE",
"341 322 CURVE SMOOTH",
"342 305 OFFCURVE",
"342 283 OFFCURVE",
"342 254 CURVE SMOOTH",
"342 -6 LINE"
);
},
{
closed = 1;
nodes = (
"300 -8 LINE",
"300 133 LINE",
"286 133 LINE SMOOTH",
"272 133 OFFCURVE",
"261 134 OFFCURVE",
"254 136 CURVE SMOOTH",
"238 140 OFFCURVE",
"232 155 OFFCURVE",
"231 187 CURVE SMOOTH",
"230 203 OFFCURVE",
"230 225 OFFCURVE",
"230 254 CURVE SMOOTH",
"230 518 LINE",
"216 518 LINE SMOOTH",
"136 518 OFFCURVE",
"93 495 OFFCURVE",
"70 451 CURVE SMOOTH",
"46 407 OFFCURVE",
"42 341 OFFCURVE",
"42 254 CURVE SMOOTH",
"42 155 OFFCURVE",
"45 90 OFFCURVE",
"77 49 CURVE SMOOTH",
"109 8 OFFCURVE",
"170 -8 OFFCURVE",
"286 -8 CURVE SMOOTH"
);
}
);
width = 580;
}
);
note = eth;
unicode = 00F0;
},
{
glyphname = e;
layers = (
{
anchors = (
{
name = bottom;
position = "{284, 0}";
},
{
name = ogonek;
position = "{404, 7}";
},
{
name = top;
position = "{290, 510}";
}
);
color = -1;
layerId = "CCCBC4F5-0E52-43D6-BD5E-05F7881D6474";
paths = (
{
closed = 1;
nodes = (
"332 -8 OFFCURVE",
"359 -7 OFFCURVE",
"382 -5 CURVE SMOOTH",
"429 -2 OFFCURVE",
"464 3 OFFCURVE",
"492 11 CURVE",
"492 140 LINE",
"475 139 OFFCURVE",
"458 137 OFFCURVE",
"441 136 CURVE",
"412 133 OFFCURVE",
"376 133 OFFCURVE",
"348 133 CURVE SMOOTH",
"319 133 OFFCURVE",
"296 134 OFFCURVE",
"280 135 CURVE SMOOTH",
"263 136 OFFCURVE",
"251 139 OFFCURVE",
"243 144 CURVE SMOOTH",
"227 154 OFFCURVE",
"226 174 OFFCURVE",
"226 214 CURVE SMOOTH",
"226 516 LINE",
"138 509 OFFCURVE",
"92 484 OFFCURVE",
"68 441 CURVE SMOOTH",
"44 397 OFFCURVE",
"42 335 OFFCURVE",
"42 254 CURVE SMOOTH",
"42 165 OFFCURVE",
"45 100 OFFCURVE",
"79 57 CURVE SMOOTH",
"113 13 OFFCURVE",
"178 -8 OFFCURVE",
"302 -8 CURVE SMOOTH"
);
},
{
closed = 1;
nodes = (
"512 214 LINE",
"512 254 LINE SMOOTH",
"512 349 OFFCURVE",
"512 416 OFFCURVE",
"483 458 CURVE SMOOTH",
"454 500 OFFCURVE",
"397 518 OFFCURVE",
"282 518 CURVE SMOOTH",
"268 518 LINE",
"268 391 LINE",
"282 391 LINE SMOOTH",
"306 391 OFFCURVE",
"319 389 OFFCURVE",
"327 377 CURVE SMOOTH",
"335 365 OFFCURVE",
"338 344 OFFCURVE",
"338 305 CURVE",
"268 305 LINE",
"268 214 LINE"
);
}
);
width = 557;
}
);
leftKerningGroup = d;
note = e;
rightKerningGroup = b;
unicode = 0065;
},
{
glyphname = f;
layers = (
{
color = -1;
layerId = "CCCBC4F5-0E52-43D6-BD5E-05F7881D6474";
paths = (
{
closed = 1;
nodes = (
"419 369 LINE",
"419 510 LINE",
"297 510 LINE",
"297 555 LINE SMOOTH",
"297 570 OFFCURVE",
"298 581 OFFCURVE",
"300 589 CURVE",
"303 605 OFFCURVE",
"318 613 OFFCURVE",
"351 614 CURVE SMOOTH",
"367 615 OFFCURVE",
"390 615 OFFCURVE",
"419 615 CURVE",
"419 743 LINE",
"288 743 OFFCURVE",
"212 742 OFFCURVE",
"168 714 CURVE SMOOTH",
"124 686 OFFCURVE",
"112 630 OFFCURVE",
"112 521 CURVE SMOOTH",
"112 510 LINE",
"18 510 LINE",
"18 369 LINE"
);
},
{
closed = 1;
nodes = (
"297 0 LINE",
"297 329 LINE",
"112 329 LINE",
"112 0 LINE"
);
}
);
width = 437;
}
);
note = f;
unicode = 0066;
},
{
glyphname = g;
layers = (
{
anchors = (
{
name = bottom;
position = "{295, -160}";
},
{
name = top;
position = "{291, 510}";
}
);
color = -1;
layerId = "CCCBC4F5-0E52-43D6-BD5E-05F7881D6474";
paths = (
{
closed = 1;
nodes = (
"383 -206 OFFCURVE",
"450 -185 OFFCURVE",
"484 -141 CURVE SMOOTH",
"518 -98 OFFCURVE",
"521 -33 OFFCURVE",
"521 56 CURVE SMOOTH",
"521 510 LINE",
"336 510 LINE",
"336 23 LINE SMOOTH",
"336 1 OFFCURVE",
"335 -16 OFFCURVE",
"334 -28 CURVE",
"330 -52 OFFCURVE",
"316 -61 OFFCURVE",
"283 -63 CURVE SMOOTH",
"266 -64 OFFCURVE",
"243 -65 OFFCURVE",
"213 -65 CURVE SMOOTH",
"79 -65 LINE",
"79 -194 LINE",
"139 -200 LINE SMOOTH",
"174 -203 OFFCURVE",
"218 -206 OFFCURVE",
"259 -206 CURVE SMOOTH"
);
},
{
closed = 1;
nodes = (
"235 3 OFFCURVE",
"266 7 OFFCURVE",
"294 30 CURVE",
"294 157 LINE",
"283 157 LINE SMOOTH",
"270 157 OFFCURVE",
"260 158 OFFCURVE",
"253 159 CURVE",
"239 162 OFFCURVE",
"232 173 OFFCURVE",
"231 201 CURVE",
"230 215 OFFCURVE",
"230 235 OFFCURVE",
"230 260 CURVE SMOOTH",
"230 285 OFFCURVE",
"230 305 OFFCURVE",
"231 319 CURVE SMOOTH",
"232 333 OFFCURVE",
"234 343 OFFCURVE",
"237 350 CURVE",
"244 362 OFFCURVE",
"256 363 OFFCURVE",
"283 363 CURVE SMOOTH",
"294 363 LINE",
"294 489 LINE",
"266 512 OFFCURVE",
"233 517 OFFCURVE",
"192 517 CURVE SMOOTH",
"140 517 OFFCURVE",
"102 502 OFFCURVE",
"78 463 CURVE SMOOTH",
"53 424 OFFCURVE",
"42 359 OFFCURVE",
"42 262 CURVE SMOOTH",
"42 165 OFFCURVE",
"53 100 OFFCURVE",
"78 60 CURVE SMOOTH",
"102 19 OFFCURVE",
"140 3 OFFCURVE",
"192 3 CURVE SMOOTH"
);
}
);
width = 578;
}
);
leftKerningGroup = d;
note = g;
unicode = 0067;
},
{
glyphname = h;
layers = (
{
anchors = (
{
name = bottom;
position = "{293, 0}";
},
{
name = center;
position = "{183, 618}";
},
{
name = top;
position = "{143, 750}";
}
);
color = -1;
layerId = "CCCBC4F5-0E52-43D6-BD5E-05F7881D6474";
paths = (
{
closed = 1;
nodes = (
"242 0 LINE",
"242 743 LINE",
"57 743 LINE",
"57 0 LINE"
);
},
{
closed = 1;
nodes = (
"531 0 LINE",
"531 319 LINE SMOOTH",
"531 378 OFFCURVE",
"527 427 OFFCURVE",
"507 462 CURVE SMOOTH",
"487 497 OFFCURVE",
"450 517 OFFCURVE",
"386 517 CURVE SMOOTH",
"350 517 OFFCURVE",
"315 510 OFFCURVE",
"284 485 CURVE",
"284 363 LINE",
"294 363 LINE SMOOTH",
"319 363 OFFCURVE",
"334 363 OFFCURVE",
"340 348 CURVE SMOOTH",
"343 340 OFFCURVE",
"344 328 OFFCURVE",
"345 311 CURVE SMOOTH",
"346 294 OFFCURVE",
"346 271 OFFCURVE",
"346 241 CURVE SMOOTH",
"346 0 LINE"
);
}
);
width = 588;
}
);
note = h;
rightKerningGroup = h;
unicode = 0068;
},
{
glyphname = i;
layers = (
{
anchors = (
{
name = bottom;
position = "{150, 0}";
},
{
name = ogonek;
position = "{154, -4}";
}
);
color = -1;
layerId = "CCCBC4F5-0E52-43D6-BD5E-05F7881D6474";
paths = (
{
closed = 1;
nodes = (
"242 0 LINE",
"242 510 LINE",
"57 510 LINE",
"57 0 LINE"
);
},
{
closed = 1;
nodes = (
"242 599 LINE",
"242 743 LINE",
"57 743 LINE",
"57 599 LINE"
);
}
);
width = 299;
}
);
note = i;
unicode = 0069;
},
{
glyphname = idotless;
layers = (
{
anchors = (
{
name = bottom;
position = "{148, 0}";
},
{
name = top;
position = "{149, 510}";
}
);
color = -1;
layerId = "CCCBC4F5-0E52-43D6-BD5E-05F7881D6474";
paths = (
{
closed = 1;
nodes = (
"242 0 LINE",
"242 510 LINE",
"57 510 LINE",
"57 0 LINE"
);
}
);
width = 299;
}
);
note = dotlessi;
unicode = 0131;
},
{
glyphname = j;
layers = (
{
color = -1;
layerId = "CCCBC4F5-0E52-43D6-BD5E-05F7881D6474";
paths = (
{
closed = 1;
nodes = (
"87 -199 OFFCURVE",
"153 -194 OFFCURVE",
"193 -162 CURVE SMOOTH",
"232 -130 OFFCURVE",
"242 -71 OFFCURVE",
"242 37 CURVE SMOOTH",
"242 510 LINE",
"57 510 LINE",
"57 -18 LINE SMOOTH",
"57 -27 OFFCURVE",
"56 -35 OFFCURVE",
"55 -41 CURVE",
"52 -54 OFFCURVE",
"43 -62 OFFCURVE",
"21 -66 CURVE SMOOTH",
"10 -68 OFFCURVE",
"-6 -69 OFFCURVE",
"-25 -69 CURVE",
"-25 -199 LINE"
);
},
{
closed = 1;
nodes = (
"242 599 LINE",
"242 743 LINE",
"57 743 LINE",
"57 599 LINE"
);
}
);
width = 299;
}
);
note = j;
unicode = 006A;
},
{
glyphname = jdotless;
layers = (
{
anchors = (
{
name = top;
position = "{146, 510}";
}
);
color = -1;
layerId = "CCCBC4F5-0E52-43D6-BD5E-05F7881D6474";
paths = (
{
closed = 1;
nodes = (
"87 -199 OFFCURVE",
"153 -194 OFFCURVE",
"193 -162 CURVE SMOOTH",
"232 -130 OFFCURVE",
"242 -71 OFFCURVE",
"242 37 CURVE SMOOTH",
"242 510 LINE",
"57 510 LINE",
"57 -18 LINE SMOOTH",
"57 -27 OFFCURVE",
"56 -35 OFFCURVE",
"55 -41 CURVE",
"52 -54 OFFCURVE",
"43 -62 OFFCURVE",
"21 -66 CURVE SMOOTH",
"10 -68 OFFCURVE",
"-6 -69 OFFCURVE",
"-25 -69 CURVE",
"-25 -199 LINE"
);
}
);
width = 299;
}
);
unicode = 0237;
},
{
glyphname = k;
layers = (
{
anchors = (
{
name = bottom;
position = "{290, 0}";
}
);
color = -1;
layerId = "CCCBC4F5-0E52-43D6-BD5E-05F7881D6474";
paths = (
{
closed = 1;
nodes = (
"569 0 LINE",
"416 268 LINE",
"566 510 LINE",
"371 510 LINE",
"284 358 LINE",
"284 146 LINE",
"367 0 LINE"
);
},
{
closed = 1;
nodes = (
"242 0 LINE",
"242 743 LINE",
"57 743 LINE",
"57 0 LINE"
);
}
);
width = 576;
}
);
note = k;
rightKerningGroup = x;
unicode = 006B;
},
{
glyphname = kgreenlandic;
layers = (
{
anchors = (
{
name = bottom;
position = "{290, 0}";
}
);
color = -1;
layerId = "CCCBC4F5-0E52-43D6-BD5E-05F7881D6474";
paths = (
{
closed = 1;
nodes = (
"569 0 LINE",
"416 268 LINE",
"566 510 LINE",
"371 510 LINE",
"284 358 LINE",
"284 146 LINE",
"367 0 LINE"
);
},
{
closed = 1;
nodes = (
"242 0 LINE",
"242 510 LINE",
"57 510 LINE",
"57 0 LINE"
);
}
);
width = 576;
}
);
unicode = 0138;
},
{
glyphname = l;
layers = (
{
anchors = (
{
name = bottom;
position = "{147, 0}";
},
{
name = center;
position = "{151, 369}";
},
{
name = top;
position = "{149, 750}";
}
);
color = -1;
layerId = "CCCBC4F5-0E52-43D6-BD5E-05F7881D6474";
paths = (
{
closed = 1;
nodes = (
"242 0 LINE",
"242 743 LINE",
"57 743 LINE",
"57 0 LINE"
);
}
);
width = 299;
}
);
note = l;
unicode = 006C;
},
{
glyphname = m;
layers = (
{
color = -1;
layerId = "CCCBC4F5-0E52-43D6-BD5E-05F7881D6474";
paths = (
{
closed = 1;
nodes = (
"800 0 LINE",
"800 319 LINE SMOOTH",
"800 378 OFFCURVE",
"796 427 OFFCURVE",
"776 462 CURVE SMOOTH",
"756 497 OFFCURVE",
"721 517 OFFCURVE",
"660 517 CURVE SMOOTH",
"617 517 OFFCURVE",
"572 507 OFFCURVE",
"540 475 CURVE",
"548 459 OFFCURVE",
"553 437 OFFCURVE",
"557 417 CURVE",
"560 396 OFFCURVE",
"562 376 OFFCURVE",
"563 363 CURVE",
"568 363 LINE SMOOTH",
"592 363 OFFCURVE",
"604 363 OFFCURVE",
"610 348 CURVE SMOOTH",
"613 340 OFFCURVE",
"615 328 OFFCURVE",
"615 311 CURVE SMOOTH",
"615 241 LINE",
"615 0 LINE"
);
},
{
closed = 1;
nodes = (
"242 0 LINE",
"242 510 LINE",
"57 510 LINE",
"57 0 LINE"
);
},
{
closed = 1;
nodes = (
"521 0 LINE",
"521 319 LINE SMOOTH",
"521 406 OFFCURVE",
"508 455 OFFCURVE",
"485 483 CURVE SMOOTH",
"462 511 OFFCURVE",
"429 517 OFFCURVE",
"392 517 CURVE SMOOTH",
"355 517 OFFCURVE",
"316 512 OFFCURVE",
"284 488 CURVE",
"284 363 LINE",
"289 363 LINE SMOOTH",
"313 363 OFFCURVE",
"325 363 OFFCURVE",
"331 348 CURVE SMOOTH",
"334 340 OFFCURVE",
"336 328 OFFCURVE",
"336 311 CURVE SMOOTH",
"336 241 LINE",
"336 0 LINE"
);
}
);
width = 857;
}
);
leftKerningGroup = p;
note = m;
rightKerningGroup = h;
unicode = 006D;
},
{
glyphname = n;
layers = (
{
anchors = (
{
name = bottom;
position = "{291, 0}";
},
{
name = top;
position = "{298, 510}";
}
);
color = -1;
layerId = "CCCBC4F5-0E52-43D6-BD5E-05F7881D6474";
paths = (
{
closed = 1;
nodes = (
"531 0 LINE",
"531 319 LINE SMOOTH",
"531 378 OFFCURVE",
"527 427 OFFCURVE",
"507 462 CURVE SMOOTH",
"487 497 OFFCURVE",
"450 517 OFFCURVE",
"386 517 CURVE SMOOTH",
"351 517 OFFCURVE",
"315 511 OFFCURVE",
"284 488 CURVE",
"284 363 LINE",
"294 363 LINE SMOOTH",
"319 363 OFFCURVE",
"334 363 OFFCURVE",
"340 348 CURVE SMOOTH",
"343 340 OFFCURVE",
"344 328 OFFCURVE",
"345 311 CURVE SMOOTH",
"346 294 OFFCURVE",
"346 271 OFFCURVE",
"346 241 CURVE SMOOTH",
"346 0 LINE"
);
},
{
closed = 1;
nodes = (
"242 0 LINE",
"242 510 LINE",
"57 510 LINE",
"57 0 LINE"
);
}
);
width = 588;
}
);
leftKerningGroup = p;
note = n;
rightKerningGroup = h;
unicode = 006E;
},
{
glyphname = eng;
layers = (
{
color = -1;
layerId = "CCCBC4F5-0E52-43D6-BD5E-05F7881D6474";
paths = (
{
closed = 1;
nodes = (
"376 -199 OFFCURVE",
"442 -194 OFFCURVE",
"482 -162 CURVE SMOOTH",
"516.293 -133.862 OFFCURVE",
"528.164 -84.848 OFFCURVE",
"531 0 CURVE SMOOTH",
"531 319 LINE SMOOTH",
"531 378 OFFCURVE",
"527 427 OFFCURVE",
"507 462 CURVE SMOOTH",
"487 497 OFFCURVE",
"450 517 OFFCURVE",
"386 517 CURVE SMOOTH",
"351 517 OFFCURVE",
"315 511 OFFCURVE",
"284 488 CURVE",
"284 363 LINE",
"294 363 LINE SMOOTH",
"319 363 OFFCURVE",
"334 363 OFFCURVE",
"340 348 CURVE SMOOTH",
"343 340 OFFCURVE",
"344 328 OFFCURVE",
"345 311 CURVE SMOOTH",
"346 294 OFFCURVE",
"346 271 OFFCURVE",
"346 241 CURVE SMOOTH",
"346 -18 LINE SMOOTH",
"346 -27 OFFCURVE",
"345 -35 OFFCURVE",
"344 -41 CURVE",
"341 -54 OFFCURVE",
"332 -62 OFFCURVE",
"310 -66 CURVE SMOOTH",
"299 -68 OFFCURVE",
"283 -69 OFFCURVE",
"264 -69 CURVE",
"264 -199 LINE"
);
},
{
closed = 1;
nodes = (
"242 0 LINE",
"242 510 LINE",
"57 510 LINE",
"57 0 LINE"
);
}
);
width = 588;
}
);
unicode = 014B;
},
{
glyphname = nhookleft;
layers = (
{
color = -1;
layerId = "CCCBC4F5-0E52-43D6-BD5E-05F7881D6474";
paths = (
{
closed = 1;
nodes = (
"87 -199 OFFCURVE",
"153 -194 OFFCURVE",
"193 -162 CURVE SMOOTH",
"232 -130 OFFCURVE",
"242 -71 OFFCURVE",
"242 37 CURVE SMOOTH",
"242 510 LINE",
"57 510 LINE",
"57 -18 LINE SMOOTH",
"57 -27 OFFCURVE",
"56 -35 OFFCURVE",
"55 -41 CURVE",
"52 -54 OFFCURVE",
"43 -62 OFFCURVE",
"21 -66 CURVE SMOOTH",
"10 -68 OFFCURVE",
"-6 -69 OFFCURVE",
"-25 -69 CURVE",
"-25 -199 LINE"
);
},
{
closed = 1;
nodes = (
"531 0 LINE",
"531 319 LINE SMOOTH",
"531 378 OFFCURVE",
"527 427 OFFCURVE",
"507 462 CURVE SMOOTH",
"487 497 OFFCURVE",
"450 517 OFFCURVE",
"386 517 CURVE SMOOTH",
"351 517 OFFCURVE",
"315 511 OFFCURVE",
"284 488 CURVE",
"284 363 LINE",
"294 363 LINE SMOOTH",
"319 363 OFFCURVE",
"334 363 OFFCURVE",
"340 348 CURVE SMOOTH",
"343 340 OFFCURVE",
"344 328 OFFCURVE",
"345 311 CURVE SMOOTH",
"346 294 OFFCURVE",
"346 271 OFFCURVE",
"346 241 CURVE SMOOTH",
"346 0 LINE"
);
}
);
width = 588;
}
);
unicode = 0272;
},
{
glyphname = o;
layers = (
{
anchors = (
{
name = bottom;
position = "{287, 0}";
},
{
name = center;
position = "{285, 231}";
},
{
name = ogonek;
position = "{212, -12}";
},
{
name = top;
position = "{290, 510}";
},
{
name = topright;
position = "{328, 510}";
}
);
color = -1;
layerId = "CCCBC4F5-0E52-43D6-BD5E-05F7881D6474";
paths = (
{
closed = 1;
nodes = (
"431 -1 OFFCURVE",
"479 19 OFFCURVE",
"504 60 CURVE SMOOTH",
"528 101 OFFCURVE",
"530 163 OFFCURVE",
"530 254 CURVE SMOOTH",
"530 353 OFFCURVE",
"527 419 OFFCURVE",
"495 460 CURVE SMOOTH",
"463 501 OFFCURVE",
"402 518 OFFCURVE",
"286 518 CURVE SMOOTH",
"272 518 LINE",
"272 377 LINE",
"286 377 LINE SMOOTH",
"300 377 OFFCURVE",
"311 376 OFFCURVE",
"319 374 CURVE SMOOTH",
"334 370 OFFCURVE",
"340 354 OFFCURVE",
"341 322 CURVE SMOOTH",
"342 305 OFFCURVE",
"342 283 OFFCURVE",
"342 254 CURVE SMOOTH",
"342 -6 LINE"
);
},
{
closed = 1;
nodes = (
"300 -8 LINE",
"300 133 LINE",
"286 133 LINE SMOOTH",
"272 133 OFFCURVE",
"261 134 OFFCURVE",
"254 136 CURVE SMOOTH",
"238 140 OFFCURVE",
"232 155 OFFCURVE",
"231 187 CURVE SMOOTH",
"230 203 OFFCURVE",
"230 225 OFFCURVE",
"230 254 CURVE SMOOTH",
"230 516 LINE",
"141 511 OFFCURVE",
"93 491 OFFCURVE",
"69 449 CURVE SMOOTH",
"44 407 OFFCURVE",
"42 343 OFFCURVE",
"42 254 CURVE SMOOTH",
"42 155 OFFCURVE",
"45 90 OFFCURVE",
"77 49 CURVE SMOOTH",
"109 8 OFFCURVE",
"170 -8 OFFCURVE",
"286 -8 CURVE SMOOTH"
);
}
);
width = 572;
}
);
leftKerningGroup = d;
note = o;
rightKerningGroup = b;
unicode = 006F;
},
{
glyphname = oogonek;
layers = (
{
color = -1;
layerId = "CCCBC4F5-0E52-43D6-BD5E-05F7881D6474";
paths = (
{
closed = 1;
nodes = (
"286 -8 LINE SMOOTH",
"402 -8 OFFCURVE",
"463 8 OFFCURVE",
"495 49 CURVE SMOOTH",
"527 90 OFFCURVE",
"530 155 OFFCURVE",
"530 254 CURVE SMOOTH",
"530 343 OFFCURVE",
"528 407 OFFCURVE",
"503 449 CURVE SMOOTH",
"479 491 OFFCURVE",
"431 511 OFFCURVE",
"342 516 CURVE",
"342 254 LINE SMOOTH",
"342 225 OFFCURVE",
"342 203 OFFCURVE",
"341 187 CURVE SMOOTH",
"340 155 OFFCURVE",
"334 140 OFFCURVE",
"318 136 CURVE SMOOTH",
"311 134 OFFCURVE",
"300 133 OFFCURVE",
"286 133 CURVE SMOOTH",
"272 133 LINE",
"272 -8 LINE"
);
},
{
closed = 1;
nodes = (
"379 -196 OFFCURVE",
"396 -195 OFFCURVE",
"411 -194 CURVE",
"419 -193 OFFCURVE",
"427 -193 OFFCURVE",
"435 -192 CURVE",
"435 -103 LINE",
"433 -104 OFFCURVE",
"431 -104 OFFCURVE",
"429 -104 CURVE SMOOTH",
"418 -104 LINE SMOOTH",
"379 -104 OFFCURVE",
"371 -89 OFFCURVE",
"371 -70 CURVE SMOOTH",
"371 -37 OFFCURVE",
"398 -10 OFFCURVE",
"452 16 CURVE",
"295 17 LINE",
"259 -16 OFFCURVE",
"227 -69 OFFCURVE",
"227 -108 CURVE SMOOTH",
"227 -132 OFFCURVE",
"235 -154 OFFCURVE",
"255 -170 CURVE SMOOTH",
"275 -186 OFFCURVE",
"308 -196 OFFCURVE",
"360 -196 CURVE SMOOTH"
);
},
{
closed = 1;
nodes = (
"230 254 LINE SMOOTH",
"230 283 OFFCURVE",
"230 305 OFFCURVE",
"231 322 CURVE SMOOTH",
"232 354 OFFCURVE",
"238 370 OFFCURVE",
"253 374 CURVE SMOOTH",
"261 376 OFFCURVE",
"272 377 OFFCURVE",
"286 377 CURVE SMOOTH",
"300 377 LINE",
"300 518 LINE",
"286 518 LINE SMOOTH",
"170 518 OFFCURVE",
"109 501 OFFCURVE",
"77 460 CURVE SMOOTH",
"45 419 OFFCURVE",
"42 353 OFFCURVE",
"42 254 CURVE SMOOTH",
"42 163 OFFCURVE",
"44 101 OFFCURVE",
"68 60 CURVE SMOOTH",
"93 19 OFFCURVE",
"141 -1 OFFCURVE",
"230 -6 CURVE"
);
}
);
width = 572;
}
);
unicode = 01EB;
},
{
glyphname = oe;
layers = (
{
color = -1;
layerId = "CCCBC4F5-0E52-43D6-BD5E-05F7881D6474";
paths = (
{
closed = 1;
nodes = (
"636 -8 OFFCURVE",
"663 -7 OFFCURVE",
"686 -5 CURVE SMOOTH",
"733 -2 OFFCURVE",
"768 3 OFFCURVE",
"796 11 CURVE",
"796 140 LINE",
"779 139 OFFCURVE",
"762 137 OFFCURVE",
"745 136 CURVE",
"716 133 OFFCURVE",
"680 133 OFFCURVE",
"652 133 CURVE SMOOTH",
"623 133 OFFCURVE",
"600 134 OFFCURVE",
"584 135 CURVE SMOOTH",
"567 136 OFFCURVE",
"555 139 OFFCURVE",
"547 144 CURVE SMOOTH",
"531 154 OFFCURVE",
"530 174 OFFCURVE",
"530 214 CURVE SMOOTH",
"530 514 LINE",
"493 509 OFFCURVE",
"465 500 OFFCURVE",
"441 488 CURVE",
"406 508 OFFCURVE",
"357 518 OFFCURVE",
"286 518 CURVE SMOOTH",
"272 518 LINE",
"272 377 LINE",
"286 377 LINE SMOOTH",
"300 377 OFFCURVE",
"311 376 OFFCURVE",
"319 374 CURVE SMOOTH",
"334 370 OFFCURVE",
"340 354 OFFCURVE",
"341 322 CURVE SMOOTH",
"342 305 OFFCURVE",
"342 283 OFFCURVE",
"342 254 CURVE SMOOTH",
"342 -5 LINE",
"383 -1 OFFCURVE",
"418 8 OFFCURVE",
"445 23 CURVE",
"482 4 OFFCURVE",
"534 -8 OFFCURVE",
"606 -8 CURVE SMOOTH"
);
},
{
closed = 1;
nodes = (
"300 -8 LINE",
"300 133 LINE",
"286 133 LINE SMOOTH",
"272 133 OFFCURVE",
"261 134 OFFCURVE",
"254 136 CURVE SMOOTH",
"238 140 OFFCURVE",
"232 155 OFFCURVE",
"231 187 CURVE SMOOTH",
"230 203 OFFCURVE",
"230 225 OFFCURVE",
"230 254 CURVE SMOOTH",
"230 516 LINE",
"141 511 OFFCURVE",
"93 491 OFFCURVE",
"69 449 CURVE SMOOTH",
"44 407 OFFCURVE",
"42 343 OFFCURVE",
"42 254 CURVE SMOOTH",
"42 155 OFFCURVE",
"45 90 OFFCURVE",
"77 49 CURVE SMOOTH",
"109 8 OFFCURVE",
"170 -8 OFFCURVE",
"286 -8 CURVE SMOOTH"
);
},
{
closed = 1;
nodes = (
"816 214 LINE",
"816 254 LINE SMOOTH",
"816 349 OFFCURVE",
"816 416 OFFCURVE",
"787 458 CURVE SMOOTH",
"758 500 OFFCURVE",
"701 518 OFFCURVE",
"586 518 CURVE SMOOTH",
"572 518 LINE",
"572 391 LINE",
"586 391 LINE SMOOTH",
"610 391 OFFCURVE",
"623 389 OFFCURVE",
"631 377 CURVE SMOOTH",
"639 365 OFFCURVE",
"642 344 OFFCURVE",
"642 305 CURVE",
"572 305 LINE",
"572 214 LINE"
);
}
);
width = 861;
}
);
leftKerningGroup = d;
note = oe;
rightKerningGroup = b;
unicode = 0153;
},
{
glyphname = p;
layers = (
{
color = -1;
layerId = "CCCBC4F5-0E52-43D6-BD5E-05F7881D6474";
paths = (
{
closed = 1;
nodes = (
"438 -7 OFFCURVE",
"476 10 OFFCURVE",
"501 51 CURVE SMOOTH",
"525 92 OFFCURVE",
"536 158 OFFCURVE",
"536 257 CURVE SMOOTH",
"536 357 OFFCURVE",
"525 422 OFFCURVE",
"501 462 CURVE SMOOTH",
"476 502 OFFCURVE",
"438 517 OFFCURVE",
"386 517 CURVE SMOOTH",
"345 517 OFFCURVE",
"312 511 OFFCURVE",
"284 490 CURVE",
"284 363 LINE",
"295 363 LINE SMOOTH",
"308 363 OFFCURVE",
"319 362 OFFCURVE",
"326 361 CURVE",
"340 358 OFFCURVE",
"346 346 OFFCURVE",
"347 317 CURVE SMOOTH",
"348 302 OFFCURVE",
"348 282 OFFCURVE",
"348 255 CURVE SMOOTH",
"348 228 OFFCURVE",
"348 208 OFFCURVE",
"347 193 CURVE SMOOTH",
"346 178 OFFCURVE",
"344 168 OFFCURVE",
"341 161 CURVE",
"334 148 OFFCURVE",
"322 147 OFFCURVE",
"295 147 CURVE SMOOTH",
"284 147 LINE",
"284 20 LINE",
"312 -3 OFFCURVE",
"343 -7 OFFCURVE",
"386 -7 CURVE SMOOTH"
);
},
{
closed = 1;
nodes = (
"242 -199 LINE",
"242 510 LINE",
"57 510 LINE",
"57 -199 LINE"
);
}
);
width = 578;
}
);
leftKerningGroup = p;
note = p;
rightKerningGroup = b;
unicode = 0070;
},
{
glyphname = thorn;
layers = (
{
color = -1;
layerId = "CCCBC4F5-0E52-43D6-BD5E-05F7881D6474";
paths = (
{
closed = 1;
nodes = (
"242 -189 LINE",
"242 743 LINE",
"57 743 LINE",
"57 -189 LINE"
);
},
{
closed = 1;
nodes = (
"438 -7 OFFCURVE",
"476 10 OFFCURVE",
"501 51 CURVE SMOOTH",
"525 92 OFFCURVE",
"536 158 OFFCURVE",
"536 257 CURVE SMOOTH",
"536 357 OFFCURVE",
"525 422 OFFCURVE",
"501 462 CURVE SMOOTH",
"476 502 OFFCURVE",
"438 517 OFFCURVE",
"386 517 CURVE SMOOTH",
"343 517 OFFCURVE",
"311 511 OFFCURVE",
"284 487 CURVE",
"284 363 LINE",
"295 363 LINE SMOOTH",
"308 363 OFFCURVE",
"319 362 OFFCURVE",
"326 361 CURVE",
"340 358 OFFCURVE",
"346 346 OFFCURVE",
"347 317 CURVE SMOOTH",
"348 302 OFFCURVE",
"348 282 OFFCURVE",
"348 255 CURVE SMOOTH",
"348 228 OFFCURVE",
"348 208 OFFCURVE",
"347 193 CURVE SMOOTH",
"346 178 OFFCURVE",
"344 168 OFFCURVE",
"341 161 CURVE",
"334 148 OFFCURVE",
"322 147 OFFCURVE",
"295 147 CURVE SMOOTH",
"284 147 LINE",
"284 20 LINE",
"312 -3 OFFCURVE",
"343 -7 OFFCURVE",
"386 -7 CURVE SMOOTH"
);
}
);
width = 578;
}
);
note = thorn;
unicode = 00FE;
},
{
glyphname = q;
layers = (
{
color = -1;
layerId = "CCCBC4F5-0E52-43D6-BD5E-05F7881D6474";
paths = (
{
closed = 1;
nodes = (
"235 -7 OFFCURVE",
"266 -3 OFFCURVE",
"294 20 CURVE",
"294 147 LINE",
"283 147 LINE SMOOTH",
"270 147 OFFCURVE",
"260 148 OFFCURVE",
"253 149 CURVE",
"239 152 OFFCURVE",
"232 164 OFFCURVE",
"231 193 CURVE SMOOTH",
"230 208 OFFCURVE",
"230 228 OFFCURVE",
"230 255 CURVE SMOOTH",
"230 282 OFFCURVE",
"230 302 OFFCURVE",
"231 317 CURVE SMOOTH",
"232 332 OFFCURVE",
"234 342 OFFCURVE",
"237 349 CURVE",
"244 362 OFFCURVE",
"256 363 OFFCURVE",
"283 363 CURVE SMOOTH",
"294 363 LINE",
"294 490 LINE",
"266 511 OFFCURVE",
"233 517 OFFCURVE",
"192 517 CURVE SMOOTH",
"140 517 OFFCURVE",
"102 502 OFFCURVE",
"78 462 CURVE SMOOTH",
"53 422 OFFCURVE",
"42 357 OFFCURVE",
"42 257 CURVE SMOOTH",
"42 158 OFFCURVE",
"53 92 OFFCURVE",
"78 51 CURVE SMOOTH",
"102 10 OFFCURVE",
"140 -7 OFFCURVE",
"192 -7 CURVE SMOOTH"
);
},
{
closed = 1;
nodes = (
"521 -199 LINE",
"521 510 LINE",
"336 510 LINE",
"336 -199 LINE"
);
}
);
width = 578;
}
);
leftKerningGroup = d;
note = q;
unicode = 0071;
},
{
glyphname = r;
layers = (
{
anchors = (
{
name = bottom;
position = "{146, 0}";
},
{
name = top;
position = "{216, 510}";
}
);
color = -1;
layerId = "CCCBC4F5-0E52-43D6-BD5E-05F7881D6474";
paths = (
{
closed = 1;
nodes = (
"242 0 LINE",
"242 510 LINE",
"57 510 LINE",
"57 0 LINE"
);
},
{
closed = 1;
nodes = (
"309 345 OFFCURVE",
"348 351 OFFCURVE",
"404 351 CURVE",
"404 518 LINE",
"349 518 OFFCURVE",
"312 508 OFFCURVE",
"284 481 CURVE",
"284 324 LINE"
);
}
);
width = 425;
}
);
leftKerningGroup = p;
note = r;
unicode = 0072;
},
{
glyphname = s;
layers = (
{
anchors = (
{
name = bottom;
position = "{242, 0}";
},
{
name = top;
position = "{245, 510}";
}
);
color = -1;
layerId = "CCCBC4F5-0E52-43D6-BD5E-05F7881D6474";
paths = (
{
closed = 1;
nodes = (
"339 -6 OFFCURVE",
"382 3 OFFCURVE",
"414 27 CURVE SMOOTH",
"445 51 OFFCURVE",
"463 93 OFFCURVE",
"463 161 CURVE SMOOTH",
"463 225 OFFCURVE",
"453 263 OFFCURVE",
"434 284 CURVE SMOOTH",
"415 305 OFFCURVE",
"389 313 OFFCURVE",
"357 317 CURVE SMOOTH",
"237 333 LINE SMOOTH",
"208 337 OFFCURVE",
"208 341 OFFCURVE",
"208 360 CURVE SMOOTH",
"208 517 LINE",
"157 514 OFFCURVE",
"115 505 OFFCURVE",
"84 482 CURVE SMOOTH",
"53 458 OFFCURVE",
"35 421 OFFCURVE",
"35 362 CURVE SMOOTH",
"35 315 OFFCURVE",
"38 277 OFFCURVE",
"55 249 CURVE SMOOTH",
"71 221 OFFCURVE",
"101 203 OFFCURVE",
"156 195 CURVE SMOOTH",
"264 180 LINE SMOOTH",
"284 177 OFFCURVE",
"290 176 OFFCURVE",
"290 155 CURVE SMOOTH",
"290 -7 LINE"
);
},
{
closed = 1;
nodes = (
"248 129 LINE",
"213 129 LINE SMOOTH",
"196 129 OFFCURVE",
"178 130 OFFCURVE",
"159 131 CURVE SMOOTH",
"121 133 OFFCURVE",
"87 135 OFFCURVE",
"51 139 CURVE",
"51 11 LINE",
"68 8 OFFCURVE",
"87 5 OFFCURVE",
"108 2 CURVE SMOOTH",
"143 -3 OFFCURVE",
"192 -7 OFFCURVE",
"248 -8 CURVE"
);
},
{
closed = 1;
nodes = (
"435 499 LINE",
"420 502 OFFCURVE",
"404 505 OFFCURVE",
"385 508 CURVE SMOOTH",
"353 513 OFFCURVE",
"306 518 OFFCURVE",
"250 518 CURVE",
"250 382 LINE",
"283 382 LINE SMOOTH",
"315 382 OFFCURVE",
"352 379 OFFCURVE",
"383 376 CURVE SMOOTH",
"400 374 OFFCURVE",
"418 372 OFFCURVE",
"435 371 CURVE"
);
}
);
width = 498;
}
);
leftKerningGroup = s;
note = s;
unicode = 0073;
},
{
glyphname = germandbls;
layers = (
{
color = -1;
layerId = "CCCBC4F5-0E52-43D6-BD5E-05F7881D6474";
paths = (
{
closed = 1;
nodes = (
"318 0 LINE SMOOTH",
"418 0 OFFCURVE",
"478 17 OFFCURVE",
"511 53 CURVE SMOOTH",
"544 89 OFFCURVE",
"553 145 OFFCURVE",
"553 225 CURVE SMOOTH",
"553 286 OFFCURVE",
"542 328 OFFCURVE",
"521 356 CURVE SMOOTH",
"500 384 OFFCURVE",
"469 399 OFFCURVE",
"428 406 CURVE",
"428 410 LINE",
"508 425 OFFCURVE",
"544 469 OFFCURVE",
"544 558 CURVE SMOOTH",
"544 617 OFFCURVE",
"532 665 OFFCURVE",
"496 698 CURVE SMOOTH",
"459 731 OFFCURVE",
"398 750 OFFCURVE",
"301 750 CURVE SMOOTH",
"285 750 LINE",
"285 609 LINE",
"288 610 OFFCURVE",
"294 610 OFFCURVE",
"301 610 CURVE SMOOTH",
"322 610 OFFCURVE",
"336 608 OFFCURVE",
"344 599 CURVE SMOOTH",
"352 590 OFFCURVE",
"355 573 OFFCURVE",
"355 542 CURVE SMOOTH",
"355 511 OFFCURVE",
"355 496 OFFCURVE",
"348 486 CURVE",
"340 476 OFFCURVE",
"325 474 OFFCURVE",
"296 474 CURVE SMOOTH",
"286 474 LINE",
"286 333 LINE",
"296 333 LINE SMOOTH",
"310 333 OFFCURVE",
"322 333 OFFCURVE",
"331 332 CURVE SMOOTH",
"349 330 OFFCURVE",
"358 319 OFFCURVE",
"362 293 CURVE SMOOTH",
"364 280 OFFCURVE",
"365 261 OFFCURVE",
"365 237 CURVE SMOOTH",
"365 213 OFFCURVE",
"364 195 OFFCURVE",
"363 182 CURVE",
"361 169 OFFCURVE",
"358 159 OFFCURVE",
"353 153 CURVE",
"344 141 OFFCURVE",
"326 141 OFFCURVE",
"298 141 CURVE SMOOTH",
"286 141 LINE",
"286 0 LINE"
);
},
{
closed = 1;
nodes = (
"243 0 LINE",
"243 747 LINE",
"172 740 OFFCURVE",
"126 722 OFFCURVE",
"97 690 CURVE SMOOTH",
"68 657 OFFCURVE",
"57 611 OFFCURVE",
"57 551 CURVE SMOOTH",
"57 0 LINE"
);
}
);
width = 595;
}
);
note = germandbls;
unicode = 00DF;
},
{
glyphname = longs;
layers = (
{
color = -1;
layerId = "CCCBC4F5-0E52-43D6-BD5E-05F7881D6474";
paths = (
{
closed = 1;
nodes = (
"297 369 LINE",
"297 555 LINE SMOOTH",
"297 570 OFFCURVE",
"298 581 OFFCURVE",
"300 589 CURVE",
"303 605 OFFCURVE",
"318 613 OFFCURVE",
"351 614 CURVE SMOOTH",
"367 615 OFFCURVE",
"390 615 OFFCURVE",
"419 615 CURVE",
"419 743 LINE",
"288 743 OFFCURVE",
"212 742 OFFCURVE",
"168 714 CURVE SMOOTH",
"124 686 OFFCURVE",
"112 630 OFFCURVE",
"112 521 CURVE SMOOTH",
"112 510 LINE",
"18 510 LINE",
"18 369 LINE"
);
},
{
closed = 1;
nodes = (
"297 0 LINE",
"297 329 LINE",
"112 329 LINE",
"112 0 LINE"
);
}
);
width = 437;
}
);
unicode = 017F;
},
{
glyphname = t;
layers = (
{
anchors = (
{
name = bottom;
position = "{206, 0}";
},
{
name = center;
position = "{212, 190}";
},
{
name = topright;
position = "{102, 510}";
}
);
color = -1;
layerId = "CCCBC4F5-0E52-43D6-BD5E-05F7881D6474";
paths = (
{
closed = 1;
nodes = (
"409 369 LINE",
"409 510 LINE",
"297 510 LINE",
"297 658 LINE",
"112 658 LINE",
"112 510 LINE",
"18 510 LINE",
"18 369 LINE"
);
},
{
closed = 1;
nodes = (
"297 0 LINE",
"297 329 LINE",
"112 329 LINE",
"112 0 LINE"
);
}
);
width = 427;
}
);
note = t;
unicode = 0074;
},
{
glyphname = u;
layers = (
{
anchors = (
{
name = bottom;
position = "{297, 0}";
},
{
name = ogonek;
position = "{441, -4}";
},
{
name = top;
position = "{294, 510}";
},
{
name = topright;
position = "{422, 510}";
}
);
color = -1;
layerId = "CCCBC4F5-0E52-43D6-BD5E-05F7881D6474";
paths = (
{
closed = 1;
nodes = (
"235 -7 OFFCURVE",
"271 -1 OFFCURVE",
"302 22 CURVE",
"302 147 LINE",
"292 147 LINE SMOOTH",
"265 147 OFFCURVE",
"253 147 OFFCURVE",
"247 163 CURVE",
"244 170 OFFCURVE",
"242 182 OFFCURVE",
"241 199 CURVE SMOOTH",
"240 216 OFFCURVE",
"240 239 OFFCURVE",
"240 269 CURVE SMOOTH",
"240 510 LINE",
"55 510 LINE",
"55 191 LINE SMOOTH",
"55 132 OFFCURVE",
"59 83 OFFCURVE",
"79 48 CURVE SMOOTH",
"99 13 OFFCURVE",
"136 -7 OFFCURVE",
"200 -7 CURVE SMOOTH"
);
},
{
closed = 1;
nodes = (
"529 0 LINE",
"529 510 LINE",
"344 510 LINE",
"344 0 LINE"
);
}
);
width = 586;
}
);
leftKerningGroup = u;
note = u;
unicode = 0075;
},
{
glyphname = v;
layers = (
{
color = -1;
layerId = "CCCBC4F5-0E52-43D6-BD5E-05F7881D6474";
paths = (
{
closed = 1;
nodes = (
"336 0 LINE",
"199 510 LINE",
"10 510 LINE",
"159 0 LINE"
);
},
{
closed = 1;
nodes = (
"392 0 LINE",
"541 510 LINE",
"359 510 LINE",
"307 270 LINE",
"380 0 LINE"
);
}
);
width = 551;
}
);
leftKerningGroup = v;
note = v;
rightKerningGroup = v;
unicode = 0076;
},
{
glyphname = w;
layers = (
{
anchors = (
{
name = top;
position = "{421, 510}";
}
);
color = -1;
layerId = "CCCBC4F5-0E52-43D6-BD5E-05F7881D6474";
paths = (
{
closed = 1;
nodes = (
"370 0 LINE",
"418 227 LINE",
"428 227 LINE",
"487 0 LINE",
"650 0 LINE",
"502 510 LINE",
"353 510 LINE",
"291 285 LINE",
"359 0 LINE"
);
},
{
closed = 1;
nodes = (
"316 0 LINE",
"195 510 LINE",
"14 510 LINE",
"151 0 LINE"
);
},
{
closed = 1;
nodes = (
"705 0 LINE",
"832 510 LINE",
"653 510 LINE",
"612 283 LINE",
"694 0 LINE"
);
}
);
width = 846;
}
);
leftKerningGroup = v;
note = w;
rightKerningGroup = v;
unicode = 0077;
},
{
glyphname = x;
layers = (
{
color = -1;
layerId = "CCCBC4F5-0E52-43D6-BD5E-05F7881D6474";
paths = (
{
closed = 1;
nodes = (
"559 0 LINE",
"215 510 LINE",
"13 510 LINE",
"357 0 LINE"
);
},
{
closed = 1;
nodes = (
"197 0 LINE",
"245 90 LINE",
"150 231 LINE",
"7 0 LINE"
);
},
{
closed = 1;
nodes = (
"552 510 LINE",
"362 510 LINE",
"320 430 LINE",
"415 289 LINE"
);
}
);
width = 566;
}
);
note = x;
rightKerningGroup = x;
unicode = 0078;
},
{
glyphname = y;
layers = (
{
anchors = (
{
name = bottom;
position = "{306, -156}";
},
{
name = top;
position = "{300, 510}";
}
);
color = -1;
layerId = "CCCBC4F5-0E52-43D6-BD5E-05F7881D6474";
paths = (
{
closed = 1;
nodes = (
"395 -206 OFFCURVE",
"461 -185 OFFCURVE",
"495 -141 CURVE SMOOTH",
"529 -98 OFFCURVE",
"531 -33 OFFCURVE",
"531 56 CURVE SMOOTH",
"531 510 LINE",
"346 510 LINE",
"346 23 LINE SMOOTH",
"346 1 OFFCURVE",
"345 -16 OFFCURVE",
"344 -28 CURVE",
"341 -52 OFFCURVE",
"327 -61 OFFCURVE",
"295 -63 CURVE SMOOTH",
"278 -64 OFFCURVE",
"255 -65 OFFCURVE",
"225 -65 CURVE SMOOTH",
"91 -65 LINE",
"91 -194 LINE",
"149 -200 LINE SMOOTH",
"184 -203 OFFCURVE",
"228 -206 OFFCURVE",
"271 -206 CURVE SMOOTH"
);
},
{
closed = 1;
nodes = (
"237 3 OFFCURVE",
"273 10 OFFCURVE",
"304 33 CURVE",
"304 157 LINE",
"294 157 LINE SMOOTH",
"267 157 OFFCURVE",
"255 157 OFFCURVE",
"249 173 CURVE",
"246 180 OFFCURVE",
"244 192 OFFCURVE",
"243 209 CURVE SMOOTH",
"242 226 OFFCURVE",
"242 249 OFFCURVE",
"242 279 CURVE SMOOTH",
"242 510 LINE",
"57 510 LINE",
"57 201 LINE SMOOTH",
"57 142 OFFCURVE",
"61 93 OFFCURVE",
"81 58 CURVE SMOOTH",
"101 23 OFFCURVE",
"138 3 OFFCURVE",
"202 3 CURVE SMOOTH"
);
}
);
width = 588;
}
);
leftKerningGroup = u;
note = y;
unicode = 0079;
},
{
glyphname = z;
layers = (
{
anchors = (
{
name = top;
position = "{265, 510}";
}
);
color = -1;
layerId = "CCCBC4F5-0E52-43D6-BD5E-05F7881D6474";
paths = (
{
closed = 1;
nodes = (
"149 0 LINE",
"487 377 LINE",
"487 510 LINE",
"57 510 LINE",
"57 369 LINE",
"257 369 LINE",
"45 133 LINE",
"45 0 LINE"
);
},
{
closed = 1;
nodes = (
"489 0 LINE",
"489 141 LINE",
"331 141 LINE",
"205 0 LINE"
);
}
);
width = 534;
}
);
note = z;
unicode = 007A;
},
{
glyphname = fi;
layers = (
{
color = -1;
layerId = "CCCBC4F5-0E52-43D6-BD5E-05F7881D6474";
paths = (
{
closed = 1;
nodes = (
"419 369 LINE",
"419 510 LINE",
"297 510 LINE",
"297 555 LINE SMOOTH",
"297 570 OFFCURVE",
"298 581 OFFCURVE",
"300 589 CURVE",
"303 605 OFFCURVE",
"318 613 OFFCURVE",
"351 614 CURVE SMOOTH",
"367 615 OFFCURVE",
"390 615 OFFCURVE",
"419 615 CURVE",
"419 743 LINE",
"288 743 OFFCURVE",
"212 742 OFFCURVE",
"168 714 CURVE SMOOTH",
"124 686 OFFCURVE",
"112 630 OFFCURVE",
"112 521 CURVE SMOOTH",
"112 510 LINE",
"18 510 LINE",
"18 369 LINE"
);
},
{
closed = 1;
nodes = (
"297 0 LINE",
"297 329 LINE",
"112 329 LINE",
"112 0 LINE"
);
},
{
closed = 1;
nodes = (
"679 0 LINE",
"679 510 LINE",
"494 510 LINE",
"494 0 LINE"
);
},
{
closed = 1;
nodes = (
"679 599 LINE",
"679 743 LINE",
"494 743 LINE",
"494 599 LINE"
);
}
);
width = 736;
}
);
note = fi;
unicode = FB01;
},
{
glyphname = fl;
layers = (
{
color = -1;
layerId = "CCCBC4F5-0E52-43D6-BD5E-05F7881D6474";
paths = (
{
closed = 1;
nodes = (
"419 369 LINE",
"419 510 LINE",
"297 510 LINE",
"297 555 LINE SMOOTH",
"297 570 OFFCURVE",
"298 581 OFFCURVE",
"300 589 CURVE",
"303 605 OFFCURVE",
"318 613 OFFCURVE",
"351 614 CURVE SMOOTH",
"367 615 OFFCURVE",
"390 615 OFFCURVE",
"419 615 CURVE",
"419 743 LINE",
"288 743 OFFCURVE",
"212 742 OFFCURVE",
"168 714 CURVE SMOOTH",
"124 686 OFFCURVE",
"112 630 OFFCURVE",
"112 521 CURVE SMOOTH",
"112 510 LINE",
"18 510 LINE",
"18 369 LINE"
);
},
{
closed = 1;
nodes = (
"297 0 LINE",
"297 329 LINE",
"112 329 LINE",
"112 0 LINE"
);
},
{
closed = 1;
nodes = (
"679 0 LINE",
"679 743 LINE",
"494 743 LINE",
"494 0 LINE"
);
}
);
width = 736;
}
);
note = fl;
unicode = FB02;
},
{
glyphname = ordfeminine;
layers = (
{
color = -1;
layerId = "CCCBC4F5-0E52-43D6-BD5E-05F7881D6474";
paths = (
{
closed = 1;
nodes = (
"377 317 LINE",
"377 539 LINE SMOOTH",
"377 592 OFFCURVE",
"375 633 OFFCURVE",
"352 658 CURVE SMOOTH",
"328 683 OFFCURVE",
"285 696 OFFCURVE",
"204 696 CURVE SMOOTH",
"141 696 OFFCURVE",
"90 690 OFFCURVE",
"55 683 CURVE",
"55 588 LINE",
"68 589 OFFCURVE",
"81 589 OFFCURVE",
"94 590 CURVE SMOOTH",
"117 591 OFFCURVE",
"142 593 OFFCURVE",
"159 593 CURVE SMOOTH",
"180 593 OFFCURVE",
"196 593 OFFCURVE",
"207 592 CURVE SMOOTH",
"218 591 OFFCURVE",
"227 590 OFFCURVE",
"232 587 CURVE SMOOTH",
"242 581 OFFCURVE",
"242 569 OFFCURVE",
"242 548 CURVE SMOOTH",
"242 317 LINE"
);
},
{
closed = 1;
nodes = (
"161 312 OFFCURVE",
"182 314 OFFCURVE",
"205 329 CURVE",
"205 407 LINE",
"166 407 OFFCURVE",
"166 414 OFFCURVE",
"166 441 CURVE SMOOTH",
"166 449 OFFCURVE",
"166 455 OFFCURVE",
"167 460 CURVE",
"167 468 OFFCURVE",
"173 472 OFFCURVE",
"183 473 CURVE",
"188 474 OFFCURVE",
"195 474 OFFCURVE",
"205 474 CURVE",
"205 538 LINE",
"186 539 OFFCURVE",
"166 540 OFFCURVE",
"150 540 CURVE SMOOTH",
"103 540 OFFCURVE",
"74 534 OFFCURVE",
"58 518 CURVE SMOOTH",
"41 501 OFFCURVE",
"35 472 OFFCURVE",
"35 425 CURVE SMOOTH",
"35 348 OFFCURVE",
"66 312 OFFCURVE",
"134 312 CURVE SMOOTH"
);
}
);
width = 422;
}
);
note = ordfeminine;
unicode = 00AA;
},
{
glyphname = ordmasculine;
layers = (
{
color = -1;
layerId = "CCCBC4F5-0E52-43D6-BD5E-05F7881D6474";
paths = (
{
closed = 1;
nodes = (
"326 318 OFFCURVE",
"361 333 OFFCURVE",
"379 363 CURVE SMOOTH",
"397 393 OFFCURVE",
"398 439 OFFCURVE",
"398 504 CURVE SMOOTH",
"398 576 OFFCURVE",
"396 623 OFFCURVE",
"373 654 CURVE SMOOTH",
"349 685 OFFCURVE",
"305 697 OFFCURVE",
"220 697 CURVE SMOOTH",
"216 697 LINE",
"216 594 LINE",
"220 594 LINE SMOOTH",
"230 594 OFFCURVE",
"238 593 OFFCURVE",
"244 592 CURVE",
"255 588 OFFCURVE",
"260 577 OFFCURVE",
"261 553 CURVE",
"261 504 LINE",
"261 314 LINE"
);
},
{
closed = 1;
nodes = (
"224 313 LINE",
"224 416 LINE",
"220 416 LINE SMOOTH",
"210 416 OFFCURVE",
"202 417 OFFCURVE",
"197 418 CURVE",
"185 421 OFFCURVE",
"180 432 OFFCURVE",
"180 456 CURVE",
"179 467 OFFCURVE",
"179 483 OFFCURVE",
"179 504 CURVE SMOOTH",
"179 695 LINE",
"114 691 OFFCURVE",
"80 676 OFFCURVE",
"62 645 CURVE SMOOTH",
"44 614 OFFCURVE",
"42 569 OFFCURVE",
"42 504 CURVE SMOOTH",
"42 432 OFFCURVE",
"44 385 OFFCURVE",
"68 355 CURVE SMOOTH",
"91 325 OFFCURVE",
"135 313 OFFCURVE",
"220 313 CURVE SMOOTH"
);
}
);
width = 440;
}
);
note = ordmasculine;
unicode = 00BA;
},
{
glyphname = nmod;
layers = (
{
color = -1;
layerId = "CCCBC4F5-0E52-43D6-BD5E-05F7881D6474";
paths = (
{
closed = 1;
nodes = (
"441 264 LINE",
"441 509 LINE SMOOTH",
"441 554 OFFCURVE",
"439 592 OFFCURVE",
"423 619 CURVE SMOOTH",
"407 646 OFFCURVE",
"379 661 OFFCURVE",
"330 661 CURVE SMOOTH",
"303 661 OFFCURVE",
"260 654 OFFCURVE",
"236 639 CURVE",
"236 533 LINE",
"244 533 LINE SMOOTH",
"263 533 OFFCURVE",
"273 532 OFFCURVE",
"279 521 CURVE SMOOTH",
"282 515 OFFCURVE",
"282 506 OFFCURVE",
"283 493 CURVE SMOOTH",
"284 480 OFFCURVE",
"284 462 OFFCURVE",
"284 439 CURVE SMOOTH",
"284 264 LINE"
);
},
{
closed = 1;
nodes = (
"207 264 LINE",
"207 656 LINE",
"50 656 LINE",
"50 264 LINE"
);
}
);
width = 481;
}
);
unicode = 207F;
},
{
glyphname = Delta;
layers = (
{
color = -1;
layerId = "CCCBC4F5-0E52-43D6-BD5E-05F7881D6474";
paths = (
{
closed = 1;
nodes = (
"685 0 LINE",
"466 688 LINE",
"283 688 LINE",
"436 154 LINE",
"287 154 LINE",
"245 0 LINE"
);
},
{
closed = 1;
nodes = (
"202 0 LINE",
"317 414 LINE",
"238 688 LINE",
"221 688 LINE",
"2 0 LINE"
);
}
);
width = 687;
}
);
note = uni2206;
unicode = 0394;
},
{
glyphname = Omega;
layers = (
{
color = -1;
layerId = "CCCBC4F5-0E52-43D6-BD5E-05F7881D6474";
paths = (
{
closed = 1;
nodes = (
"651 0 LINE",
"651 154 LINE",
"635 154 LINE",
"514 117 LINE",
"514 124 LINE",
"595 161 OFFCURVE",
"651 244 OFFCURVE",
"651 384 CURVE SMOOTH",
"651 493 OFFCURVE",
"645 571 OFFCURVE",
"604 622 CURVE SMOOTH",
"563 673 OFFCURVE",
"488 696 OFFCURVE",
"349 696 CURVE SMOOTH",
"329 696 OFFCURVE",
"310 695 OFFCURVE",
"293 694 CURVE",
"293 537 LINE",
"306 542 OFFCURVE",
"325 543 OFFCURVE",
"349 543 CURVE SMOOTH",
"398 543 OFFCURVE",
"423 537 OFFCURVE",
"435 513 CURVE SMOOTH",
"447 488 OFFCURVE",
"447 443 OFFCURVE",
"447 364 CURVE SMOOTH",
"447 273 OFFCURVE",
"443 223 OFFCURVE",
"435 193 CURVE SMOOTH",
"427 163 OFFCURVE",
"413 153 OFFCURVE",
"393 148 CURVE",
"393 0 LINE"
);
},
{
closed = 1;
nodes = (
"305 0 LINE",
"305 148 LINE",
"285 153 OFFCURVE",
"271 163 OFFCURVE",
"263 193 CURVE SMOOTH",
"255 223 OFFCURVE",
"251 273 OFFCURVE",
"251 364 CURVE SMOOTH",
"251 691 LINE",
"159 680 OFFCURVE",
"108 651 OFFCURVE",
"80 601 CURVE SMOOTH",
"52 551 OFFCURVE",
"47 479 OFFCURVE",
"47 384 CURVE SMOOTH",
"47 244 OFFCURVE",
"101 161 OFFCURVE",
"184 124 CURVE",
"184 117 LINE",
"63 154 LINE",
"47 154 LINE",
"47 0 LINE"
);
}
);
width = 698;
}
);
note = uni2126;
unicode = 03A9;
},
{
glyphname = mu;
layers = (
{
color = -1;
layerId = "CCCBC4F5-0E52-43D6-BD5E-05F7881D6474";
paths = (
{
closed = 1;
nodes = (
"240 -189 LINE",
"240 -3 LINE",
"263 0 OFFCURVE",
"283 6 OFFCURVE",
"302 21 CURVE",
"302 147 LINE",
"292 147 LINE SMOOTH",
"265 147 OFFCURVE",
"253 147 OFFCURVE",
"247 163 CURVE",
"244 170 OFFCURVE",
"242 182 OFFCURVE",
"241 199 CURVE SMOOTH",
"240 216 OFFCURVE",
"240 239 OFFCURVE",
"240 269 CURVE SMOOTH",
"240 510 LINE",
"55 510 LINE",
"55 -189 LINE"
);
},
{
closed = 1;
nodes = (
"529 0 LINE",
"529 510 LINE",
"344 510 LINE",
"344 0 LINE"
);
}
);
width = 586;
}
);
note = uni00B5;
unicode = 03BC;
},
{
glyphname = pi;
layers = (
{
color = -1;
layerId = "CCCBC4F5-0E52-43D6-BD5E-05F7881D6474";
paths = (
{
closed = 1;
nodes = (
"533 369 LINE",
"533 510 LINE",
"57 510 LINE",
"57 369 LINE"
);
},
{
closed = 1;
nodes = (
"242 0 LINE",
"242 329 LINE",
"57 329 LINE",
"57 0 LINE"
);
},
{
closed = 1;
nodes = (
"533 0 LINE",
"533 329 LINE",
"348 329 LINE",
"348 0 LINE"
);
}
);
width = 590;
}
);
note = pi;
unicode = 03C0;
},
{
glyphname = zero;
layers = (
{
color = -1;
layerId = "CCCBC4F5-0E52-43D6-BD5E-05F7881D6474";
paths = (
{
closed = 1;
nodes = (
"509 3 OFFCURVE",
"560 31 OFFCURVE",
"586 86 CURVE SMOOTH",
"612 141 OFFCURVE",
"613 224 OFFCURVE",
"613 344 CURVE SMOOTH",
"613 477 OFFCURVE",
"612 567 OFFCURVE",
"576 621 CURVE SMOOTH",
"540 675 OFFCURVE",
"469 696 OFFCURVE",
"330 696 CURVE SMOOTH",
"311 696 LINE SMOOTH",
"305 696 OFFCURVE",
"299 696 OFFCURVE",
"293 695 CURVE",
"293 541 LINE",
"304 542 OFFCURVE",
"315 543 OFFCURVE",
"330 543 CURVE SMOOTH",
"370 543 OFFCURVE",
"390 542 OFFCURVE",
"400 517 CURVE SMOOTH",
"405 504 OFFCURVE",
"407 485 OFFCURVE",
"408 458 CURVE SMOOTH",
"409 431 OFFCURVE",
"409 393 OFFCURVE",
"409 344 CURVE SMOOTH",
"409 -5 LINE"
);
},
{
closed = 1;
nodes = (
"349 -8 LINE SMOOTH",
"355 -8 OFFCURVE",
"361 -8 OFFCURVE",
"367 -7 CURVE",
"367 147 LINE",
"362 146 OFFCURVE",
"356 145 OFFCURVE",
"350 145 CURVE SMOOTH",
"330 145 LINE SMOOTH",
"290 145 OFFCURVE",
"271 146 OFFCURVE",
"261 171 CURVE SMOOTH",
"256 184 OFFCURVE",
"253 204 OFFCURVE",
"252 231 CURVE SMOOTH",
"251 258 OFFCURVE",
"251 295 OFFCURVE",
"251 344 CURVE SMOOTH",
"251 693 LINE",
"151 685 OFFCURVE",
"100 657 OFFCURVE",
"74 602 CURVE SMOOTH",
"48 547 OFFCURVE",
"47 464 OFFCURVE",
"47 344 CURVE SMOOTH",
"47 209 OFFCURVE",
"48 122 OFFCURVE",
"84 68 CURVE SMOOTH",
"120 14 OFFCURVE",
"191 -8 OFFCURVE",
"330 -8 CURVE SMOOTH"
);
}
);
width = 660;
}
);
note = zero;
unicode = 0030;
},
{
glyphname = one;
layers = (
{
color = -1;
layerId = "CCCBC4F5-0E52-43D6-BD5E-05F7881D6474";
paths = (
{
closed = 1;
nodes = (
"337 0 LINE",
"337 688 LINE",
"204 688 LINE",
"10 595 LINE",
"10 439 LINE",
"137 487 LINE",
"137 0 LINE"
);
}
);
width = 402;
}
);
note = one;
unicode = 0031;
},
{
glyphname = two;
layers = (
{
color = -1;
layerId = "CCCBC4F5-0E52-43D6-BD5E-05F7881D6474";
paths = (
{
closed = 1;
nodes = (
"240 0 LINE",
"240 158 LINE SMOOTH",
"240 183 OFFCURVE",
"240 198 OFFCURVE",
"247 207 CURVE SMOOTH",
"254 216 OFFCURVE",
"266 221 OFFCURVE",
"293 232 CURVE SMOOTH",
"435 287 LINE SMOOTH",
"478 303 OFFCURVE",
"511 324 OFFCURVE",
"533 357 CURVE SMOOTH",
"555 389 OFFCURVE",
"565 435 OFFCURVE",
"565 500 CURVE SMOOTH",
"565 580 OFFCURVE",
"543 628 OFFCURVE",
"507 656 CURVE SMOOTH",
"471 684 OFFCURVE",
"421 692 OFFCURVE",
"365 695 CURVE",
"365 491 LINE SMOOTH",
"365 468 OFFCURVE",
"363 457 OFFCURVE",
"354 447 CURVE SMOOTH",
"345 437 OFFCURVE",
"326 429 OFFCURVE",
"294 416 CURVE SMOOTH",
"177 369 LINE SMOOTH",
"117 345 OFFCURVE",
"86 316 OFFCURVE",
"68 275 CURVE SMOOTH",
"50 234 OFFCURVE",
"47 178 OFFCURVE",
"47 101 CURVE SMOOTH",
"47 0 LINE"
);
},
{
closed = 1;
nodes = (
"565 0 LINE",
"565 156 LINE",
"282 156 LINE",
"282 0 LINE"
);
},
{
closed = 1;
nodes = (
"81 530 OFFCURVE",
"102 532 OFFCURVE",
"123 535 CURVE SMOOTH",
"159 539 OFFCURVE",
"205 543 OFFCURVE",
"244 543 CURVE SMOOTH",
"279 543 OFFCURVE",
"304 543 OFFCURVE",
"323 540 CURVE",
"323 696 LINE",
"226 698 OFFCURVE",
"139 688 OFFCURVE",
"61 671 CURVE",
"61 527 LINE"
);
}
);
width = 614;
}
);
note = two;
unicode = 0032;
},
{
glyphname = three;
layers = (
{
color = -1;
layerId = "CCCBC4F5-0E52-43D6-BD5E-05F7881D6474";
paths = (
{
closed = 1;
nodes = (
"440 4 OFFCURVE",
"493 25 OFFCURVE",
"523 57 CURVE SMOOTH",
"553 89 OFFCURVE",
"563 132 OFFCURVE",
"563 184 CURVE SMOOTH",
"563 240 OFFCURVE",
"552 277 OFFCURVE",
"531 302 CURVE SMOOTH",
"510 326 OFFCURVE",
"478 340 OFFCURVE",
"438 349 CURVE",
"438 353 LINE",
"518 372 OFFCURVE",
"557 415 OFFCURVE",
"557 515 CURVE SMOOTH",
"557 618 OFFCURVE",
"501 677 OFFCURVE",
"353 692 CURVE",
"353 483 LINE SMOOTH",
"353 456 OFFCURVE",
"351 442 OFFCURVE",
"340 434 CURVE SMOOTH",
"329 426 OFFCURVE",
"309 424 OFFCURVE",
"276 424 CURVE SMOOTH",
"166 424 LINE",
"166 271 LINE",
"276 271 LINE SMOOTH",
"309 271 OFFCURVE",
"331 269 OFFCURVE",
"343 261 CURVE",
"355 252 OFFCURVE",
"359 236 OFFCURVE",
"359 207 CURVE SMOOTH",
"359 -4 LINE"
);
},
{
closed = 1;
nodes = (
"295 -8 OFFCURVE",
"307 -8 OFFCURVE",
"317 -7 CURVE",
"317 147 LINE",
"301 146 OFFCURVE",
"282 145 OFFCURVE",
"263 145 CURVE SMOOTH",
"189 145 OFFCURVE",
"99 153 OFFCURVE",
"47 159 CURVE",
"47 16 LINE",
"98 4 OFFCURVE",
"207 -8 OFFCURVE",
"283 -8 CURVE SMOOTH"
);
},
{
closed = 1;
nodes = (
"88 533 OFFCURVE",
"129 537 OFFCURVE",
"175 541 CURVE",
"198 542 OFFCURVE",
"221 543 OFFCURVE",
"246 543 CURVE SMOOTH",
"273 543 OFFCURVE",
"295 542 OFFCURVE",
"311 540 CURVE",
"311 695 LINE",
"300 696 OFFCURVE",
"289 696 OFFCURVE",
"277 696 CURVE SMOOTH",
"197 696 OFFCURVE",
"110 684 OFFCURVE",
"51 672 CURVE",
"51 529 LINE"
);
}
);
width = 610;
}
);
note = three;
unicode = 0033;
},
{
glyphname = four;
layers = (
{
color = -1;
layerId = "CCCBC4F5-0E52-43D6-BD5E-05F7881D6474";
paths = (
{
closed = 1;
nodes = (
"161 133 LINE",
"472 688 LINE",
"254 688 LINE",
"30 269 LINE",
"30 133 LINE"
);
},
{
closed = 1;
nodes = (
"545 0 LINE",
"545 133 LINE",
"629 133 LINE",
"629 286 LINE",
"545 286 LINE",
"545 423 LINE",
"425 423 LINE",
"350 286 LINE",
"295 286 LINE",
"209 133 LINE",
"349 133 LINE",
"349 0 LINE"
);
}
);
width = 654;
}
);
note = four;
unicode = 0034;
},
{
glyphname = five;
layers = (
{
color = -1;
layerId = "CCCBC4F5-0E52-43D6-BD5E-05F7881D6474";
paths = (
{
closed = 1;
nodes = (
"458 4 OFFCURVE",
"511 25 OFFCURVE",
"541 63 CURVE SMOOTH",
"571 101 OFFCURVE",
"581 155 OFFCURVE",
"581 230 CURVE SMOOTH",
"581 294 OFFCURVE",
"572 347 OFFCURVE",
"541 383 CURVE SMOOTH",
"510 419 OFFCURVE",
"458 440 OFFCURVE",
"373 440 CURVE SMOOTH",
"330 440 OFFCURVE",
"298 438 OFFCURVE",
"275 437 CURVE",
"242 434 LINE",
"242 688 LINE",
"73 688 LINE",
"73 276 LINE",
"92 277 OFFCURVE",
"112 279 OFFCURVE",
"134 281 CURVE SMOOTH",
"171 284 OFFCURVE",
"221 287 OFFCURVE",
"274 287 CURVE SMOOTH",
"318 287 OFFCURVE",
"344 285 OFFCURVE",
"359 275 CURVE SMOOTH",
"374 265 OFFCURVE",
"377 247 OFFCURVE",
"377 215 CURVE SMOOTH",
"377 -4 LINE"
);
},
{
closed = 1;
nodes = (
"303 -8 OFFCURVE",
"319 -8 OFFCURVE",
"335 -7 CURVE",
"335 148 LINE",
"312 146 OFFCURVE",
"288 146 OFFCURVE",
"265 146 CURVE SMOOTH",
"195 146 OFFCURVE",
"127 152 OFFCURVE",
"65 159 CURVE",
"65 16 LINE",
"115 4 OFFCURVE",
"200 -8 OFFCURVE",
"287 -8 CURVE SMOOTH"
);
},
{
closed = 1;
nodes = (
"530 533 LINE",
"530 688 LINE",
"284 688 LINE",
"284 533 LINE"
);
}
);
width = 628;
}
);
note = five;
unicode = 0035;
},
{
glyphname = six;
layers = (
{
color = -1;
layerId = "CCCBC4F5-0E52-43D6-BD5E-05F7881D6474";
paths = (
{
closed = 1;
nodes = (
"361 -8 LINE SMOOTH",
"367 -8 OFFCURVE",
"373 -8 OFFCURVE",
"379 -7 CURVE",
"379 147 LINE",
"373 146 OFFCURVE",
"366 145 OFFCURVE",
"359 145 CURVE SMOOTH",
"334 145 LINE SMOOTH",
"303 145 OFFCURVE",
"283 145 OFFCURVE",
"270 155 CURVE SMOOTH",
"257 165 OFFCURVE",
"251 183 OFFCURVE",
"251 222 CURVE SMOOTH",
"251 691 LINE",
"168 682 OFFCURVE",
"117 658 OFFCURVE",
"87 604 CURVE SMOOTH",
"57 550 OFFCURVE",
"47 468 OFFCURVE",
"47 344 CURVE SMOOTH",
"47 236 OFFCURVE",
"54 161 OFFCURVE",
"71 109 CURVE SMOOTH",
"87 57 OFFCURVE",
"116 27 OFFCURVE",
"160 11 CURVE SMOOTH",
"203 -5 OFFCURVE",
"262 -8 OFFCURVE",
"342 -8 CURVE SMOOTH"
);
},
{
closed = 1;
nodes = (
"498 2 OFFCURVE",
"548 22 OFFCURVE",
"577 60 CURVE SMOOTH",
"605 98 OFFCURVE",
"615 154 OFFCURVE",
"615 234 CURVE SMOOTH",
"615 326 OFFCURVE",
"595 378 OFFCURVE",
"559 407 CURVE SMOOTH",
"522 435 OFFCURVE",
"468 440 OFFCURVE",
"399 440 CURVE SMOOTH",
"348 440 OFFCURVE",
"316 430 OFFCURVE",
"293 419 CURVE",
"293 284 LINE",
"304 286 OFFCURVE",
"317 287 OFFCURVE",
"334 287 CURVE SMOOTH",
"370 287 OFFCURVE",
"391 286 OFFCURVE",
"404 276 CURVE SMOOTH",
"417 266 OFFCURVE",
"421 247 OFFCURVE",
"421 215 CURVE SMOOTH",
"421 -5 LINE"
);
},
{
closed = 1;
nodes = (
"577 672 LINE",
"517 685 OFFCURVE",
"424 696 OFFCURVE",
"339 696 CURVE SMOOTH",
"323 696 OFFCURVE",
"308 696 OFFCURVE",
"293 695 CURVE",
"293 530 LINE",
"313 541 OFFCURVE",
"343 543 OFFCURVE",
"387 543 CURVE SMOOTH",
"436 543 OFFCURVE",
"533 532 OFFCURVE",
"577 529 CURVE"
);
}
);
width = 662;
}
);
note = six;
unicode = 0036;
},
{
glyphname = seven;
layers = (
{
color = -1;
layerId = "CCCBC4F5-0E52-43D6-BD5E-05F7881D6474";
paths = (
{
closed = 1;
nodes = (
"308 0 LINE",
"522 493 LINE",
"314 493 LINE",
"89 0 LINE"
);
},
{
closed = 1;
nodes = (
"540 533 LINE",
"546 547 LINE",
"546 688 LINE",
"31 688 LINE",
"31 533 LINE"
);
}
);
width = 576;
}
);
note = seven;
unicode = 0037;
},
{
glyphname = eight;
layers = (
{
color = -1;
layerId = "CCCBC4F5-0E52-43D6-BD5E-05F7881D6474";
paths = (
{
closed = 1;
nodes = (
"361 -8 LINE SMOOTH",
"368 -8 OFFCURVE",
"376 -8 OFFCURVE",
"383 -7 CURVE",
"383 139 LINE",
"377 138 OFFCURVE",
"370 137 OFFCURVE",
"363 137 CURVE SMOOTH",
"338 137 LINE SMOOTH",
"302 137 OFFCURVE",
"281 139 OFFCURVE",
"268 149 CURVE SMOOTH",
"255 159 OFFCURVE",
"251 175 OFFCURVE",
"251 207 CURVE SMOOTH",
"251 239 OFFCURVE",
"255 258 OFFCURVE",
"268 268 CURVE SMOOTH",
"281 278 OFFCURVE",
"302 279 OFFCURVE",
"338 279 CURVE SMOOTH",
"374 279 OFFCURVE",
"395 278 OFFCURVE",
"408 268 CURVE SMOOTH",
"421 258 OFFCURVE",
"425 239 OFFCURVE",
"425 207 CURVE SMOOTH",
"425 -4 LINE",
"506 4 OFFCURVE",
"557 25 OFFCURVE",
"588 57 CURVE SMOOTH",
"619 89 OFFCURVE",
"629 132 OFFCURVE",
"629 184 CURVE SMOOTH",
"629 240 OFFCURVE",
"618 277 OFFCURVE",
"597 302 CURVE SMOOTH",
"576 326 OFFCURVE",
"544 340 OFFCURVE",
"504 349 CURVE",
"504 353 LINE",
"584 372 OFFCURVE",
"623 415 OFFCURVE",
"623 515 CURVE SMOOTH",
"623 575 OFFCURVE",
"607 619 OFFCURVE",
"563 650 CURVE SMOOTH",
"519 681 OFFCURVE",
"447 696 OFFCURVE",
"338 696 CURVE SMOOTH",
"318 696 LINE SMOOTH",
"311 696 OFFCURVE",
"305 696 OFFCURVE",
"299 695 CURVE",
"299 549 LINE",
"304 550 OFFCURVE",
"310 551 OFFCURVE",
"317 551 CURVE SMOOTH",
"338 551 LINE SMOOTH",
"374 551 OFFCURVE",
"394 550 OFFCURVE",
"406 540 CURVE",
"417 530 OFFCURVE",
"419 512 OFFCURVE",
"419 483 CURVE SMOOTH",
"419 452 OFFCURVE",
"417 436 OFFCURVE",
"406 427 CURVE",
"394 418 OFFCURVE",
"374 416 OFFCURVE",
"338 416 CURVE SMOOTH",
"302 416 OFFCURVE",
"282 418 OFFCURVE",
"271 427 CURVE",
"259 436 OFFCURVE",
"257 452 OFFCURVE",
"257 483 CURVE SMOOTH",
"257 692 LINE",
"180 685 OFFCURVE",
"129 666 OFFCURVE",
"97 637 CURVE SMOOTH",
"65 608 OFFCURVE",
"53 567 OFFCURVE",
"53 515 CURVE SMOOTH",
"53 415 OFFCURVE",
"92 372 OFFCURVE",
"172 353 CURVE",
"172 349 LINE",
"132 340 OFFCURVE",
"100 326 OFFCURVE",
"79 302 CURVE SMOOTH",
"58 277 OFFCURVE",
"47 240 OFFCURVE",
"47 184 CURVE SMOOTH",
"47 124 OFFCURVE",
"60 76 OFFCURVE",
"104 43 CURVE SMOOTH",
"147 10 OFFCURVE",
"219 -8 OFFCURVE",
"338 -8 CURVE SMOOTH"
);
}
);
width = 676;
}
);
note = eight;
unicode = 0038;
},
{
glyphname = nine;
layers = (
{
color = -1;
layerId = "CCCBC4F5-0E52-43D6-BD5E-05F7881D6474";
paths = (
{
closed = 1;
nodes = (
"494 6 OFFCURVE",
"546 31 OFFCURVE",
"576 85 CURVE SMOOTH",
"606 139 OFFCURVE",
"615 220 OFFCURVE",
"615 344 CURVE SMOOTH",
"615 505 OFFCURVE",
"601 594 OFFCURVE",
"557 642 CURVE SMOOTH",
"513 689 OFFCURVE",
"440 696 OFFCURVE",
"320 696 CURVE SMOOTH",
"301 696 LINE SMOOTH",
"295 696 OFFCURVE",
"289 696 OFFCURVE",
"283 695 CURVE",
"283 541 LINE",
"289 542 OFFCURVE",
"296 543 OFFCURVE",
"303 543 CURVE SMOOTH",
"328 543 LINE SMOOTH",
"357 543 OFFCURVE",
"379 544 OFFCURVE",
"392 534 CURVE SMOOTH",
"405 524 OFFCURVE",
"411 505 OFFCURVE",
"411 466 CURVE SMOOTH",
"411 -3 LINE"
);
},
{
closed = 1;
nodes = (
"369 158 LINE",
"349 147 OFFCURVE",
"319 145 OFFCURVE",
"275 145 CURVE SMOOTH",
"236 145 OFFCURVE",
"141 153 OFFCURVE",
"85 159 CURVE",
"85 16 LINE",
"156 2 OFFCURVE",
"264 -9 OFFCURVE",
"369 -7 CURVE"
);
},
{
closed = 1;
nodes = (
"314 248 OFFCURVE",
"346 258 OFFCURVE",
"369 269 CURVE",
"369 404 LINE",
"358 402 OFFCURVE",
"344 401 OFFCURVE",
"328 401 CURVE SMOOTH",
"292 401 OFFCURVE",
"271 403 OFFCURVE",
"258 413 CURVE SMOOTH",
"245 423 OFFCURVE",
"241 441 OFFCURVE",
"241 473 CURVE SMOOTH",
"241 693 LINE",
"162 686 OFFCURVE",
"114 667 OFFCURVE",
"86 629 CURVE SMOOTH",
"57 591 OFFCURVE",
"47 534 OFFCURVE",
"47 454 CURVE SMOOTH",
"47 362 OFFCURVE",
"67 310 OFFCURVE",
"104 282 CURVE SMOOTH",
"140 253 OFFCURVE",
"194 248 OFFCURVE",
"263 248 CURVE SMOOTH"
);
}
);
width = 662;
}
);
note = nine;
unicode = 0039;
},
{
glyphname = zero.osf;
layers = (
{
color = -1;
layerId = "CCCBC4F5-0E52-43D6-BD5E-05F7881D6474";
paths = (
{
closed = 1;
nodes = (
"509 3 OFFCURVE",
"560 31 OFFCURVE",
"586 86 CURVE SMOOTH",
"612 141 OFFCURVE",
"613 224 OFFCURVE",
"613 258 CURVE SMOOTH",
"613 305 OFFCURVE",
"612 395 OFFCURVE",
"576 449 CURVE SMOOTH",
"540 503 OFFCURVE",
"469 524 OFFCURVE",
"330 524 CURVE SMOOTH",
"311 524 LINE SMOOTH",
"305 524 OFFCURVE",
"299 524 OFFCURVE",
"293 523 CURVE",
"293 369 LINE",
"304 370 OFFCURVE",
"315 371 OFFCURVE",
"330 371 CURVE SMOOTH",
"370 371 OFFCURVE",
"390 370 OFFCURVE",
"400 345 CURVE SMOOTH",
"405 332 OFFCURVE",
"407 313 OFFCURVE",
"408 286 CURVE SMOOTH",
"409 259 OFFCURVE",
"409 281 OFFCURVE",
"409 233 CURVE SMOOTH",
"409 -5 LINE"
);
},
{
closed = 1;
nodes = (
"349 -8 LINE SMOOTH",
"355 -8 OFFCURVE",
"361 -8 OFFCURVE",
"367 -7 CURVE",
"367 147 LINE",
"362 146 OFFCURVE",
"356 145 OFFCURVE",
"350 145 CURVE SMOOTH",
"330 145 LINE SMOOTH",
"290 145 OFFCURVE",
"271 146 OFFCURVE",
"261 171 CURVE SMOOTH",
"256 184 OFFCURVE",
"253 204 OFFCURVE",
"252 231 CURVE SMOOTH",
"251 258 OFFCURVE",
"251 233 OFFCURVE",
"251 282 CURVE SMOOTH",
"251 521 LINE",
"151 513 OFFCURVE",
"100 485 OFFCURVE",
"74 430 CURVE SMOOTH",
"48 375 OFFCURVE",
"47 293 OFFCURVE",
"47 258 CURVE SMOOTH",
"47 209 OFFCURVE",
"48 122 OFFCURVE",
"84 68 CURVE SMOOTH",
"120 14 OFFCURVE",
"191 -8 OFFCURVE",
"330 -8 CURVE SMOOTH"
);
}
);
width = 660;
}
);
},
{
glyphname = one.osf;
layers = (
{
color = -1;
layerId = "CCCBC4F5-0E52-43D6-BD5E-05F7881D6474";
paths = (
{
closed = 1;
nodes = (
"337 0 LINE",
"337 516 LINE",
"204 516 LINE",
"184 508 OFFCURVE",
"44 440 OFFCURVE",
"10 423 CURVE",
"10 267 LINE",
"137 315 LINE",
"137 0 LINE"
);
}
);
width = 402;
}
);
},
{
glyphname = two.osf;
layers = (
{
color = -1;
layerId = "CCCBC4F5-0E52-43D6-BD5E-05F7881D6474";
paths = (
{
closed = 1;
nodes = (
"240 0 LINE",
"240 68 LINE SMOOTH",
"240 134 OFFCURVE",
"241 146 OFFCURVE",
"273 158 CURVE SMOOTH",
"405 207 LINE SMOOTH",
"505 244 OFFCURVE",
"535 289 OFFCURVE",
"535 392 CURVE SMOOTH",
"535 476 OFFCURVE",
"468 523 OFFCURVE",
"335 523 CURVE",
"335 403 LINE SMOOTH",
"335 380 OFFCURVE",
"333 369 OFFCURVE",
"324 359 CURVE SMOOTH",
"315 349 OFFCURVE",
"296 342 OFFCURVE",
"264 328 CURVE SMOOTH",
"177 291 LINE SMOOTH",
"77 248 OFFCURVE",
"47 191 OFFCURVE",
"47 85 CURVE SMOOTH",
"47 0 LINE"
);
},
{
closed = 1;
nodes = (
"525 0 LINE",
"525 125 LINE",
"282 125 LINE",
"282 0 LINE"
);
},
{
closed = 1;
nodes = (
"81 358 OFFCURVE",
"102 361 OFFCURVE",
"123 363 CURVE SMOOTH",
"159 366 OFFCURVE",
"195 371 OFFCURVE",
"234 371 CURVE SMOOTH",
"269 371 OFFCURVE",
"274 371 OFFCURVE",
"293 368 CURVE",
"293 524 LINE",
"207 524 OFFCURVE",
"136 514 OFFCURVE",
"61 499 CURVE",
"61 355 LINE"
);
}
);
width = 584;
}
);
leftMetricsKey = two;
rightMetricsKey = two;
},
{
glyphname = three.osf;
layers = (
{
color = -1;
layerId = "CCCBC4F5-0E52-43D6-BD5E-05F7881D6474";
paths = (
{
closed = 1;
nodes = (
"400 -128 OFFCURVE",
"453 -107 OFFCURVE",
"483 -75 CURVE SMOOTH",
"513 -43 OFFCURVE",
"523 0 OFFCURVE",
"523 52 CURVE SMOOTH",
"523 108 OFFCURVE",
"512 125 OFFCURVE",
"491 150 CURVE SMOOTH",
"470 174 OFFCURVE",
"438 188 OFFCURVE",
"398 197 CURVE",
"398 201 LINE",
"478 220 OFFCURVE",
"517 253 OFFCURVE",
"517 343 CURVE SMOOTH",
"517 446 OFFCURVE",
"461 505 OFFCURVE",
"313 520 CURVE",
"313 331 LINE SMOOTH",
"313 304 OFFCURVE",
"311 290 OFFCURVE",
"300 282 CURVE SMOOTH",
"289 274 OFFCURVE",
"269 272 OFFCURVE",
"236 272 CURVE SMOOTH",
"146 272 LINE",
"146 119 LINE",
"236 119 LINE SMOOTH",
"269 119 OFFCURVE",
"291 117 OFFCURVE",
"303 109 CURVE",
"315 100 OFFCURVE",
"319 84 OFFCURVE",
"319 55 CURVE SMOOTH",
"319 -136 LINE"
);
},
{
closed = 1;
nodes = (
"257 -140 LINE SMOOTH",
"264 -140 OFFCURVE",
"270 -140 OFFCURVE",
"277 -139 CURVE",
"277 15 LINE",
"258 14 OFFCURVE",
"238 13 OFFCURVE",
"217 13 CURVE SMOOTH",
"162 13 OFFCURVE",
"103 18 OFFCURVE",
"47 27 CURVE",
"47 -116 LINE",
"112 -134 OFFCURVE",
"160 -140 OFFCURVE",
"236 -140 CURVE SMOOTH"
);
},
{
closed = 1;
nodes = (
"88 361 OFFCURVE",
"109 365 OFFCURVE",
"155 369 CURVE",
"178 370 OFFCURVE",
"201 371 OFFCURVE",
"226 371 CURVE SMOOTH",
"233 371 OFFCURVE",
"255 370 OFFCURVE",
"271 368 CURVE",
"271 523 LINE",
"200 524 OFFCURVE",
"114 513 OFFCURVE",
"51 500 CURVE",
"51 357 LINE"
);
}
);
width = 570;
}
);
leftMetricsKey = three;
rightMetricsKey = three;
},
{
glyphname = four.osf;
layers = (
{
color = -1;
layerId = "CCCBC4F5-0E52-43D6-BD5E-05F7881D6474";
paths = (
{
closed = 1;
nodes = (
"161 0 LINE",
"452 555 LINE",
"234 555 LINE",
"30 136 LINE",
"30 0 LINE"
);
},
{
closed = 1;
nodes = (
"505 -133 LINE",
"505 0 LINE",
"589 0 LINE",
"589 153 LINE",
"505 153 LINE",
"505 290 LINE",
"385 290 LINE",
"315 153 LINE",
"290 153 LINE",
"209 0 LINE",
"309 0 LINE",
"309 -133 LINE"
);
}
);
width = 614;
}
);
leftMetricsKey = four;
rightMetricsKey = four;
},
{
glyphname = five.osf;
layers = (
{
color = -1;
layerId = "CCCBC4F5-0E52-43D6-BD5E-05F7881D6474";
paths = (
{
closed = 1;
nodes = (
"418 -128 OFFCURVE",
"471 -107 OFFCURVE",
"501 -69 CURVE SMOOTH",
"531 -31 OFFCURVE",
"541 23 OFFCURVE",
"541 98 CURVE SMOOTH",
"541 162 OFFCURVE",
"532 195 OFFCURVE",
"501 231 CURVE SMOOTH",
"470 267 OFFCURVE",
"418 288 OFFCURVE",
"333 288 CURVE SMOOTH",
"290 288 OFFCURVE",
"278 286 OFFCURVE",
"255 285 CURVE",
"222 282 LINE",
"222 516 LINE",
"73 516 LINE",
"73 124 LINE",
"92 125 OFFCURVE",
"112 127 OFFCURVE",
"134 129 CURVE SMOOTH",
"171 132 OFFCURVE",
"201 135 OFFCURVE",
"254 135 CURVE SMOOTH",
"278 135 OFFCURVE",
"304 133 OFFCURVE",
"319 123 CURVE SMOOTH",
"334 113 OFFCURVE",
"337 95 OFFCURVE",
"337 63 CURVE SMOOTH",
"337 -136 LINE"
);
},
{
closed = 1;
nodes = (
"275 -140 LINE SMOOTH",
"282 -140 OFFCURVE",
"288 -140 OFFCURVE",
"295 -139 CURVE",
"295 16 LINE",
"283 14 OFFCURVE",
"266 13 OFFCURVE",
"246 13 CURVE SMOOTH",
"194 13 OFFCURVE",
"122 19 OFFCURVE",
"65 27 CURVE",
"65 -116 LINE",
"118 -129 OFFCURVE",
"203 -140 OFFCURVE",
"274 -140 CURVE SMOOTH"
);
},
{
closed = 1;
nodes = (
"499 361 LINE",
"499 516 LINE",
"264 516 LINE",
"264 361 LINE"
);
}
);
width = 588;
}
);
leftMetricsKey = five;
rightMetricsKey = five;
},
{
glyphname = six.osf;
layers = (
{
color = -1;
layerId = "CCCBC4F5-0E52-43D6-BD5E-05F7881D6474";
paths = (
{
closed = 1;
nodes = (
"339 147 LINE",
"333 146 OFFCURVE",
"326 145 OFFCURVE",
"319 145 CURVE SMOOTH",
"314 145 LINE SMOOTH",
"303 145 OFFCURVE",
"283 145 OFFCURVE",
"270 155 CURVE SMOOTH",
"257 165 OFFCURVE",
"251 183 OFFCURVE",
"251 222 CURVE SMOOTH",
"251 654 LINE",
"168 645 OFFCURVE",
"117 621 OFFCURVE",
"87 567 CURVE SMOOTH",
"57 513 OFFCURVE",
"47 431 OFFCURVE",
"47 307 CURVE SMOOTH",
"47 219 OFFCURVE",
"55 161 OFFCURVE",
"71 109 CURVE SMOOTH",
"87 57 OFFCURVE",
"122 27 OFFCURVE",
"167 11 CURVE SMOOTH",
"226 -10 OFFCURVE",
"307 -12 OFFCURVE",
"339 -7 CURVE"
);
},
{
closed = 1;
nodes = (
"458 2 OFFCURVE",
"509 22 OFFCURVE",
"537 60 CURVE SMOOTH",
"565 98 OFFCURVE",
"575 137 OFFCURVE",
"575 217 CURVE SMOOTH",
"575 309 OFFCURVE",
"556 342 OFFCURVE",
"519 370 CURVE SMOOTH",
"482 398 OFFCURVE",
"428 403 OFFCURVE",
"379 403 CURVE SMOOTH",
"345 403 OFFCURVE",
"313 393 OFFCURVE",
"293 382 CURVE",
"293 247 LINE",
"304 249 OFFCURVE",
"317 250 OFFCURVE",
"314 250 CURVE SMOOTH",
"298 250 OFFCURVE",
"351 249 OFFCURVE",
"364 239 CURVE SMOOTH",
"377 229 OFFCURVE",
"381 210 OFFCURVE",
"381 178 CURVE SMOOTH",
"381 -5 LINE"
);
},
{
closed = 1;
nodes = (
"537 635 LINE",
"477 648 OFFCURVE",
"384 659 OFFCURVE",
"329 659 CURVE SMOOTH",
"313 659 OFFCURVE",
"308 659 OFFCURVE",
"293 658 CURVE",
"293 493 LINE",
"309 504 OFFCURVE",
"333 506 OFFCURVE",
"347 506 CURVE SMOOTH",
"396 506 OFFCURVE",
"493 499 OFFCURVE",
"537 492 CURVE"
);
}
);
width = 622;
}
);
leftMetricsKey = six;
rightMetricsKey = six;
},
{
glyphname = seven.osf;
layers = (
{
color = -1;
layerId = "CCCBC4F5-0E52-43D6-BD5E-05F7881D6474";
paths = (
{
closed = 1;
nodes = (
"324 -134 LINE",
"482 321 LINE",
"274 321 LINE",
"105 -134 LINE"
);
},
{
closed = 1;
nodes = (
"500 361 LINE",
"506 375 LINE",
"506 516 LINE",
"31 516 LINE",
"31 361 LINE"
);
}
);
width = 536;
}
);
leftMetricsKey = seven;
rightMetricsKey = seven;
},
{
glyphname = eight.osf;
layers = (
{
color = -1;
layerId = "CCCBC4F5-0E52-43D6-BD5E-05F7881D6474";
paths = (
{
closed = 1;
nodes = (
"328 -8 OFFCURVE",
"336 -8 OFFCURVE",
"343 -7 CURVE",
"343 139 LINE",
"332 137 OFFCURVE",
"317 137 OFFCURVE",
"295 137 CURVE SMOOTH",
"258 137 OFFCURVE",
"251 168 OFFCURVE",
"251 197 CURVE SMOOTH",
"251 249 OFFCURVE",
"266 259 OFFCURVE",
"318 259 CURVE SMOOTH",
"372 259 OFFCURVE",
"385 247 OFFCURVE",
"385 197 CURVE SMOOTH",
"385 -4 LINE",
"513 9 OFFCURVE",
"589 55 OFFCURVE",
"589 174 CURVE SMOOTH",
"589 255 OFFCURVE",
"554 309 OFFCURVE",
"464 329 CURVE",
"464 333 LINE",
"544 352 OFFCURVE",
"583 398 OFFCURVE",
"583 485 CURVE SMOOTH",
"583 611 OFFCURVE",
"478 656 OFFCURVE",
"338 656 CURVE SMOOTH",
"328 656 OFFCURVE",
"308 656 OFFCURVE",
"299 655 CURVE",
"299 509 LINE",
"310 511 OFFCURVE",
"319 511 OFFCURVE",
"328 511 CURVE SMOOTH",
"344 511 OFFCURVE",
"354 510 OFFCURVE",
"366 500 CURVE",
"377 490 OFFCURVE",
"379 482 OFFCURVE",
"379 453 CURVE SMOOTH",
"379 403 OFFCURVE",
"367 396 OFFCURVE",
"318 396 CURVE SMOOTH",
"268 396 OFFCURVE",
"257 406 OFFCURVE",
"257 453 CURVE SMOOTH",
"257 652 LINE",
"126 640 OFFCURVE",
"53 594 OFFCURVE",
"53 485 CURVE SMOOTH",
"53 398 OFFCURVE",
"92 352 OFFCURVE",
"172 333 CURVE",
"172 329 LINE",
"79 308 OFFCURVE",
"47 253 OFFCURVE",
"47 174 CURVE SMOOTH",
"47 28 OFFCURVE",
"163 -8 OFFCURVE",
"321 -8 CURVE SMOOTH"
);
}
);
width = 636;
}
);
leftMetricsKey = eight;
rightMetricsKey = eight;
},
{
glyphname = nine.osf;
layers = (
{
color = -1;
layerId = "CCCBC4F5-0E52-43D6-BD5E-05F7881D6474";
paths = (
{
closed = 1;
nodes = (
"454 -130 OFFCURVE",
"505 -106 OFFCURVE",
"535 -52 CURVE SMOOTH",
"565 2 OFFCURVE",
"575 84 OFFCURVE",
"575 208 CURVE SMOOTH",
"575 296 OFFCURVE",
"567 354 OFFCURVE",
"551 406 CURVE SMOOTH",
"535 458 OFFCURVE",
"500 488 OFFCURVE",
"455 504 CURVE SMOOTH",
"396 525 OFFCURVE",
"315 527 OFFCURVE",
"283 522 CURVE",
"283 368 LINE",
"289 369 OFFCURVE",
"296 370 OFFCURVE",
"303 370 CURVE SMOOTH",
"308 370 LINE SMOOTH",
"319 370 OFFCURVE",
"339 370 OFFCURVE",
"352 360 CURVE SMOOTH",
"365 350 OFFCURVE",
"371 332 OFFCURVE",
"371 293 CURVE SMOOTH",
"371 -139 LINE"
);
},
{
closed = 1;
nodes = (
"309 -144 OFFCURVE",
"314 -144 OFFCURVE",
"329 -143 CURVE",
"329 22 LINE",
"313 11 OFFCURVE",
"289 9 OFFCURVE",
"275 9 CURVE SMOOTH",
"226 9 OFFCURVE",
"129 16 OFFCURVE",
"85 23 CURVE",
"85 -120 LINE",
"145 -133 OFFCURVE",
"238 -144 OFFCURVE",
"293 -144 CURVE SMOOTH"
);
},
{
closed = 1;
nodes = (
"277 112 OFFCURVE",
"309 122 OFFCURVE",
"329 133 CURVE",
"329 268 LINE",
"318 266 OFFCURVE",
"305 265 OFFCURVE",
"308 265 CURVE SMOOTH",
"324 265 OFFCURVE",
"271 266 OFFCURVE",
"258 276 CURVE SMOOTH",
"245 286 OFFCURVE",
"241 305 OFFCURVE",
"241 337 CURVE SMOOTH",
"241 520 LINE",
"164 513 OFFCURVE",
"113 493 OFFCURVE",
"85 455 CURVE SMOOTH",
"57 417 OFFCURVE",
"47 378 OFFCURVE",
"47 298 CURVE SMOOTH",
"47 206 OFFCURVE",
"66 173 OFFCURVE",
"103 145 CURVE SMOOTH",
"140 117 OFFCURVE",
"194 112 OFFCURVE",
"243 112 CURVE SMOOTH"
);
}
);
width = 622;
}
);
},
{
glyphname = four.salt;
layers = (
{
color = -1;
layerId = "CCCBC4F5-0E52-43D6-BD5E-05F7881D6474";
paths = (
{
closed = 1;
nodes = (
"545 0 LINE",
"545 133 LINE",
"629 133 LINE",
"629 286 LINE",
"545 286 LINE",
"545 688 LINE",
"349 688 LINE",
"349 286 LINE",
"261 286 LINE",
"181 133 LINE",
"349 133 LINE",
"349 0 LINE"
);
},
{
closed = 1;
nodes = (
"134 133 LINE",
"307 462 LINE",
"307 688 LINE",
"254 688 LINE",
"30 269 LINE",
"30 133 LINE"
);
}
);
width = 654;
}
);
note = four.salt;
},
{
glyphname = six.salt;
layers = (
{
color = -1;
layerId = "CCCBC4F5-0E52-43D6-BD5E-05F7881D6474";
paths = (
{
closed = 1;
nodes = (
"341 -8 OFFCURVE",
"360 -7 OFFCURVE",
"377 -6 CURVE",
"377 147 LINE",
"370 146 OFFCURVE",
"362 145 OFFCURVE",
"354 145 CURVE SMOOTH",
"324 145 LINE SMOOTH",
"291 145 OFFCURVE",
"269 145 OFFCURVE",
"255 155 CURVE SMOOTH",
"241 165 OFFCURVE",
"235 183 OFFCURVE",
"235 222 CURVE",
"240 311 OFFCURVE",
"270 377 OFFCURVE",
"299 425 CURVE SMOOTH",
"338 489 OFFCURVE",
"390 547 OFFCURVE",
"436 592 CURVE SMOOTH",
"482 636 OFFCURVE",
"522 668 OFFCURVE",
"541 681 CURVE",
"541 688 LINE",
"302 688 LINE",
"251 647 OFFCURVE",
"206 602 OFFCURVE",
"167 554 CURVE SMOOTH",
"132 513 OFFCURVE",
"99 464 OFFCURVE",
"74 412 CURVE SMOOTH",
"49 359 OFFCURVE",
"32 302 OFFCURVE",
"32 243 CURVE SMOOTH",
"32 168 OFFCURVE",
"42 106 OFFCURVE",
"83 62 CURVE SMOOTH",
"124 18 OFFCURVE",
"197 -8 OFFCURVE",
"322 -8 CURVE SMOOTH"
);
},
{
closed = 1;
nodes = (
"500 9 OFFCURVE",
"549 35 OFFCURVE",
"577 73 CURVE SMOOTH",
"605 111 OFFCURVE",
"613 160 OFFCURVE",
"613 216 CURVE SMOOTH",
"613 273 OFFCURVE",
"606 330 OFFCURVE",
"578 371 CURVE SMOOTH",
"550 411 OFFCURVE",
"499 438 OFFCURVE",
"411 438 CURVE SMOOTH",
"394 438 OFFCURVE",
"375 437 OFFCURVE",
"354 434 CURVE",
"330 399 OFFCURVE",
"299 345 OFFCURVE",
"284 285 CURVE",
"295 286 OFFCURVE",
"308 287 OFFCURVE",
"324 287 CURVE SMOOTH",
"363 287 OFFCURVE",
"387 286 OFFCURVE",
"401 276 CURVE SMOOTH",
"415 266 OFFCURVE",
"419 247 OFFCURVE",
"419 215 CURVE SMOOTH",
"419 -2 LINE"
);
}
);
width = 645;
}
);
note = six.salt;
},
{
glyphname = nine.salt;
layers = (
{
color = -1;
layerId = "CCCBC4F5-0E52-43D6-BD5E-05F7881D6474";
paths = (
{
closed = 1;
nodes = (
"343 0 LINE",
"393 41 OFFCURVE",
"438 86 OFFCURVE",
"478 134 CURVE SMOOTH",
"511 175 OFFCURVE",
"546 223 OFFCURVE",
"571 276 CURVE SMOOTH",
"596 329 OFFCURVE",
"613 386 OFFCURVE",
"613 445 CURVE SMOOTH",
"613 518 OFFCURVE",
"603 582 OFFCURVE",
"562 626 CURVE SMOOTH",
"521 670 OFFCURVE",
"448 696 OFFCURVE",
"323 696 CURVE SMOOTH",
"304 696 OFFCURVE",
"285 695 OFFCURVE",
"268 694 CURVE",
"268 541 LINE",
"275 542 OFFCURVE",
"283 543 OFFCURVE",
"292 543 CURVE SMOOTH",
"321 543 LINE SMOOTH",
"354 543 OFFCURVE",
"377 544 OFFCURVE",
"391 534 CURVE SMOOTH",
"405 524 OFFCURVE",
"410 505 OFFCURVE",
"410 466 CURVE",
"405 377 OFFCURVE",
"375 311 OFFCURVE",
"346 263 CURVE SMOOTH",
"307 199 OFFCURVE",
"256 141 OFFCURVE",
"210 97 CURVE SMOOTH",
"164 52 OFFCURVE",
"123 20 OFFCURVE",
"104 7 CURVE",
"104 0 LINE"
);
},
{
closed = 1;
nodes = (
"251 250 OFFCURVE",
"270 251 OFFCURVE",
"291 254 CURVE",
"315 289 OFFCURVE",
"346 343 OFFCURVE",
"361 403 CURVE",
"350 402 OFFCURVE",
"337 401 OFFCURVE",
"321 401 CURVE SMOOTH",
"282 401 OFFCURVE",
"259 403 OFFCURVE",
"245 413 CURVE SMOOTH",
"231 423 OFFCURVE",
"226 441 OFFCURVE",
"226 473 CURVE SMOOTH",
"226 690 LINE",
"143 679 OFFCURVE",
"95 654 OFFCURVE",
"67 616 CURVE SMOOTH",
"39 578 OFFCURVE",
"32 528 OFFCURVE",
"32 472 CURVE SMOOTH",
"32 413 OFFCURVE",
"39 358 OFFCURVE",
"67 318 CURVE SMOOTH",
"95 277 OFFCURVE",
"146 250 OFFCURVE",
"234 250 CURVE SMOOTH"
);
}
);
width = 645;
}
);
note = nine.salt;
},
{
glyphname = one.tf;
layers = (
{
color = -1;
layerId = "CCCBC4F5-0E52-43D6-BD5E-05F7881D6474";
paths = (
{
closed = 1;
nodes = (
"457 193 LINE",
"457 688 LINE",
"324 688 LINE",
"288 673 LINE",
"99 592 LINE",
"99 439 LINE",
"257 487 LINE",
"257 193 LINE"
);
},
{
closed = 1;
nodes = (
"605 0 LINE",
"605 153 LINE",
"95 153 LINE",
"95 0 LINE"
);
}
);
width = 680;
}
);
},
{
glyphname = zero.tf.zero;
layers = (
{
color = -1;
layerId = "CCCBC4F5-0E52-43D6-BD5E-05F7881D6474";
paths = (
{
closed = 1;
nodes = (
"509 3 OFFCURVE",
"560 31 OFFCURVE",
"586 86 CURVE SMOOTH",
"612 141 OFFCURVE",
"613 224 OFFCURVE",
"613 258 CURVE SMOOTH",
"613 305 OFFCURVE",
"612 395 OFFCURVE",
"576 449 CURVE SMOOTH",
"540 503 OFFCURVE",
"469 524 OFFCURVE",
"330 524 CURVE SMOOTH",
"311 524 LINE SMOOTH",
"305 524 OFFCURVE",
"299 524 OFFCURVE",
"293 523 CURVE",
"293 369 LINE",
"304 370 OFFCURVE",
"315 371 OFFCURVE",
"330 371 CURVE SMOOTH",
"370 371 OFFCURVE",
"390 370 OFFCURVE",
"400 345 CURVE SMOOTH",
"405 332 OFFCURVE",
"407 313 OFFCURVE",
"408 286 CURVE SMOOTH",
"409 259 OFFCURVE",
"409 281 OFFCURVE",
"409 233 CURVE SMOOTH",
"409 -5 LINE"
);
},
{
closed = 1;
nodes = (
"349 -8 LINE SMOOTH",
"355 -8 OFFCURVE",
"361 -8 OFFCURVE",
"367 -7 CURVE",
"367 147 LINE",
"362 146 OFFCURVE",
"356 145 OFFCURVE",
"350 145 CURVE SMOOTH",
"330 145 LINE SMOOTH",
"290 145 OFFCURVE",
"271 146 OFFCURVE",
"261 171 CURVE SMOOTH",
"256 184 OFFCURVE",
"253 204 OFFCURVE",
"252 231 CURVE SMOOTH",
"251 258 OFFCURVE",
"251 233 OFFCURVE",
"251 282 CURVE SMOOTH",
"251 521 LINE",
"151 513 OFFCURVE",
"100 485 OFFCURVE",
"74 430 CURVE SMOOTH",
"48 375 OFFCURVE",
"47 293 OFFCURVE",
"47 258 CURVE SMOOTH",
"47 209 OFFCURVE",
"48 122 OFFCURVE",
"84 68 CURVE SMOOTH",
"120 14 OFFCURVE",
"191 -8 OFFCURVE",
"330 -8 CURVE SMOOTH"
);
},
{
closed = 1;
nodes = (
"423 198 LINE",
"423 323 LINE",
"239 323 LINE",
"239 198 LINE"
);
}
);
width = 660;
}
);
},
{
glyphname = one.tosf;
layers = (
{
color = -1;
layerId = "CCCBC4F5-0E52-43D6-BD5E-05F7881D6474";
paths = (
{
closed = 1;
nodes = (
"460 173 LINE",
"460 516 LINE",
"327 516 LINE",
"102 430 LINE",
"102 277 LINE",
"260 325 LINE",
"260 173 LINE"
);
},
{
closed = 1;
nodes = (
"601 0 LINE",
"601 133 LINE",
"102 133 LINE",
"102 0 LINE"
);
}
);
width = 680;
}
);
},
{
glyphname = zero.zero;
layers = (
{
color = -1;
layerId = "CCCBC4F5-0E52-43D6-BD5E-05F7881D6474";
paths = (
{
closed = 1;
nodes = (
"346 -8 LINE SMOOTH",
"351 -8 OFFCURVE",
"357 -8 OFFCURVE",
"362 -7 CURVE",
"362 146 LINE",
"357 145 OFFCURVE",
"352 145 OFFCURVE",
"347 145 CURVE SMOOTH",
"330 145 LINE SMOOTH",
"314 145 OFFCURVE",
"301 146 OFFCURVE",
"292 148 CURVE",
"273 151 OFFCURVE",
"263 166 OFFCURVE",
"259 200 CURVE SMOOTH",
"257 217 OFFCURVE",
"256 240 OFFCURVE",
"256 271 CURVE",
"404 271 LINE",
"404 -5 LINE",
"504 3 OFFCURVE",
"555 29 OFFCURVE",
"581 85 CURVE SMOOTH",
"607 140 OFFCURVE",
"608 224 OFFCURVE",
"608 344 CURVE SMOOTH",
"608 477 OFFCURVE",
"607 567 OFFCURVE",
"572 621 CURVE SMOOTH",
"536 675 OFFCURVE",
"466 696 OFFCURVE",
"330 696 CURVE SMOOTH",
"314 696 LINE SMOOTH",
"309 696 OFFCURVE",
"303 696 OFFCURVE",
"298 695 CURVE",
"298 541 LINE",
"306 542 OFFCURVE",
"317 543 OFFCURVE",
"330 543 CURVE SMOOTH",
"346 543 OFFCURVE",
"359 542 OFFCURVE",
"368 541 CURVE",
"387 537 OFFCURVE",
"397 522 OFFCURVE",
"401 488 CURVE",
"404 416 LINE",
"256 416 LINE",
"256 693 LINE",
"156 685 OFFCURVE",
"105 658 OFFCURVE",
"79 603 CURVE SMOOTH",
"53 548 OFFCURVE",
"52 464 OFFCURVE",
"52 344 CURVE SMOOTH",
"52 209 OFFCURVE",
"53 122 OFFCURVE",
"89 68 CURVE SMOOTH",
"124 14 OFFCURVE",
"194 -8 OFFCURVE",
"330 -8 CURVE SMOOTH"
);
}
);
width = 660;
}
);
note = zero.zero;
},
{
glyphname = zerosuperior;
layers = (
{
background = {
paths = (
{
closed = 1;
nodes = (
"177 627 OFFCURVE",
"185 635 OFFCURVE",
"185 646 CURVE SMOOTH",
"185 656 OFFCURVE",
"177 664 OFFCURVE",
"167 664 CURVE SMOOTH",
"156 664 OFFCURVE",
"148 656 OFFCURVE",
"148 646 CURVE SMOOTH",
"148 635 OFFCURVE",
"156 627 OFFCURVE",
"167 627 CURVE SMOOTH"
);
},
{
closed = 1;
nodes = (
"221 327 OFFCURVE",
"229 335 OFFCURVE",
"229 346 CURVE SMOOTH",
"229 356 OFFCURVE",
"221 364 OFFCURVE",
"211 364 CURVE SMOOTH",
"200 364 OFFCURVE",
"192 356 OFFCURVE",
"192 346 CURVE SMOOTH",
"192 335 OFFCURVE",
"200 327 OFFCURVE",
"211 327 CURVE SMOOTH"
);
}
);
};
color = -1;
layerId = "CCCBC4F5-0E52-43D6-BD5E-05F7881D6474";
paths = (
{
closed = 1;
nodes = (
"336 409 OFFCURVE",
"347 444 OFFCURVE",
"347 599 CURVE SMOOTH",
"347 771 OFFCURVE",
"333 793 OFFCURVE",
"188 793 CURVE SMOOTH",
"187 793 OFFCURVE",
"186 793 OFFCURVE",
"185 793 CURVE",
"185 706 LINE",
"186 706 OFFCURVE",
"187 706 OFFCURVE",
"188 706 CURVE SMOOTH",
"228 706 OFFCURVE",
"229 704 OFFCURVE",
"229 599 CURVE",
"229 405 LINE"
);
},
{
closed = 1;
nodes = (
"189 404 OFFCURVE",
"190 404 OFFCURVE",
"192 404 CURVE",
"192 490 LINE",
"191 490 OFFCURVE",
"189 490 OFFCURVE",
"188 490 CURVE SMOOTH",
"149 490 OFFCURVE",
"148 492 OFFCURVE",
"148 599 CURVE",
"148 792 LINE",
"41 787 OFFCURVE",
"30 754 OFFCURVE",
"30 599 CURVE SMOOTH",
"30 426 OFFCURVE",
"43 404 OFFCURVE",
"188 404 CURVE SMOOTH"
);
}
);
width = 376;
}
);
unicode = 2070;
},
{
glyphname = onesuperior;
layers = (
{
color = -1;
layerId = "CCCBC4F5-0E52-43D6-BD5E-05F7881D6474";
paths = (
{
closed = 1;
nodes = (
"219 414 LINE",
"219 788 LINE",
"140 788 LINE",
"30 736 LINE",
"30 637 LINE",
"97 662 LINE",
"97 414 LINE"
);
}
);
width = 264;
}
);
note = uni00B9;
unicode = 00B9;
},
{
glyphname = twosuperior;
layers = (
{
color = -1;
layerId = "CCCBC4F5-0E52-43D6-BD5E-05F7881D6474";
paths = (
{
closed = 1;
nodes = (
"157 414 LINE",
"157 515 LINE SMOOTH",
"157 534 OFFCURVE",
"161 537 OFFCURVE",
"180 544 CURVE",
"255 567 LINE SMOOTH",
"306 583 OFFCURVE",
"329 613 OFFCURVE",
"329 685 CURVE SMOOTH",
"329 733 OFFCURVE",
"316 761 OFFCURVE",
"294 776 CURVE SMOOTH",
"272 791 OFFCURVE",
"240 795 OFFCURVE",
"207 796 CURVE",
"207 680 LINE SMOOTH",
"207 660 OFFCURVE",
"203 657 OFFCURVE",
"174 646 CURVE SMOOTH",
"112 622 LINE SMOOTH",
"77 609 OFFCURVE",
"60 593 OFFCURVE",
"50 570 CURVE SMOOTH",
"40 547 OFFCURVE",
"38 516 OFFCURVE",
"38 475 CURVE SMOOTH",
"38 414 LINE"
);
},
{
closed = 1;
nodes = (
"329 414 LINE",
"329 515 LINE",
"194 515 LINE",
"194 414 LINE"
);
},
{
closed = 1;
nodes = (
"57 690 OFFCURVE",
"69 692 OFFCURVE",
"81 694 CURVE SMOOTH",
"102 697 OFFCURVE",
"128 699 OFFCURVE",
"151 699 CURVE SMOOTH",
"170 699 LINE",
"170 796 LINE",
"122 793 LINE",
"92 790 OFFCURVE",
"68 787 OFFCURVE",
"45 783 CURVE",
"45 689 LINE"
);
}
);
width = 367;
}
);
note = uni00B2;
unicode = 00B2;
},
{
glyphname = threesuperior;
layers = (
{
color = -1;
layerId = "CCCBC4F5-0E52-43D6-BD5E-05F7881D6474";
paths = (
{
closed = 1;
nodes = (
"262 411 OFFCURVE",
"292 422 OFFCURVE",
"311 441 CURVE SMOOTH",
"330 460 OFFCURVE",
"336 485 OFFCURVE",
"336 516 CURVE SMOOTH",
"336 567 OFFCURVE",
"314 591 OFFCURVE",
"277 602 CURVE",
"277 606 LINE",
"314 621 OFFCURVE",
"332 645 OFFCURVE",
"332 693 CURVE SMOOTH",
"332 753 OFFCURVE",
"300 788 OFFCURVE",
"208 795 CURVE",
"208 671 LINE SMOOTH",
"208 646 OFFCURVE",
"204 643 OFFCURVE",
"175 643 CURVE SMOOTH",
"108 643 LINE",
"108 562 LINE",
"175 562 LINE SMOOTH",
"206 562 OFFCURVE",
"211 559 OFFCURVE",
"211 532 CURVE SMOOTH",
"211 407 LINE"
);
},
{
closed = 1;
nodes = (
"174 503 LINE",
"164 503 LINE SMOOTH",
"140 503 OFFCURVE",
"111 504 OFFCURVE",
"87 507 CURVE",
"73 508 OFFCURVE",
"59 510 OFFCURVE",
"45 511 CURVE",
"45 419 LINE",
"58 416 OFFCURVE",
"71 414 OFFCURVE",
"85 412 CURVE SMOOTH",
"109 409 OFFCURVE",
"141 406 OFFCURVE",
"174 406 CURVE"
);
},
{
closed = 1;
nodes = (
"59 692 OFFCURVE",
"71 694 OFFCURVE",
"83 695 CURVE",
"104 698 OFFCURVE",
"131 699 OFFCURVE",
"158 699 CURVE SMOOTH",
"171 699 LINE",
"171 796 LINE",
"125 793 LINE SMOOTH",
"95 791 OFFCURVE",
"71 787 OFFCURVE",
"47 783 CURVE",
"47 691 LINE"
);
}
);
width = 381;
}
);
note = uni00B3;
unicode = 00B3;
},
{
glyphname = foursuperior;
layers = (
{
background = {
paths = (
{
closed = 1;
nodes = (
"142 397 OFFCURVE",
"150 405 OFFCURVE",
"150 416 CURVE SMOOTH",
"150 426 OFFCURVE",
"142 434 OFFCURVE",
"132 434 CURVE SMOOTH",
"121 434 OFFCURVE",
"113 426 OFFCURVE",
"113 416 CURVE SMOOTH",
"113 405 OFFCURVE",
"121 397 OFFCURVE",
"132 397 CURVE SMOOTH"
);
},
{
closed = 0;
nodes = (
"264 688 LINE",
"82 365 LINE"
);
},
{
closed = 0;
nodes = (
"306 688 LINE",
"124 365 LINE"
);
}
);
};
color = -1;
layerId = "CCCBC4F5-0E52-43D6-BD5E-05F7881D6474";
paths = (
{
closed = 1;
nodes = (
"90 480 LINE",
"264 788 LINE",
"139 788 LINE",
"19 556 LINE",
"19 480 LINE"
);
},
{
closed = 1;
nodes = (
"311 408 LINE",
"311 480 LINE",
"355 480 LINE",
"355 566 LINE",
"311 566 LINE",
"311 642 LINE",
"237 642 LINE",
"201 566 LINE",
"181 566 LINE",
"132 480 LINE",
"197 480 LINE",
"197 408 LINE"
);
}
);
width = 370;
}
);
unicode = 2074;
},
{
glyphname = fivesuperior;
layers = (
{
background = {
paths = (
{
closed = 1;
nodes = (
"174 637 OFFCURVE",
"182 645 OFFCURVE",
"182 656 CURVE SMOOTH",
"182 666 OFFCURVE",
"174 674 OFFCURVE",
"164 674 CURVE SMOOTH",
"153 674 OFFCURVE",
"145 666 OFFCURVE",
"145 656 CURVE SMOOTH",
"145 645 OFFCURVE",
"153 637 OFFCURVE",
"164 637 CURVE SMOOTH"
);
},
{
closed = 1;
nodes = (
"214 337 OFFCURVE",
"222 345 OFFCURVE",
"222 356 CURVE SMOOTH",
"222 366 OFFCURVE",
"214 374 OFFCURVE",
"204 374 CURVE SMOOTH",
"193 374 OFFCURVE",
"185 366 OFFCURVE",
"185 356 CURVE SMOOTH",
"185 345 OFFCURVE",
"193 337 OFFCURVE",
"204 337 CURVE SMOOTH"
);
}
);
};
color = -1;
layerId = "CCCBC4F5-0E52-43D6-BD5E-05F7881D6474";
paths = (
{
closed = 1;
nodes = (
"308 415 OFFCURVE",
"330 456 OFFCURVE",
"330 535 CURVE SMOOTH",
"330 608 OFFCURVE",
"307 651 OFFCURVE",
"212 651 CURVE SMOOTH",
"188 651 OFFCURVE",
"165 650 OFFCURVE",
"145 648 CURVE",
"145 788 LINE",
"45 788 LINE",
"45 562 LINE",
"78 565 OFFCURVE",
"123 567 OFFCURVE",
"154 567 CURVE SMOOTH",
"204 567 OFFCURVE",
"213 562 OFFCURVE",
"213 529 CURVE",
"213 406 LINE"
);
},
{
closed = 1;
nodes = (
"175 404 OFFCURVE",
"180 404 OFFCURVE",
"185 404 CURVE",
"185 491 LINE",
"177 490 OFFCURVE",
"167 490 OFFCURVE",
"154 490 CURVE SMOOTH",
"126 490 OFFCURVE",
"77 493 OFFCURVE",
"41 496 CURVE",
"41 416 LINE",
"80 409 OFFCURVE",
"132 404 OFFCURVE",
"170 404 CURVE SMOOTH"
);
},
{
closed = 1;
nodes = (
"302 701 LINE",
"302 788 LINE",
"182 788 LINE",
"182 701 LINE"
);
}
);
width = 359;
}
);
unicode = 2075;
},
{
glyphname = sixsuperior;
layers = (
{
background = {
paths = (
{
closed = 1;
nodes = (
"176 637 OFFCURVE",
"184 645 OFFCURVE",
"184 656 CURVE SMOOTH",
"184 666 OFFCURVE",
"176 674 OFFCURVE",
"166 674 CURVE SMOOTH",
"155 674 OFFCURVE",
"147 666 OFFCURVE",
"147 656 CURVE SMOOTH",
"147 645 OFFCURVE",
"155 637 OFFCURVE",
"166 637 CURVE SMOOTH"
);
},
{
closed = 1;
nodes = (
"233 337 OFFCURVE",
"241 345 OFFCURVE",
"241 356 CURVE SMOOTH",
"241 366 OFFCURVE",
"233 374 OFFCURVE",
"223 374 CURVE SMOOTH",
"212 374 OFFCURVE",
"204 366 OFFCURVE",
"204 356 CURVE SMOOTH",
"204 345 OFFCURVE",
"212 337 OFFCURVE",
"223 337 CURVE SMOOTH"
);
}
);
};
color = -1;
layerId = "CCCBC4F5-0E52-43D6-BD5E-05F7881D6474";
paths = (
{
closed = 1;
nodes = (
"199 404 OFFCURVE",
"202 404 OFFCURVE",
"204 404 CURVE",
"204 488 LINE",
"201 488 OFFCURVE",
"197 488 OFFCURVE",
"193 488 CURVE SMOOTH",
"159 488 OFFCURVE",
"147 489 OFFCURVE",
"147 530 CURVE",
"147 790 LINE",
"92 783 OFFCURVE",
"59 761 OFFCURVE",
"44 718 CURVE SMOOTH",
"34 690 OFFCURVE",
"30 650 OFFCURVE",
"30 598 CURVE SMOOTH",
"30 535 OFFCURVE",
"34 492 OFFCURVE",
"43 470 CURVE SMOOTH",
"67 412 OFFCURVE",
"112 404 OFFCURVE",
"197 404 CURVE SMOOTH"
);
},
{
closed = 1;
nodes = (
"330 416 OFFCURVE",
"352 456 OFFCURVE",
"352 537 CURVE SMOOTH",
"352 633 OFFCURVE",
"307 651 OFFCURVE",
"229 651 CURVE SMOOTH",
"210 651 OFFCURVE",
"195 649 OFFCURVE",
"184 646 CURVE",
"184 567 LINE",
"187 567 OFFCURVE",
"190 567 OFFCURVE",
"193 567 CURVE SMOOTH",
"233 567 OFFCURVE",
"241 563 OFFCURVE",
"241 527 CURVE",
"241 406 LINE"
);
},
{
closed = 1;
nodes = (
"328 781 LINE",
"285 789 OFFCURVE",
"232 793 OFFCURVE",
"201 793 CURVE SMOOTH",
"195 793 OFFCURVE",
"189 793 OFFCURVE",
"184 793 CURVE",
"184 704 LINE",
"194 705 OFFCURVE",
"206 706 OFFCURVE",
"222 706 CURVE SMOOTH",
"242 706 OFFCURVE",
"284 703 OFFCURVE",
"328 699 CURVE"
);
}
);
width = 378;
}
);
unicode = 2076;
},
{
glyphname = sevensuperior;
layers = (
{
color = -1;
layerId = "CCCBC4F5-0E52-43D6-BD5E-05F7881D6474";
paths = (
{
closed = 1;
nodes = (
"179 408 LINE",
"289 664 LINE",
"170 664 LINE",
"51 408 LINE"
);
},
{
closed = 1;
nodes = (
"187 701 LINE",
"308 701 LINE",
"308 788 LINE",
"19 788 LINE",
"19 701 LINE"
);
}
);
width = 328;
}
);
unicode = 2077;
},
{
glyphname = eightsuperior;
layers = (
{
background = {
paths = (
{
closed = 1;
nodes = (
"178 627 OFFCURVE",
"186 635 OFFCURVE",
"186 646 CURVE SMOOTH",
"186 656 OFFCURVE",
"178 664 OFFCURVE",
"168 664 CURVE SMOOTH",
"157 664 OFFCURVE",
"149 656 OFFCURVE",
"149 646 CURVE SMOOTH",
"149 635 OFFCURVE",
"157 627 OFFCURVE",
"168 627 CURVE SMOOTH"
);
},
{
closed = 1;
nodes = (
"235 327 OFFCURVE",
"243 335 OFFCURVE",
"243 346 CURVE SMOOTH",
"243 356 OFFCURVE",
"235 364 OFFCURVE",
"225 364 CURVE SMOOTH",
"214 364 OFFCURVE",
"206 356 OFFCURVE",
"206 346 CURVE SMOOTH",
"206 335 OFFCURVE",
"214 327 OFFCURVE",
"225 327 CURVE SMOOTH"
);
}
);
};
color = -1;
guideLines = (
{
angle = 90;
position = "{242, 276}";
},
{
angle = 90;
position = "{149, 276}";
}
);
layerId = "CCCBC4F5-0E52-43D6-BD5E-05F7881D6474";
paths = (
{
closed = 1;
nodes = (
"198 404 OFFCURVE",
"202 404 OFFCURVE",
"206 404 CURVE",
"206 486 LINE",
"202 486 OFFCURVE",
"198 486 OFFCURVE",
"194 486 CURVE SMOOTH",
"155 486 OFFCURVE",
"146 490 OFFCURVE",
"146 524 CURVE SMOOTH",
"146 560 OFFCURVE",
"154 564 OFFCURVE",
"194 564 CURVE SMOOTH",
"234 564 OFFCURVE",
"242 560 OFFCURVE",
"242 524 CURVE SMOOTH",
"242 406 LINE",
"335 415 OFFCURVE",
"359 452 OFFCURVE",
"359 510 CURVE SMOOTH",
"359 571 OFFCURVE",
"334 591 OFFCURVE",
"289 601 CURVE",
"289 604 LINE",
"333 613 OFFCURVE",
"355 638 OFFCURVE",
"355 693 CURVE SMOOTH",
"355 759 OFFCURVE",
"318 793 OFFCURVE",
"194 793 CURVE SMOOTH",
"191 793 OFFCURVE",
"188 793 OFFCURVE",
"186 793 CURVE",
"186 711 LINE",
"188 711 OFFCURVE",
"191 711 OFFCURVE",
"194 711 CURVE SMOOTH",
"234 711 OFFCURVE",
"239 706 OFFCURVE",
"239 673 CURVE SMOOTH",
"239 640 OFFCURVE",
"233 636 OFFCURVE",
"194 636 CURVE SMOOTH",
"154 636 OFFCURVE",
"149 640 OFFCURVE",
"149 673 CURVE SMOOTH",
"149 791 LINE",
"60 784 OFFCURVE",
"32 750 OFFCURVE",
"32 693 CURVE SMOOTH",
"32 638 OFFCURVE",
"54 613 OFFCURVE",
"99 604 CURVE",
"99 601 LINE",
"54 591 OFFCURVE",
"29 571 OFFCURVE",
"29 510 CURVE SMOOTH",
"29 443 OFFCURVE",
"60 404 OFFCURVE",
"194 404 CURVE SMOOTH"
);
}
);
width = 388;
}
);
unicode = 2078;
},
{
glyphname = ninesuperior;
layers = (
{
color = -1;
layerId = "CCCBC4F5-0E52-43D6-BD5E-05F7881D6474";
paths = (
{
closed = 1;
nodes = (
"286 414 OFFCURVE",
"319 436 OFFCURVE",
"334 479 CURVE SMOOTH",
"344 507 OFFCURVE",
"348 547 OFFCURVE",
"348 599 CURVE SMOOTH",
"348 662 OFFCURVE",
"344 705 OFFCURVE",
"335 727 CURVE SMOOTH",
"311 785 OFFCURVE",
"266 793 OFFCURVE",
"181 793 CURVE SMOOTH",
"179 793 OFFCURVE",
"176 793 OFFCURVE",
"174 793 CURVE",
"174 709 LINE",
"177 709 OFFCURVE",
"181 709 OFFCURVE",
"185 709 CURVE SMOOTH",
"219 709 OFFCURVE",
"231 708 OFFCURVE",
"231 667 CURVE",
"231 407 LINE"
);
},
{
closed = 1;
nodes = (
"183 404 OFFCURVE",
"189 404 OFFCURVE",
"194 404 CURVE",
"194 493 LINE",
"184 492 OFFCURVE",
"172 491 OFFCURVE",
"156 491 CURVE SMOOTH",
"136 491 OFFCURVE",
"94 494 OFFCURVE",
"50 498 CURVE",
"50 416 LINE",
"93 408 OFFCURVE",
"146 404 OFFCURVE",
"177 404 CURVE SMOOTH"
);
},
{
closed = 1;
nodes = (
"168 546 OFFCURVE",
"183 548 OFFCURVE",
"194 551 CURVE",
"194 630 LINE",
"191 630 OFFCURVE",
"188 630 OFFCURVE",
"185 630 CURVE SMOOTH",
"145 630 OFFCURVE",
"137 634 OFFCURVE",
"137 670 CURVE",
"137 791 LINE",
"48 781 OFFCURVE",
"26 741 OFFCURVE",
"26 660 CURVE SMOOTH",
"26 564 OFFCURVE",
"71 546 OFFCURVE",
"149 546 CURVE SMOOTH"
);
}
);
width = 378;
}
);
unicode = 2079;
},
{
glyphname = fraction;
layers = (
{
color = -1;
layerId = "CCCBC4F5-0E52-43D6-BD5E-05F7881D6474";
paths = (
{
closed = 1;
nodes = (
"57 0 LINE",
"506 688 LINE",
"389 688 LINE",
"-60 0 LINE"
);
}
);
width = 446;
}
);
note = fraction;
unicode = 2044;
},
{
glyphname = onehalf;
layers = (
{
color = -1;
layerId = "CCCBC4F5-0E52-43D6-BD5E-05F7881D6474";
paths = (
{
closed = 1;
nodes = (
"192 0 LINE",
"641 688 LINE",
"524 688 LINE",
"75 0 LINE"
);
},
{
closed = 1;
nodes = (
"219 314 LINE",
"219 688 LINE",
"140 688 LINE",
"30 636 LINE",
"30 537 LINE",
"97 562 LINE",
"97 314 LINE"
);
},
{
closed = 1;
nodes = (
"766 0 LINE",
"766 101 LINE",
"631 101 LINE",
"631 0 LINE"
);
},
{
closed = 1;
nodes = (
"594 0 LINE",
"594 101 LINE SMOOTH",
"594 120 OFFCURVE",
"598 123 OFFCURVE",
"617 130 CURVE",
"692 153 LINE SMOOTH",
"743 168 OFFCURVE",
"766 199 OFFCURVE",
"766 271 CURVE SMOOTH",
"766 319 OFFCURVE",
"753 346 OFFCURVE",
"731 362 CURVE SMOOTH",
"709 377 OFFCURVE",
"677 381 OFFCURVE",
"644 382 CURVE",
"644 266 LINE SMOOTH",
"644 246 OFFCURVE",
"640 244 OFFCURVE",
"611 232 CURVE SMOOTH",
"549 208 LINE SMOOTH",
"514 195 OFFCURVE",
"497 179 OFFCURVE",
"487 156 CURVE SMOOTH",
"477 133 OFFCURVE",
"475 102 OFFCURVE",
"475 61 CURVE SMOOTH",
"475 0 LINE"
);
},
{
closed = 1;
nodes = (
"494 276 OFFCURVE",
"506 278 OFFCURVE",
"518 280 CURVE SMOOTH",
"539 283 OFFCURVE",
"565 285 OFFCURVE",
"588 285 CURVE SMOOTH",
"607 285 LINE",
"607 382 LINE",
"559 379 LINE",
"529 376 OFFCURVE",
"505 373 OFFCURVE",
"482 369 CURVE",
"482 275 LINE"
);
}
);
width = 811;
}
);
note = onehalf;
unicode = 00BD;
},
{
glyphname = onequarter;
layers = (
{
color = -1;
layerId = "CCCBC4F5-0E52-43D6-BD5E-05F7881D6474";
paths = (
{
closed = 1;
nodes = (
"192 0 LINE",
"641 688 LINE",
"524 688 LINE",
"75 0 LINE"
);
},
{
closed = 1;
nodes = (
"219 314 LINE",
"219 688 LINE",
"140 688 LINE",
"30 636 LINE",
"30 537 LINE",
"97 562 LINE",
"97 314 LINE"
);
},
{
closed = 1;
nodes = (
"683 0 LINE",
"683 67 LINE",
"728 67 LINE",
"728 164 LINE",
"683 164 LINE",
"683 237 LINE",
"625 237 LINE",
"577 164 LINE",
"561 164 LINE",
"502 67 LINE",
"563 67 LINE",
"563 0 LINE"
);
},
{
closed = 1;
nodes = (
"461 67 LINE",
"650 378 LINE",
"516 378 LINE",
"393 149 LINE",
"393 67 LINE"
);
}
);
width = 773;
}
);
note = onequarter;
unicode = 00BC;
},
{
glyphname = threequarters;
layers = (
{
color = -1;
layerId = "CCCBC4F5-0E52-43D6-BD5E-05F7881D6474";
paths = (
{
closed = 1;
nodes = (
"269 0 LINE",
"718 688 LINE",
"601 688 LINE",
"152 0 LINE"
);
},
{
closed = 1;
nodes = (
"174 403 LINE",
"164 403 LINE SMOOTH",
"140 403 OFFCURVE",
"111 404 OFFCURVE",
"87 407 CURVE",
"73 408 OFFCURVE",
"59 410 OFFCURVE",
"45 411 CURVE",
"45 319 LINE",
"58 316 OFFCURVE",
"71 314 OFFCURVE",
"85 312 CURVE SMOOTH",
"109 309 OFFCURVE",
"141 306 OFFCURVE",
"174 306 CURVE"
);
},
{
closed = 1;
nodes = (
"262 311 OFFCURVE",
"292 322 OFFCURVE",
"311 341 CURVE SMOOTH",
"330 360 OFFCURVE",
"336 385 OFFCURVE",
"336 416 CURVE SMOOTH",
"336 467 OFFCURVE",
"314 491 OFFCURVE",
"277 502 CURVE",
"277 506 LINE",
"314 521 OFFCURVE",
"332 545 OFFCURVE",
"332 593 CURVE SMOOTH",
"332 653 OFFCURVE",
"300 688 OFFCURVE",
"208 695 CURVE",
"208 571 LINE SMOOTH",
"208 546 OFFCURVE",
"204 543 OFFCURVE",
"175 543 CURVE SMOOTH",
"108 543 LINE",
"108 462 LINE",
"175 462 LINE SMOOTH",
"206 462 OFFCURVE",
"211 459 OFFCURVE",
"211 432 CURVE SMOOTH",
"211 307 LINE"
);
},
{
closed = 1;
nodes = (
"59 592 OFFCURVE",
"71 594 OFFCURVE",
"83 595 CURVE",
"104 598 OFFCURVE",
"131 599 OFFCURVE",
"158 599 CURVE SMOOTH",
"171 599 LINE",
"171 696 LINE",
"125 693 LINE SMOOTH",
"95 690 OFFCURVE",
"71 687 OFFCURVE",
"47 683 CURVE",
"47 591 LINE"
);
},
{
closed = 1;
nodes = (
"760 0 LINE",
"760 67 LINE",
"805 67 LINE",
"805 164 LINE",
"760 164 LINE",
"760 237 LINE",
"702 237 LINE",
"654 164 LINE",
"638 164 LINE",
"579 67 LINE",
"640 67 LINE",
"640 0 LINE"
);
},
{
closed = 1;
nodes = (
"538 67 LINE",
"727 378 LINE",
"593 378 LINE",
"470 149 LINE",
"470 67 LINE"
);
}
);
width = 850;
}
);
note = threequarters;
unicode = 00BE;
},
{
glyphname = period;
layers = (
{
color = -1;
layerId = "CCCBC4F5-0E52-43D6-BD5E-05F7881D6474";
paths = (
{
closed = 1;
nodes = (
"266 0 LINE",
"266 163 LINE",
"64 163 LINE",
"64 0 LINE"
);
}
);
width = 330;
}
);
leftKerningGroup = period;
note = period;
unicode = 002E;
},
{
glyphname = comma;
layers = (
{
color = -1;
layerId = "CCCBC4F5-0E52-43D6-BD5E-05F7881D6474";
paths = (
{
closed = 1;
nodes = (
"155 -157 OFFCURVE",
"205 -145 OFFCURVE",
"233 -115 CURVE SMOOTH",
"261 -85 OFFCURVE",
"266 -36 OFFCURVE",
"266 40 CURVE SMOOTH",
"266 163 LINE",
"64 163 LINE",
"64 0 LINE",
"136 0 LINE",
"136 -15 LINE SMOOTH",
"136 -42 OFFCURVE",
"134 -58 OFFCURVE",
"124 -69 CURVE SMOOTH",
"114 -80 OFFCURVE",
"96 -84 OFFCURVE",
"64 -84 CURVE",
"64 -157 LINE"
);
}
);
width = 330;
}
);
leftKerningGroup = period;
note = comma;
unicode = 002C;
},
{
glyphname = colon;
layers = (
{
color = -1;
layerId = "CCCBC4F5-0E52-43D6-BD5E-05F7881D6474";
paths = (
{
closed = 1;
nodes = (
"266 347 LINE",
"266 510 LINE",
"64 510 LINE",
"64 347 LINE"
);
},
{
closed = 1;
nodes = (
"266 0 LINE",
"266 163 LINE",
"64 163 LINE",
"64 0 LINE"
);
}
);
width = 330;
}
);
note = colon;
unicode = 003A;
},
{
glyphname = semicolon;
layers = (
{
color = -1;
layerId = "CCCBC4F5-0E52-43D6-BD5E-05F7881D6474";
paths = (
{
closed = 1;
nodes = (
"155 -157 OFFCURVE",
"205 -145 OFFCURVE",
"233 -115 CURVE SMOOTH",
"261 -85 OFFCURVE",
"266 -36 OFFCURVE",
"266 40 CURVE SMOOTH",
"266 163 LINE",
"64 163 LINE",
"64 0 LINE",
"136 0 LINE",
"136 -15 LINE SMOOTH",
"136 -42 OFFCURVE",
"134 -58 OFFCURVE",
"124 -69 CURVE SMOOTH",
"114 -80 OFFCURVE",
"96 -84 OFFCURVE",
"64 -84 CURVE",
"64 -157 LINE"
);
},
{
closed = 1;
nodes = (
"266 347 LINE",
"266 510 LINE",
"64 510 LINE",
"64 347 LINE"
);
}
);
width = 330;
}
);
note = semicolon;
unicode = 003B;
},
{
glyphname = ellipsis;
layers = (
{
color = -1;
layerId = "CCCBC4F5-0E52-43D6-BD5E-05F7881D6474";
paths = (
{
closed = 1;
nodes = (
"926 0 LINE",
"926 163 LINE",
"724 163 LINE",
"724 0 LINE"
);
},
{
closed = 1;
nodes = (
"266 0 LINE",
"266 163 LINE",
"64 163 LINE",
"64 0 LINE"
);
},
{
closed = 1;
nodes = (
"596 0 LINE",
"596 163 LINE",
"394 163 LINE",
"394 0 LINE"
);
}
);
width = 990;
}
);
note = ellipsis;
unicode = 2026;
},
{
glyphname = exclam;
layers = (
{
color = -1;
layerId = "CCCBC4F5-0E52-43D6-BD5E-05F7881D6474";
paths = (
{
closed = 1;
nodes = (
"263 246 LINE",
"283 447 LINE SMOOTH",
"286 473 OFFCURVE",
"288 499 OFFCURVE",
"291 524 CURVE SMOOTH",
"297 592 LINE SMOOTH",
"299 613 OFFCURVE",
"301 630 OFFCURVE",
"302 645 CURVE SMOOTH",
"303 660 OFFCURVE",
"303 669 OFFCURVE",
"303 673 CURVE SMOOTH",
"303 688 LINE",
"80 688 LINE",
"80 673 LINE",
"82 645 LINE SMOOTH",
"83 630 OFFCURVE",
"84 613 OFFCURVE",
"86 592 CURVE SMOOTH",
"88 571 OFFCURVE",
"90 549 OFFCURVE",
"93 524 CURVE",
"95 499 OFFCURVE",
"97 473 OFFCURVE",
"100 447 CURVE SMOOTH",
"120 246 LINE"
);
},
{
closed = 1;
nodes = (
"292 0 LINE",
"292 163 LINE",
"90 163 LINE",
"90 0 LINE"
);
}
);
width = 363;
}
);
note = exclam;
unicode = 0021;
},
{
glyphname = exclamdown;
layers = (
{
color = -1;
layerId = "CCCBC4F5-0E52-43D6-BD5E-05F7881D6474";
paths = (
{
closed = 1;
nodes = (
"283 -178 LINE",
"283 -163 LINE SMOOTH",
"283 -159 OFFCURVE",
"283 -150 OFFCURVE",
"282 -135 CURVE SMOOTH",
"281 -121 OFFCURVE",
"279 -103 OFFCURVE",
"277 -82 CURVE SMOOTH",
"271 -13 LINE SMOOTH",
"268 12 OFFCURVE",
"266 37 OFFCURVE",
"263 63 CURVE SMOOTH",
"243 264 LINE",
"100 264 LINE",
"80 63 LINE SMOOTH",
"77 37 OFFCURVE",
"75 12 OFFCURVE",
"73 -13 CURVE",
"70 -38 OFFCURVE",
"68 -61 OFFCURVE",
"66 -82 CURVE SMOOTH",
"64 -103 OFFCURVE",
"63 -121 OFFCURVE",
"62 -135 CURVE SMOOTH",
"60 -163 LINE",
"60 -178 LINE"
);
},
{
closed = 1;
nodes = (
"272 347 LINE",
"272 510 LINE",
"70 510 LINE",
"70 347 LINE"
);
}
);
width = 343;
}
);
note = exclamdown;
unicode = 00A1;
},
{
glyphname = question;
layers = (
{
color = -1;
layerId = "CCCBC4F5-0E52-43D6-BD5E-05F7881D6474";
paths = (
{
closed = 1;
nodes = (
"301 246 LINE",
"301 265 LINE SMOOTH",
"301 279 OFFCURVE",
"301 290 OFFCURVE",
"302 298 CURVE",
"302 305 OFFCURVE",
"303 311 OFFCURVE",
"305 316 CURVE SMOOTH",
"308 324 OFFCURVE",
"314 327 OFFCURVE",
"329 332 CURVE SMOOTH",
"379 349 LINE SMOOTH",
"406 358 OFFCURVE",
"429 369 OFFCURVE",
"445 392 CURVE SMOOTH",
"461 415 OFFCURVE",
"471 451 OFFCURVE",
"471 510 CURVE SMOOTH",
"471 587 OFFCURVE",
"448 634 OFFCURVE",
"412 661 CURVE SMOOTH",
"375 688 OFFCURVE",
"324 695 OFFCURVE",
"271 696 CURVE",
"271 491 LINE SMOOTH",
"271 474 OFFCURVE",
"270 463 OFFCURVE",
"263 455 CURVE SMOOTH",
"256 447 OFFCURVE",
"243 442 OFFCURVE",
"219 434 CURVE SMOOTH",
"195 426 OFFCURVE",
"173 419 OFFCURVE",
"157 403 CURVE SMOOTH",
"141 386 OFFCURVE",
"131 359 OFFCURVE",
"131 311 CURVE SMOOTH",
"131 246 LINE"
);
},
{
closed = 1;
nodes = (
"318 0 LINE",
"318 163 LINE",
"116 163 LINE",
"116 0 LINE"
);
},
{
closed = 1;
nodes = (
"88 537 LINE SMOOTH",
"119 540 OFFCURVE",
"158 543 OFFCURVE",
"193 543 CURVE SMOOTH",
"213 543 LINE SMOOTH",
"218 543 OFFCURVE",
"224 543 OFFCURVE",
"229 542 CURVE",
"229 695 LINE",
"201 694 OFFCURVE",
"175 692 OFFCURVE",
"152 691 CURVE",
"105 687 OFFCURVE",
"68 682 OFFCURVE",
"35 675 CURVE",
"35 531 LINE"
);
}
);
width = 521;
}
);
note = question;
unicode = 003F;
},
{
glyphname = questiondown;
layers = (
{
color = -1;
layerId = "CCCBC4F5-0E52-43D6-BD5E-05F7881D6474";
paths = (
{
closed = 1;
nodes = (
"250 19 LINE SMOOTH",
"250 36 OFFCURVE",
"251 47 OFFCURVE",
"258 55 CURVE SMOOTH",
"265 63 OFFCURVE",
"278 68 OFFCURVE",
"302 76 CURVE SMOOTH",
"326 84 OFFCURVE",
"348 91 OFFCURVE",
"364 108 CURVE SMOOTH",
"380 124 OFFCURVE",
"390 151 OFFCURVE",
"390 199 CURVE SMOOTH",
"390 264 LINE",
"220 264 LINE",
"220 245 LINE",
"220 213 LINE",
"219 205 OFFCURVE",
"218 199 OFFCURVE",
"217 195 CURVE",
"213 186 OFFCURVE",
"205 183 OFFCURVE",
"192 178 CURVE",
"142 161 LINE SMOOTH",
"115 152 OFFCURVE",
"92 141 OFFCURVE",
"76 118 CURVE SMOOTH",
"60 95 OFFCURVE",
"50 59 OFFCURVE",
"50 0 CURVE SMOOTH",
"50 -79 OFFCURVE",
"73 -124 OFFCURVE",
"110 -151 CURVE SMOOTH",
"146 -178 OFFCURVE",
"195 -185 OFFCURVE",
"250 -186 CURVE"
);
},
{
closed = 1;
nodes = (
"347 -185 OFFCURVE",
"394 -180 OFFCURVE",
"429 -176 CURVE SMOOTH",
"450 -173 OFFCURVE",
"469 -171 OFFCURVE",
"486 -169 CURVE",
"486 -25 LINE",
"468 -26 OFFCURVE",
"450 -28 OFFCURVE",
"432 -29 CURVE",
"401 -32 OFFCURVE",
"363 -33 OFFCURVE",
"328 -33 CURVE SMOOTH",
"309 -33 LINE SMOOTH",
"303 -33 OFFCURVE",
"297 -33 OFFCURVE",
"292 -32 CURVE",
"292 -186 LINE"
);
},
{
closed = 1;
nodes = (
"405 347 LINE",
"405 510 LINE",
"203 510 LINE",
"203 347 LINE"
);
}
);
width = 466;
}
);
note = questiondown;
unicode = 00BF;
},
{
glyphname = periodcentered;
layers = (
{
color = -1;
layerId = "CCCBC4F5-0E52-43D6-BD5E-05F7881D6474";
paths = (
{
closed = 1;
nodes = (
"266 218 LINE",
"266 381 LINE",
"64 381 LINE",
"64 218 LINE"
);
}
);
width = 330;
}
);
note = periodcentered;
unicode = 00B7;
},
{
glyphname = bullet;
layers = (
{
color = -1;
layerId = "CCCBC4F5-0E52-43D6-BD5E-05F7881D6474";
paths = (
{
closed = 1;
nodes = (
"261 217 OFFCURVE",
"294 222 OFFCURVE",
"311 239 CURVE SMOOTH",
"327 256 OFFCURVE",
"328 287 OFFCURVE",
"328 342 CURVE SMOOTH",
"328 398 OFFCURVE",
"327 430 OFFCURVE",
"311 448 CURVE SMOOTH",
"294 466 OFFCURVE",
"261 470 OFFCURVE",
"200 470 CURVE SMOOTH",
"140 470 OFFCURVE",
"109 466 OFFCURVE",
"93 448 CURVE SMOOTH",
"76 430 OFFCURVE",
"75 398 OFFCURVE",
"75 342 CURVE SMOOTH",
"75 287 OFFCURVE",
"76 256 OFFCURVE",
"93 239 CURVE SMOOTH",
"109 222 OFFCURVE",
"140 217 OFFCURVE",
"200 217 CURVE SMOOTH"
);
}
);
width = 403;
}
);
note = bullet;
unicode = 2022;
},
{
glyphname = asterisk;
layers = (
{
color = -1;
layerId = "CCCBC4F5-0E52-43D6-BD5E-05F7881D6474";
paths = (
{
closed = 1;
nodes = (
"274 320 LINE",
"262 443 LINE",
"365 370 LINE",
"412 452 LINE",
"297 503 LINE",
"412 556 LINE",
"365 638 LINE",
"262 566 LINE",
"274 688 LINE",
"180 688 LINE",
"192 565 LINE",
"89 638 LINE",
"42 556 LINE",
"156 503 LINE",
"42 452 LINE",
"89 370 LINE",
"192 443 LINE",
"180 320 LINE"
);
}
);
width = 454;
}
);
note = asterisk;
unicode = 002A;
},
{
glyphname = numbersign;
layers = (
{
color = -1;
layerId = "CCCBC4F5-0E52-43D6-BD5E-05F7881D6474";
paths = (
{
closed = 1;
nodes = (
"301 364 LINE",
"310 404 LINE",
"418 404 LINE",
"409 364 LINE",
"534 364 LINE",
"543 404 LINE",
"653 404 LINE",
"653 518 LINE",
"570 518 LINE",
"609 688 LINE",
"484 688 LINE",
"445 518 LINE",
"337 518 LINE",
"376 688 LINE",
"251 688 LINE",
"212 518 LINE",
"84 518 LINE",
"84 404 LINE",
"185 404 LINE",
"176 364 LINE"
);
},
{
closed = 1;
nodes = (
"217 0 LINE",
"256 170 LINE",
"364 170 LINE",
"325 0 LINE",
"450 0 LINE",
"489 170 LINE",
"616 170 LINE",
"616 284 LINE",
"516 284 LINE",
"525 324 LINE",
"400 324 LINE",
"391 284 LINE",
"283 284 LINE",
"292 324 LINE",
"167 324 LINE",
"158 284 LINE",
"47 284 LINE",
"47 170 LINE",
"131 170 LINE",
"92 0 LINE"
);
}
);
width = 700;
}
);
note = numbersign;
unicode = 0023;
},
{
glyphname = slash;
layers = (
{
color = -1;
layerId = "CCCBC4F5-0E52-43D6-BD5E-05F7881D6474";
paths = (
{
closed = 1;
nodes = (
"149 -55 LINE",
"440 743 LINE",
"279 743 LINE",
"-11 -55 LINE"
);
}
);
width = 429;
}
);
note = slash;
unicode = 002F;
},
{
glyphname = backslash;
layers = (
{
color = -1;
layerId = "CCCBC4F5-0E52-43D6-BD5E-05F7881D6474";
paths = (
{
closed = 1;
nodes = (
"440 -55 LINE",
"150 743 LINE",
"-11 743 LINE",
"280 -55 LINE"
);
}
);
width = 429;
}
);
note = backslash;
unicode = 005C;
},
{
glyphname = exclam.case;
layers = (
{
color = -1;
layerId = "CCCBC4F5-0E52-43D6-BD5E-05F7881D6474";
paths = (
{
closed = 1;
nodes = (
"263 246 LINE",
"283 447 LINE SMOOTH",
"286 473 OFFCURVE",
"288 499 OFFCURVE",
"291 524 CURVE SMOOTH",
"297 592 LINE SMOOTH",
"299 613 OFFCURVE",
"301 630 OFFCURVE",
"302 645 CURVE SMOOTH",
"303 660 OFFCURVE",
"303 669 OFFCURVE",
"303 673 CURVE SMOOTH",
"303 688 LINE",
"80 688 LINE",
"80 673 LINE",
"82 645 LINE SMOOTH",
"83 630 OFFCURVE",
"84 613 OFFCURVE",
"86 592 CURVE SMOOTH",
"88 571 OFFCURVE",
"90 549 OFFCURVE",
"93 524 CURVE",
"95 499 OFFCURVE",
"97 473 OFFCURVE",
"100 447 CURVE SMOOTH",
"120 246 LINE"
);
},
{
closed = 1;
nodes = (
"292 0 LINE",
"292 163 LINE",
"90 163 LINE",
"90 0 LINE"
);
}
);
width = 363;
}
);
note = exclam.cp;
},
{
glyphname = exclamdown.case;
layers = (
{
color = -1;
layerId = "CCCBC4F5-0E52-43D6-BD5E-05F7881D6474";
paths = (
{
closed = 1;
nodes = (
"283 0 LINE",
"283 15 LINE SMOOTH",
"283 19 OFFCURVE",
"283 28 OFFCURVE",
"282 43 CURVE SMOOTH",
"281 57 OFFCURVE",
"279 75 OFFCURVE",
"277 96 CURVE SMOOTH",
"271 165 LINE SMOOTH",
"268 190 OFFCURVE",
"266 215 OFFCURVE",
"263 241 CURVE SMOOTH",
"243 442 LINE",
"100 442 LINE",
"80 241 LINE SMOOTH",
"77 215 OFFCURVE",
"75 190 OFFCURVE",
"73 165 CURVE",
"70 140 OFFCURVE",
"68 117 OFFCURVE",
"66 96 CURVE SMOOTH",
"64 75 OFFCURVE",
"63 57 OFFCURVE",
"62 43 CURVE SMOOTH",
"60 15 LINE",
"60 0 LINE"
);
},
{
closed = 1;
nodes = (
"272 525 LINE",
"272 688 LINE",
"70 688 LINE",
"70 525 LINE"
);
}
);
width = 353;
}
);
note = exclamdown.cp;
},
{
glyphname = question.case;
layers = (
{
color = -1;
layerId = "CCCBC4F5-0E52-43D6-BD5E-05F7881D6474";
paths = (
{
closed = 1;
nodes = (
"301 246 LINE",
"301 265 LINE SMOOTH",
"301 279 OFFCURVE",
"301 290 OFFCURVE",
"302 298 CURVE",
"302 305 OFFCURVE",
"303 311 OFFCURVE",
"305 316 CURVE SMOOTH",
"308 324 OFFCURVE",
"314 327 OFFCURVE",
"329 332 CURVE SMOOTH",
"379 349 LINE SMOOTH",
"406 358 OFFCURVE",
"429 369 OFFCURVE",
"445 392 CURVE SMOOTH",
"461 415 OFFCURVE",
"471 451 OFFCURVE",
"471 510 CURVE SMOOTH",
"471 587 OFFCURVE",
"448 634 OFFCURVE",
"412 661 CURVE SMOOTH",
"375 688 OFFCURVE",
"324 695 OFFCURVE",
"271 696 CURVE",
"271 491 LINE SMOOTH",
"271 474 OFFCURVE",
"270 463 OFFCURVE",
"263 455 CURVE SMOOTH",
"256 447 OFFCURVE",
"243 442 OFFCURVE",
"219 434 CURVE SMOOTH",
"195 426 OFFCURVE",
"173 419 OFFCURVE",
"157 403 CURVE SMOOTH",
"141 386 OFFCURVE",
"131 359 OFFCURVE",
"131 311 CURVE SMOOTH",
"131 246 LINE"
);
},
{
closed = 1;
nodes = (
"318 0 LINE",
"318 163 LINE",
"116 163 LINE",
"116 0 LINE"
);
},
{
closed = 1;
nodes = (
"88 537 LINE SMOOTH",
"119 540 OFFCURVE",
"158 543 OFFCURVE",
"193 543 CURVE SMOOTH",
"213 543 LINE SMOOTH",
"218 543 OFFCURVE",
"224 543 OFFCURVE",
"229 542 CURVE",
"229 695 LINE",
"201 694 OFFCURVE",
"175 692 OFFCURVE",
"152 691 CURVE",
"105 687 OFFCURVE",
"68 682 OFFCURVE",
"35 675 CURVE",
"35 531 LINE"
);
}
);
width = 521;
}
);
note = question.cp;
},
{
glyphname = questiondown.case;
layers = (
{
color = -1;
layerId = "CCCBC4F5-0E52-43D6-BD5E-05F7881D6474";
paths = (
{
closed = 1;
nodes = (
"250 197 LINE SMOOTH",
"250 214 OFFCURVE",
"251 225 OFFCURVE",
"258 233 CURVE SMOOTH",
"265 241 OFFCURVE",
"278 246 OFFCURVE",
"302 254 CURVE SMOOTH",
"326 262 OFFCURVE",
"348 269 OFFCURVE",
"364 286 CURVE SMOOTH",
"380 302 OFFCURVE",
"390 329 OFFCURVE",
"390 377 CURVE SMOOTH",
"390 442 LINE",
"220 442 LINE",
"220 423 LINE",
"220 391 LINE",
"219 383 OFFCURVE",
"218 377 OFFCURVE",
"217 373 CURVE",
"213 364 OFFCURVE",
"205 361 OFFCURVE",
"192 356 CURVE",
"142 339 LINE SMOOTH",
"115 330 OFFCURVE",
"92 319 OFFCURVE",
"76 296 CURVE SMOOTH",
"60 273 OFFCURVE",
"50 237 OFFCURVE",
"50 178 CURVE SMOOTH",
"50 99 OFFCURVE",
"73 54 OFFCURVE",
"110 27 CURVE SMOOTH",
"146 0 OFFCURVE",
"195 -7 OFFCURVE",
"250 -8 CURVE"
);
},
{
closed = 1;
nodes = (
"347 -7 OFFCURVE",
"394 -2 OFFCURVE",
"429 2 CURVE SMOOTH",
"450 5 OFFCURVE",
"469 7 OFFCURVE",
"486 9 CURVE",
"486 153 LINE",
"468 152 OFFCURVE",
"450 150 OFFCURVE",
"432 149 CURVE",
"401 146 OFFCURVE",
"363 145 OFFCURVE",
"328 145 CURVE SMOOTH",
"309 145 LINE SMOOTH",
"303 145 OFFCURVE",
"297 145 OFFCURVE",
"292 146 CURVE",
"292 -8 LINE"
);
},
{
closed = 1;
nodes = (
"405 525 LINE",
"405 688 LINE",
"203 688 LINE",
"203 525 LINE"
);
}
);
width = 521;
}
);
note = questiondown.cp;
},
{
glyphname = periodcentered.loclCAT.case;
layers = (
{
anchors = (
{
name = _topright;
position = "{-79, 510}";
}
);
color = -1;
layerId = "CCCBC4F5-0E52-43D6-BD5E-05F7881D6474";
paths = (
{
closed = 1;
nodes = (
"266 218 LINE",
"266 381 LINE",
"64 381 LINE",
"64 218 LINE"
);
}
);
width = 600;
}
);
},
{
glyphname = periodcentered.loclCAT;
layers = (
{
anchors = (
{
name = center;
position = "{147, 329}";
}
);
color = -1;
layerId = "CCCBC4F5-0E52-43D6-BD5E-05F7881D6474";
paths = (
{
closed = 1;
nodes = (
"406 238 LINE",
"406 401 LINE",
"204 401 LINE",
"204 238 LINE"
);
}
);
width = 600;
}
);
},
{
glyphname = parenleft;
layers = (
{
color = -1;
layerId = "CCCBC4F5-0E52-43D6-BD5E-05F7881D6474";
paths = (
{
closed = 1;
nodes = (
"353 -150 LINE",
"328 -117 OFFCURVE",
"306 -89 OFFCURVE",
"289 -57 CURVE SMOOTH",
"272 -26 OFFCURVE",
"258 11 OFFCURVE",
"250 63 CURVE SMOOTH",
"241 115 OFFCURVE",
"236 184 OFFCURVE",
"235 277 CURVE",
"58 277 LINE",
"58 194 OFFCURVE",
"64 135 OFFCURVE",
"76 87 CURVE SMOOTH",
"87 38 OFFCURVE",
"105 1 OFFCURVE",
"130 -35 CURVE SMOOTH",
"155 -71 OFFCURVE",
"189 -106 OFFCURVE",
"230 -150 CURVE"
);
},
{
closed = 1;
nodes = (
"235 317 LINE",
"235 410 OFFCURVE",
"241 478 OFFCURVE",
"250 530 CURVE SMOOTH",
"258 582 OFFCURVE",
"272 619 OFFCURVE",
"289 651 CURVE SMOOTH",
"306 682 OFFCURVE",
"328 710 OFFCURVE",
"353 743 CURVE",
"230 743 LINE",
"167 682 OFFCURVE",
"125 636 OFFCURVE",
"98 576 CURVE SMOOTH",
"71 515 OFFCURVE",
"59 440 OFFCURVE",
"58 317 CURVE"
);
}
);
width = 374;
}
);
note = parenleft;
unicode = 0028;
},
{
glyphname = parenright;
layers = (
{
color = -1;
layerId = "CCCBC4F5-0E52-43D6-BD5E-05F7881D6474";
paths = (
{
closed = 1;
nodes = (
"144 -150 LINE",
"185 -106 OFFCURVE",
"218 -71 OFFCURVE",
"243 -35 CURVE SMOOTH",
"268 1 OFFCURVE",
"286 38 OFFCURVE",
"298 87 CURVE SMOOTH",
"310 135 OFFCURVE",
"316 196 OFFCURVE",
"316 277 CURVE",
"139 277 LINE",
"138 136 OFFCURVE",
"127 54 OFFCURVE",
"107 -5 CURVE SMOOTH",
"87 -64 OFFCURVE",
"58 -101 OFFCURVE",
"21 -150 CURVE"
);
},
{
closed = 1;
nodes = (
"316 317 LINE",
"315 440 OFFCURVE",
"303 515 OFFCURVE",
"276 576 CURVE SMOOTH",
"248 636 OFFCURVE",
"205 682 OFFCURVE",
"144 743 CURVE",
"21 743 LINE",
"58 694 OFFCURVE",
"87 657 OFFCURVE",
"107 598 CURVE SMOOTH",
"127 539 OFFCURVE",
"138 457 OFFCURVE",
"139 317 CURVE"
);
}
);
width = 374;
}
);
note = parenright;
unicode = 0029;
},
{
glyphname = braceleft;
layers = (
{
color = -1;
layerId = "CCCBC4F5-0E52-43D6-BD5E-05F7881D6474";
paths = (
{
closed = 1;
nodes = (
"197 315 LINE",
"249 340 OFFCURVE",
"272 385 OFFCURVE",
"272 445 CURVE SMOOTH",
"272 568 LINE SMOOTH",
"272 591 OFFCURVE",
"277 614 OFFCURVE",
"286 635 CURVE SMOOTH",
"304 678 OFFCURVE",
"326 711 OFFCURVE",
"361 743 CURVE",
"238 743 LINE",
"213 730 OFFCURVE",
"190 714 OFFCURVE",
"170 695 CURVE SMOOTH",
"135 663 OFFCURVE",
"102 615 OFFCURVE",
"102 548 CURVE SMOOTH",
"102 439 LINE SMOOTH",
"102 414 OFFCURVE",
"99 390 OFFCURVE",
"88 371 CURVE",
"76 352 OFFCURVE",
"55 339 OFFCURVE",
"22 335 CURVE",
"22 315 LINE"
);
},
{
closed = 1;
nodes = (
"361 -150 LINE",
"344 -134 OFFCURVE",
"329 -117 OFFCURVE",
"316 -98 CURVE SMOOTH",
"293 -66 OFFCURVE",
"272 -23 OFFCURVE",
"272 25 CURVE SMOOTH",
"272 148 LINE SMOOTH",
"272 207 OFFCURVE",
"250 250 OFFCURVE",
"198 275 CURVE",
"22 275 LINE",
"22 256 LINE",
"55 252 OFFCURVE",
"76 238 OFFCURVE",
"88 219 CURVE",
"99 199 OFFCURVE",
"102 175 OFFCURVE",
"102 150 CURVE SMOOTH",
"102 45 LINE SMOOTH",
"102 11 OFFCURVE",
"109 -18 OFFCURVE",
"123 -42 CURVE SMOOTH",
"151 -90 OFFCURVE",
"187 -123 OFFCURVE",
"238 -150 CURVE"
);
}
);
width = 381;
}
);
note = braceleft;
unicode = 007B;
},
{
glyphname = braceright;
layers = (
{
color = -1;
layerId = "CCCBC4F5-0E52-43D6-BD5E-05F7881D6474";
paths = (
{
closed = 1;
nodes = (
"359 315 LINE",
"359 335 LINE",
"324 339 OFFCURVE",
"305 352 OFFCURVE",
"294 371 CURVE",
"282 390 OFFCURVE",
"279 414 OFFCURVE",
"279 439 CURVE SMOOTH",
"279 548 LINE SMOOTH",
"279 581 OFFCURVE",
"272 610 OFFCURVE",
"258 635 CURVE SMOOTH",
"230 683 OFFCURVE",
"194 716 OFFCURVE",
"143 743 CURVE",
"20 743 LINE",
"37 727 OFFCURVE",
"51 710 OFFCURVE",
"64 691 CURVE SMOOTH",
"87 659 OFFCURVE",
"109 615 OFFCURVE",
"109 568 CURVE SMOOTH",
"109 445 LINE SMOOTH",
"109 385 OFFCURVE",
"132 340 OFFCURVE",
"184 315 CURVE"
);
},
{
closed = 1;
nodes = (
"143 -150 LINE",
"168 -137 OFFCURVE",
"191 -121 OFFCURVE",
"211 -102 CURVE SMOOTH",
"246 -70 OFFCURVE",
"279 -23 OFFCURVE",
"279 45 CURVE SMOOTH",
"279 150 LINE SMOOTH",
"279 175 OFFCURVE",
"282 199 OFFCURVE",
"294 219 CURVE SMOOTH",
"305 238 OFFCURVE",
"324 252 OFFCURVE",
"359 256 CURVE",
"359 275 LINE",
"183 275 LINE",
"131 250 OFFCURVE",
"109 207 OFFCURVE",
"109 148 CURVE SMOOTH",
"109 25 LINE SMOOTH",
"109 1 OFFCURVE",
"104 -21 OFFCURVE",
"95 -42 CURVE SMOOTH",
"76 -84 OFFCURVE",
"53 -118 OFFCURVE",
"20 -150 CURVE"
);
}
);
width = 381;
}
);
note = braceright;
unicode = 007D;
},
{
glyphname = bracketleft;
layers = (
{
color = -1;
layerId = "CCCBC4F5-0E52-43D6-BD5E-05F7881D6474";
paths = (
{
closed = 1;
nodes = (
"235 315 LINE",
"235 626 LINE",
"354 630 LINE",
"354 743 LINE",
"65 743 LINE",
"65 315 LINE"
);
},
{
closed = 1;
nodes = (
"354 -150 LINE",
"354 -37 LINE",
"235 -33 LINE",
"235 275 LINE",
"65 275 LINE",
"65 -150 LINE"
);
}
);
width = 399;
}
);
note = bracketleft;
unicode = 005B;
},
{
glyphname = bracketright;
layers = (
{
color = -1;
layerId = "CCCBC4F5-0E52-43D6-BD5E-05F7881D6474";
paths = (
{
closed = 1;
nodes = (
"334 315 LINE",
"334 743 LINE",
"45 743 LINE",
"45 630 LINE",
"164 626 LINE",
"164 315 LINE"
);
},
{
closed = 1;
nodes = (
"334 -150 LINE",
"334 275 LINE",
"164 275 LINE",
"164 -33 LINE",
"45 -37 LINE",
"45 -150 LINE"
);
}
);
width = 399;
}
);
note = bracketright;
unicode = 005D;
},
{
glyphname = hyphen;
layers = (
{
color = -1;
layerId = "CCCBC4F5-0E52-43D6-BD5E-05F7881D6474";
paths = (
{
closed = 1;
nodes = (
"332 210 LINE",
"332 359 LINE",
"47 359 LINE",
"47 210 LINE"
);
}
);
width = 379;
}
);
note = hyphen;
unicode = 002D;
},
{
glyphname = endash;
layers = (
{
color = -1;
layerId = "CCCBC4F5-0E52-43D6-BD5E-05F7881D6474";
paths = (
{
closed = 1;
nodes = (
"440 238 LINE",
"440 371 LINE",
"40 371 LINE",
"40 238 LINE"
);
}
);
width = 480;
}
);
note = endash;
unicode = 2013;
},
{
glyphname = emdash;
layers = (
{
color = -1;
layerId = "CCCBC4F5-0E52-43D6-BD5E-05F7881D6474";
paths = (
{
closed = 1;
nodes = (
"840 238 LINE",
"840 371 LINE",
"40 371 LINE",
"40 238 LINE"
);
}
);
width = 880;
}
);
note = emdash;
unicode = 2014;
},
{
glyphname = underscore;
layers = (
{
color = -1;
layerId = "CCCBC4F5-0E52-43D6-BD5E-05F7881D6474";
paths = (
{
closed = 1;
nodes = (
"400 -190 LINE",
"400 -57 LINE",
"0 -57 LINE",
"0 -190 LINE"
);
}
);
width = 400;
}
);
note = underscore;
unicode = 005F;
},
{
glyphname = quotesinglbase;
layers = (
{
color = -1;
layerId = "CCCBC4F5-0E52-43D6-BD5E-05F7881D6474";
paths = (
{
closed = 1;
nodes = (
"150 -148 OFFCURVE",
"199 -137 OFFCURVE",
"225 -109 CURVE SMOOTH",
"251 -81 OFFCURVE",
"255 -35 OFFCURVE",
"255 37 CURVE SMOOTH",
"255 153 LINE",
"65 153 LINE",
"65 0 LINE",
"137 0 LINE",
"137 -13 LINE SMOOTH",
"137 -37 OFFCURVE",
"135 -54 OFFCURVE",
"125 -64 CURVE SMOOTH",
"115 -74 OFFCURVE",
"97 -79 OFFCURVE",
"65 -79 CURVE",
"65 -148 LINE"
);
}
);
width = 320;
}
);
leftKerningGroup = period;
note = quotesinglbase;
unicode = 201A;
},
{
glyphname = quotedblbase;
layers = (
{
color = -1;
layerId = "CCCBC4F5-0E52-43D6-BD5E-05F7881D6474";
paths = (
{
closed = 1;
nodes = (
"395 -148 OFFCURVE",
"444 -137 OFFCURVE",
"470 -109 CURVE SMOOTH",
"496 -81 OFFCURVE",
"500 -35 OFFCURVE",
"500 37 CURVE SMOOTH",
"500 153 LINE",
"310 153 LINE",
"310 0 LINE",
"382 0 LINE",
"382 -13 LINE SMOOTH",
"382 -37 OFFCURVE",
"380 -54 OFFCURVE",
"370 -64 CURVE SMOOTH",
"360 -74 OFFCURVE",
"342 -79 OFFCURVE",
"310 -79 CURVE",
"310 -148 LINE"
);
},
{
closed = 1;
nodes = (
"150 -148 OFFCURVE",
"199 -137 OFFCURVE",
"225 -109 CURVE SMOOTH",
"251 -81 OFFCURVE",
"255 -35 OFFCURVE",
"255 37 CURVE SMOOTH",
"255 153 LINE",
"65 153 LINE",
"65 0 LINE",
"137 0 LINE",
"137 -13 LINE SMOOTH",
"137 -37 OFFCURVE",
"135 -54 OFFCURVE",
"125 -64 CURVE SMOOTH",
"115 -74 OFFCURVE",
"97 -79 OFFCURVE",
"65 -79 CURVE",
"65 -148 LINE"
);
}
);
width = 565;
}
);
leftKerningGroup = period;
note = quotedblbase;
unicode = 201E;
},
{
glyphname = quotedblleft;
layers = (
{
color = -1;
layerId = "CCCBC4F5-0E52-43D6-BD5E-05F7881D6474";
paths = (
{
closed = 1;
nodes = (
"500 387 LINE",
"500 540 LINE",
"428 540 LINE",
"428 553 LINE SMOOTH",
"428 577 OFFCURVE",
"430 595 OFFCURVE",
"440 605 CURVE SMOOTH",
"450 615 OFFCURVE",
"468 619 OFFCURVE",
"500 619 CURVE",
"500 688 LINE",
"415 688 OFFCURVE",
"367 677 OFFCURVE",
"341 649 CURVE SMOOTH",
"315 621 OFFCURVE",
"310 575 OFFCURVE",
"310 503 CURVE SMOOTH",
"310 387 LINE"
);
},
{
closed = 1;
nodes = (
"255 387 LINE",
"255 540 LINE",
"183 540 LINE",
"183 553 LINE SMOOTH",
"183 577 OFFCURVE",
"185 595 OFFCURVE",
"195 605 CURVE SMOOTH",
"205 615 OFFCURVE",
"223 619 OFFCURVE",
"255 619 CURVE",
"255 688 LINE",
"170 688 OFFCURVE",
"122 677 OFFCURVE",
"96 649 CURVE SMOOTH",
"70 621 OFFCURVE",
"65 575 OFFCURVE",
"65 503 CURVE SMOOTH",
"65 387 LINE"
);
}
);
width = 565;
}
);
note = quotedblleft;
rightKerningGroup = quoteleft;
unicode = 201C;
},
{
glyphname = quotedblright;
layers = (
{
color = -1;
layerId = "CCCBC4F5-0E52-43D6-BD5E-05F7881D6474";
paths = (
{
closed = 1;
nodes = (
"395 387 OFFCURVE",
"444 398 OFFCURVE",
"470 426 CURVE SMOOTH",
"496 454 OFFCURVE",
"500 500 OFFCURVE",
"500 572 CURVE SMOOTH",
"500 688 LINE",
"310 688 LINE",
"310 535 LINE",
"382 535 LINE",
"382 522 LINE SMOOTH",
"382 498 OFFCURVE",
"380 481 OFFCURVE",
"370 471 CURVE SMOOTH",
"360 461 OFFCURVE",
"342 456 OFFCURVE",
"310 456 CURVE",
"310 387 LINE"
);
},
{
closed = 1;
nodes = (
"150 387 OFFCURVE",
"199 398 OFFCURVE",
"225 426 CURVE SMOOTH",
"251 454 OFFCURVE",
"255 500 OFFCURVE",
"255 572 CURVE SMOOTH",
"255 688 LINE",
"65 688 LINE",
"65 535 LINE",
"137 535 LINE",
"137 522 LINE SMOOTH",
"137 498 OFFCURVE",
"135 481 OFFCURVE",
"125 471 CURVE SMOOTH",
"115 461 OFFCURVE",
"97 456 OFFCURVE",
"65 456 CURVE",
"65 387 LINE"
);
}
);
width = 565;
}
);
leftKerningGroup = quoteright;
note = quotedblright;
rightKerningGroup = quoteright;
unicode = 201D;
},
{
glyphname = quoteleft;
layers = (
{
color = -1;
layerId = "CCCBC4F5-0E52-43D6-BD5E-05F7881D6474";
paths = (
{
closed = 1;
nodes = (
"255 387 LINE",
"255 540 LINE",
"183 540 LINE",
"183 553 LINE SMOOTH",
"183 577 OFFCURVE",
"185 595 OFFCURVE",
"195 605 CURVE SMOOTH",
"205 615 OFFCURVE",
"223 619 OFFCURVE",
"255 619 CURVE",
"255 688 LINE",
"170 688 OFFCURVE",
"122 677 OFFCURVE",
"96 649 CURVE SMOOTH",
"70 621 OFFCURVE",
"65 575 OFFCURVE",
"65 503 CURVE SMOOTH",
"65 387 LINE"
);
}
);
width = 320;
}
);
note = quoteleft;
rightKerningGroup = quoteleft;
unicode = 2018;
},
{
glyphname = quoteright;
layers = (
{
color = -1;
layerId = "CCCBC4F5-0E52-43D6-BD5E-05F7881D6474";
paths = (
{
closed = 1;
nodes = (
"150 387 OFFCURVE",
"199 398 OFFCURVE",
"225 426 CURVE SMOOTH",
"251 454 OFFCURVE",
"255 500 OFFCURVE",
"255 572 CURVE SMOOTH",
"255 688 LINE",
"65 688 LINE",
"65 535 LINE",
"137 535 LINE",
"137 522 LINE SMOOTH",
"137 498 OFFCURVE",
"135 481 OFFCURVE",
"125 471 CURVE SMOOTH",
"115 461 OFFCURVE",
"97 456 OFFCURVE",
"65 456 CURVE",
"65 387 LINE"
);
}
);
width = 320;
}
);
leftKerningGroup = quoteright;
note = quoteright;
rightKerningGroup = quoteright;
unicode = 2019;
},
{
glyphname = apostrophe;
layers = (
{
anchors = (
{
name = _top;
position = "{283, 510}";
}
);
color = -1;
layerId = "CCCBC4F5-0E52-43D6-BD5E-05F7881D6474";
paths = (
{
closed = 1;
nodes = (
"156 538 OFFCURVE",
"201 548 OFFCURVE",
"227 576 CURVE SMOOTH",
"252 603 OFFCURVE",
"257 648 OFFCURVE",
"257 717 CURVE SMOOTH",
"257 828 LINE",
"73 828 LINE",
"73 680 LINE",
"139 680 LINE",
"139 667 LINE SMOOTH",
"139 642 OFFCURVE",
"137 628 OFFCURVE",
"128 618 CURVE SMOOTH",
"119 608 OFFCURVE",
"102 604 OFFCURVE",
"73 604 CURVE",
"73 538 LINE"
);
}
);
width = 330;
}
);
},
{
glyphname = guillemetleft;
layers = (
{
color = -1;
layerId = "CCCBC4F5-0E52-43D6-BD5E-05F7881D6474";
paths = (
{
closed = 1;
nodes = (
"470 99 LINE",
"369 304 LINE",
"470 510 LINE",
"349 510 LINE",
"217 304 LINE",
"349 99 LINE"
);
},
{
closed = 1;
nodes = (
"267 99 LINE",
"166 304 LINE",
"267 510 LINE",
"146 510 LINE",
"14 304 LINE",
"146 99 LINE"
);
}
);
width = 515;
}
);
note = guillemotleft;
unicode = 00AB;
},
{
glyphname = guillemetright;
layers = (
{
color = -1;
layerId = "CCCBC4F5-0E52-43D6-BD5E-05F7881D6474";
paths = (
{
closed = 1;
nodes = (
"369 99 LINE",
"501 304 LINE",
"369 510 LINE",
"248 510 LINE",
"349 304 LINE",
"248 99 LINE"
);
},
{
closed = 1;
nodes = (
"166 99 LINE",
"298 304 LINE",
"166 510 LINE",
"45 510 LINE",
"146 304 LINE",
"45 99 LINE"
);
}
);
width = 515;
}
);
note = guillemotright;
unicode = 00BB;
},
{
glyphname = guilsinglleft;
layers = (
{
color = -1;
layerId = "CCCBC4F5-0E52-43D6-BD5E-05F7881D6474";
paths = (
{
closed = 1;
nodes = (
"267 99 LINE",
"166 304 LINE",
"267 510 LINE",
"146 510 LINE",
"14 304 LINE",
"146 99 LINE"
);
}
);
width = 312;
}
);
note = guilsinglleft;
unicode = 2039;
},
{
glyphname = guilsinglright;
layers = (
{
color = -1;
layerId = "CCCBC4F5-0E52-43D6-BD5E-05F7881D6474";
paths = (
{
closed = 1;
nodes = (
"166 99 LINE",
"298 304 LINE",
"166 510 LINE",
"45 510 LINE",
"146 304 LINE",
"45 99 LINE"
);
}
);
width = 312;
}
);
note = guilsinglright;
unicode = 203A;
},
{
glyphname = quotedbl;
layers = (
{
color = -1;
layerId = "CCCBC4F5-0E52-43D6-BD5E-05F7881D6474";
paths = (
{
closed = 1;
nodes = (
"440 424 LINE",
"460 639 LINE",
"460 688 LINE",
"290 688 LINE",
"290 639 LINE",
"310 424 LINE"
);
},
{
closed = 1;
nodes = (
"215 424 LINE",
"235 639 LINE",
"235 688 LINE",
"65 688 LINE",
"65 639 LINE",
"85 424 LINE"
);
}
);
width = 525;
}
);
note = quotedbl;
unicode = 0022;
},
{
glyphname = quotesingle;
layers = (
{
color = -1;
layerId = "CCCBC4F5-0E52-43D6-BD5E-05F7881D6474";
paths = (
{
closed = 1;
nodes = (
"215 424 LINE",
"235 639 LINE",
"235 688 LINE",
"65 688 LINE",
"65 639 LINE",
"85 424 LINE"
);
}
);
width = 300;
}
);
note = quotesingle;
unicode = 0027;
},
{
glyphname = "leftanglebracket-math";
layers = (
{
color = -1;
layerId = "CCCBC4F5-0E52-43D6-BD5E-05F7881D6474";
paths = (
{
closed = 1;
nodes = (
"458 -131 LINE",
"207 274 LINE",
"458 680 LINE",
"337 680 LINE",
"55 274 LINE",
"337 -131 LINE"
);
}
);
width = 513;
}
);
unicode = 27E8;
},
{
glyphname = .notdef;
layers = (
{
color = -1;
layerId = "CCCBC4F5-0E52-43D6-BD5E-05F7881D6474";
paths = (
{
closed = 1;
nodes = (
"500 0 LINE",
"500 700 LINE",
"0 700 LINE",
"0 0 LINE"
);
},
{
closed = 1;
nodes = (
"285 99 LINE",
"285 169 LINE",
"225 169 LINE",
"225 99 LINE"
);
},
{
closed = 1;
nodes = (
"50 650 LINE",
"450 650 LINE",
"450 50 LINE",
"50 50 LINE"
);
},
{
closed = 1;
nodes = (
"282 215 LINE",
"282 268 LINE SMOOTH",
"282 301 OFFCURVE",
"303 319 OFFCURVE",
"326 338 CURVE SMOOTH",
"341 351 OFFCURVE",
"358 367 OFFCURVE",
"371 388 CURVE SMOOTH",
"383 408 OFFCURVE",
"393 434 OFFCURVE",
"393 467 CURVE",
"391 493 LINE",
"389 508 OFFCURVE",
"383 523 OFFCURVE",
"374 539 CURVE SMOOTH",
"355 571 OFFCURVE",
"319 602 OFFCURVE",
"250 602 CURVE SMOOTH",
"179 602 OFFCURVE",
"142 572 OFFCURVE",
"122 538 CURVE SMOOTH",
"102 504 OFFCURVE",
"99 467 OFFCURVE",
"99 455 CURVE SMOOTH",
"99 450 OFFCURVE",
"99 446 OFFCURVE",
"100 443 CURVE",
"100 436 OFFCURVE",
"102 429 OFFCURVE",
"103 424 CURVE",
"152 424 LINE",
"152 452 LINE SMOOTH",
"152 464 OFFCURVE",
"154 489 OFFCURVE",
"167 511 CURVE SMOOTH",
"180 533 OFFCURVE",
"205 552 OFFCURVE",
"250 552 CURVE SMOOTH",
"289 552 OFFCURVE",
"311 538 OFFCURVE",
"324 519 CURVE",
"336 500 OFFCURVE",
"339 478 OFFCURVE",
"339 465 CURVE SMOOTH",
"339 414 OFFCURVE",
"311 390 OFFCURVE",
"283 367 CURVE SMOOTH",
"255 344 OFFCURVE",
"229 321 OFFCURVE",
"229 278 CURVE SMOOTH",
"229 215 LINE"
);
}
);
width = 500;
}
);
note = .notdef;
},
{
glyphname = cedi;
layers = (
{
color = -1;
layerId = "CCCBC4F5-0E52-43D6-BD5E-05F7881D6474";
paths = (
{
closed = 1;
nodes = (
"313 68 OFFCURVE",
"363 74 OFFCURVE",
"424 86 CURVE",
"424 219 LINE",
"394 215 OFFCURVE",
"350 211 OFFCURVE",
"319 211 CURVE SMOOTH",
"241 211 OFFCURVE",
"234 220 OFFCURVE",
"234 404 CURVE SMOOTH",
"234 614 LINE",
"91 606 OFFCURVE",
"45 548 OFFCURVE",
"45 341 CURVE SMOOTH",
"45 150 OFFCURVE",
"75 68 OFFCURVE",
"266 68 CURVE SMOOTH"
);
},
{
closed = 1;
nodes = (
"191 -8 LINE",
"237 163 LINE",
"189 163 LINE",
"143 -7 LINE",
"144 -8 LINE"
);
},
{
closed = 1;
nodes = (
"420 599 LINE",
"378 609 OFFCURVE",
"349 613 OFFCURVE",
"311 614 CURVE",
"271 468 LINE",
"283 472 OFFCURVE",
"298 473 OFFCURVE",
"318 473 CURVE SMOOTH",
"353 473 OFFCURVE",
"396 470 OFFCURVE",
"420 466 CURVE"
);
},
{
closed = 1;
nodes = (
"330 507 LINE",
"381 696 LINE",
"333 696 LINE",
"282 507 LINE"
);
}
);
width = 469;
}
);
unicode = 20B5;
},
{
glyphname = cent;
layers = (
{
color = -1;
layerId = "CCCBC4F5-0E52-43D6-BD5E-05F7881D6474";
paths = (
{
closed = 1;
nodes = (
"237 -8 LINE",
"237 696 LINE",
"190 696 LINE",
"190 612 LINE",
"119 597 OFFCURVE",
"84 563 OFFCURVE",
"65 516 CURVE SMOOTH",
"46 468 OFFCURVE",
"45 407 OFFCURVE",
"45 342 CURVE SMOOTH",
"45 275 OFFCURVE",
"46 216 OFFCURVE",
"65 169 CURVE SMOOTH",
"84 122 OFFCURVE",
"119 87 OFFCURVE",
"190 74 CURVE",
"190 -8 LINE"
);
},
{
closed = 1;
nodes = (
"326 -8 LINE",
"326 69 LINE",
"365 72 OFFCURVE",
"397 79 OFFCURVE",
"424 86 CURVE",
"424 222 LINE",
"414 221 OFFCURVE",
"403 219 OFFCURVE",
"392 218 CURVE",
"373 215 OFFCURVE",
"347 215 OFFCURVE",
"322 215 CURVE SMOOTH",
"304 215 OFFCURVE",
"290 216 OFFCURVE",
"279 218 CURVE",
"279 -8 LINE"
);
},
{
closed = 1;
nodes = (
"420 600 LINE",
"393 607 OFFCURVE",
"365 613 OFFCURVE",
"326 616 CURVE",
"326 696 LINE",
"279 696 LINE",
"279 467 LINE",
"289 470 OFFCURVE",
"303 471 OFFCURVE",
"322 471 CURVE SMOOTH",
"347 471 OFFCURVE",
"371 470 OFFCURVE",
"390 467 CURVE",
"420 464 LINE"
);
}
);
width = 469;
}
);
note = cent;
unicode = 00A2;
},
{
glyphname = colonsign;
layers = (
{
background = {
paths = (
{
closed = 1;
nodes = (
"235 -8 LINE",
"188 -8 LINE",
"188 74 LINE",
"117 87 OFFCURVE",
"82 122 OFFCURVE",
"63 169 CURVE SMOOTH",
"44 216 OFFCURVE",
"43 275 OFFCURVE",
"43 342 CURVE SMOOTH",
"43 407 OFFCURVE",
"44 468 OFFCURVE",
"63 516 CURVE SMOOTH",
"82 563 OFFCURVE",
"117 597 OFFCURVE",
"188 612 CURVE",
"188 696 LINE",
"235 696 LINE"
);
},
{
closed = 1;
nodes = (
"418 464 LINE",
"388 467 LINE",
"369 470 OFFCURVE",
"345 471 OFFCURVE",
"320 471 CURVE SMOOTH",
"301 471 OFFCURVE",
"287 470 OFFCURVE",
"277 467 CURVE",
"277 696 LINE",
"324 696 LINE",
"324 616 LINE",
"363 613 OFFCURVE",
"391 607 OFFCURVE",
"418 600 CURVE"
);
},
{
closed = 1;
nodes = (
"324 -8 LINE",
"277 -8 LINE",
"277 218 LINE",
"288 216 OFFCURVE",
"302 215 OFFCURVE",
"320 215 CURVE SMOOTH",
"345 215 OFFCURVE",
"371 215 OFFCURVE",
"390 218 CURVE",
"401 219 OFFCURVE",
"412 221 OFFCURVE",
"422 222 CURVE",
"422 86 LINE",
"395 79 OFFCURVE",
"363 72 OFFCURVE",
"324 69 CURVE"
);
}
);
};
color = -1;
layerId = "CCCBC4F5-0E52-43D6-BD5E-05F7881D6474";
paths = (
{
closed = 1;
nodes = (
"120 -8 LINE",
"310 696 LINE",
"262 696 LINE",
"241 617 LINE",
"68 607 OFFCURVE",
"45 533 OFFCURVE",
"45 333 CURVE SMOOTH",
"45 211 OFFCURVE",
"54 136 OFFCURVE",
"99 95 CURVE",
"72 -7 LINE",
"73 -8 LINE"
);
},
{
closed = 1;
nodes = (
"206 -8 LINE",
"223 54 LINE",
"247 51 OFFCURVE",
"264 49 OFFCURVE",
"296 49 CURVE SMOOTH",
"347 49 OFFCURVE",
"400 55 OFFCURVE",
"437 62 CURVE",
"437 182 LINE",
"406 177 OFFCURVE",
"370 174 OFFCURVE",
"336 174 CURVE SMOOTH",
"259 174 OFFCURVE",
"234 182 OFFCURVE",
"229 255 CURVE",
"159 -7 LINE",
"159 -8 LINE"
);
},
{
closed = 1;
nodes = (
"433 603 LINE",
"414 608 OFFCURVE",
"404 612 OFFCURVE",
"375 615 CURVE",
"396 696 LINE",
"349 696 LINE",
"294 491 LINE",
"307 492 OFFCURVE",
"317 492 OFFCURVE",
"336 492 CURVE SMOOTH",
"354 492 OFFCURVE",
"376 491 OFFCURVE",
"433 486 CURVE"
);
}
);
width = 482;
}
);
unicode = 20A1;
},
{
glyphname = currency;
layers = (
{
color = -1;
layerId = "CCCBC4F5-0E52-43D6-BD5E-05F7881D6474";
paths = (
{
closed = 1;
nodes = (
"363 72 LINE",
"363 199 LINE",
"342 199 OFFCURVE",
"323 200 OFFCURVE",
"312 202 CURVE",
"289 206 OFFCURVE",
"282 226 OFFCURVE",
"280 270 CURVE SMOOTH",
"279 293 OFFCURVE",
"278 303 OFFCURVE",
"278 344 CURVE SMOOTH",
"278 612 LINE",
"195 603 OFFCURVE",
"132 581 OFFCURVE",
"111 535 CURVE SMOOTH",
"90 489 OFFCURVE",
"89 421 OFFCURVE",
"88.923 343.886 CURVE SMOOTH",
"89 270 OFFCURVE",
"89 233 OFFCURVE",
"99 190 CURVE SMOOTH",
"109 147 OFFCURVE",
"128 117 OFFCURVE",
"165 99 CURVE SMOOTH",
"202 81 OFFCURVE",
"257 72 OFFCURVE",
"339 72 CURVE SMOOTH"
);
},
{
closed = 1;
nodes = (
"231 103 LINE",
"127 182 LINE",
"38 93 LINE",
"130 0 LINE"
);
},
{
closed = 1;
nodes = (
"644 94 LINE",
"559 179 LINE",
"450 100 LINE",
"550 -1 LINE"
);
},
{
closed = 1;
nodes = (
"229 590 LINE",
"130 689 LINE",
"37 595 LINE",
"108 523 LINE"
);
},
{
closed = 1;
nodes = (
"483 83 OFFCURVE",
"545 107 OFFCURVE",
"567 153 CURVE SMOOTH",
"588 198 OFFCURVE",
"589 267 OFFCURVE",
"589.13 343.886 CURVE SMOOTH",
"589 434 OFFCURVE",
"588 509 OFFCURVE",
"557 553 CURVE SMOOTH",
"525 598 OFFCURVE",
"462 615 OFFCURVE",
"339 615 CURVE SMOOTH",
"315 615 LINE",
"315 489 LINE",
"336 489 OFFCURVE",
"355 488 OFFCURVE",
"366 486 CURVE SMOOTH",
"389 482 OFFCURVE",
"399 463 OFFCURVE",
"399 418 CURVE SMOOTH",
"399 396 OFFCURVE",
"400 384 OFFCURVE",
"400 344 CURVE SMOOTH",
"400 76 LINE"
);
},
{
closed = 1;
nodes = (
"644 596 LINE",
"552 689 LINE",
"458 595 LINE",
"558 510 LINE"
);
}
);
width = 681;
}
);
unicode = 00A4;
},
{
glyphname = dollar;
layers = (
{
color = -1;
layerId = "CCCBC4F5-0E52-43D6-BD5E-05F7881D6474";
paths = (
{
closed = 1;
nodes = (
"339 -8 LINE",
"339 71 LINE",
"384 75 OFFCURVE",
"422 87 OFFCURVE",
"450 113 CURVE SMOOTH",
"477 139 OFFCURVE",
"493 181 OFFCURVE",
"493 246 CURVE SMOOTH",
"493 314 OFFCURVE",
"482 352 OFFCURVE",
"463 375 CURVE SMOOTH",
"443 398 OFFCURVE",
"415 405 OFFCURVE",
"382 409 CURVE SMOOTH",
"257 426 LINE SMOOTH",
"226 430 OFFCURVE",
"227 434 OFFCURVE",
"227 454 CURVE SMOOTH",
"227 469 OFFCURVE",
"231 473 OFFCURVE",
"250 476 CURVE",
"250 696 LINE",
"203 696 LINE",
"203 616 LINE",
"156 611 OFFCURVE",
"118 599 OFFCURVE",
"90 575 CURVE SMOOTH",
"62 551 OFFCURVE",
"46 513 OFFCURVE",
"46 456 CURVE SMOOTH",
"46 407 OFFCURVE",
"50 368 OFFCURVE",
"67 338 CURVE SMOOTH",
"84 308 OFFCURVE",
"116 289 OFFCURVE",
"172 281 CURVE SMOOTH",
"285 266 LINE SMOOTH",
"306 263 OFFCURVE",
"312 262 OFFCURVE",
"312 239 CURVE SMOOTH",
"312 224 OFFCURVE",
"311 217 OFFCURVE",
"292 214 CURVE",
"292 -8 LINE"
);
},
{
closed = 1;
nodes = (
"250 -8 LINE",
"250 212 LINE",
"232 212 LINE SMOOTH",
"214 212 OFFCURVE",
"195 213 OFFCURVE",
"175 214 CURVE SMOOTH",
"135 216 OFFCURVE",
"100 219 OFFCURVE",
"63 223 CURVE",
"63 89 LINE",
"74 87 OFFCURVE",
"87 85 OFFCURVE",
"102 82 CURVE",
"127 78 OFFCURVE",
"162 74 OFFCURVE",
"203 71 CURVE",
"203 -8 LINE"
);
},
{
closed = 1;
nodes = (
"464 599 LINE",
"454 601 OFFCURVE",
"443 603 OFFCURVE",
"431 606 CURVE",
"408 610 OFFCURVE",
"378 614 OFFCURVE",
"339 617 CURVE",
"339 696 LINE",
"292 696 LINE",
"292 477 LINE",
"305 477 LINE SMOOTH",
"322 477 OFFCURVE",
"340 476 OFFCURVE",
"359 475 CURVE SMOOTH",
"397 472 OFFCURVE",
"428 469 OFFCURVE",
"464 465 CURVE"
);
}
);
width = 539;
}
);
note = dollar;
unicode = 0024;
},
{
glyphname = dong;
layers = (
{
color = -1;
components = (
{
name = dcroat;
}
);
layerId = "CCCBC4F5-0E52-43D6-BD5E-05F7881D6474";
paths = (
{
closed = 1;
nodes = (
"522 -149 LINE",
"522 -62 LINE",
"61 -62 LINE",
"61 -149 LINE"
);
}
);
width = 578;
}
);
unicode = 20AB;
},
{
glyphname = euro;
layers = (
{
color = -1;
layerId = "CCCBC4F5-0E52-43D6-BD5E-05F7881D6474";
paths = (
{
closed = 1;
nodes = (
"414 -8 OFFCURVE",
"438 -7 OFFCURVE",
"461 -5 CURVE SMOOTH",
"505 -2 OFFCURVE",
"538 3 OFFCURVE",
"569 10 CURVE",
"569 155 LINE",
"557 153 OFFCURVE",
"544 151 OFFCURVE",
"531 150 CURVE",
"507 147 OFFCURVE",
"475 145 OFFCURVE",
"438 145 CURVE SMOOTH",
"387 145 OFFCURVE",
"356 147 OFFCURVE",
"336 159 CURVE",
"315 170 OFFCURVE",
"306 191 OFFCURVE",
"302 228 CURVE",
"516 228 LINE",
"516 325 LINE",
"30 325 LINE",
"30 228 LINE",
"100 228 LINE",
"108 140 OFFCURVE",
"127 81 OFFCURVE",
"171 44 CURVE SMOOTH",
"215 7 OFFCURVE",
"283 -8 OFFCURVE",
"388 -8 CURVE SMOOTH"
);
},
{
closed = 1;
nodes = (
"516 365 LINE",
"516 462 LINE",
"303 462 LINE",
"307 498 OFFCURVE",
"316 518 OFFCURVE",
"337 530 CURVE SMOOTH",
"357 541 OFFCURVE",
"389 543 OFFCURVE",
"438 543 CURVE SMOOTH",
"459 543 OFFCURVE",
"490 541 OFFCURVE",
"517 538 CURVE SMOOTH",
"532 536 OFFCURVE",
"548 534 OFFCURVE",
"565 533 CURVE",
"565 676 LINE",
"550 680 OFFCURVE",
"534 683 OFFCURVE",
"516 686 CURVE SMOOTH",
"485 691 OFFCURVE",
"440 696 OFFCURVE",
"388 696 CURVE SMOOTH",
"284 696 OFFCURVE",
"215 681 OFFCURVE",
"171 645 CURVE SMOOTH",
"127 608 OFFCURVE",
"108 549 OFFCURVE",
"100 462 CURVE",
"30 462 LINE",
"30 365 LINE"
);
}
);
width = 607;
}
);
note = Euro;
unicode = 20AC;
},
{
glyphname = florin;
layers = (
{
color = -1;
layerId = "CCCBC4F5-0E52-43D6-BD5E-05F7881D6474";
paths = (
{
closed = 1;
nodes = (
"37 -197 OFFCURVE",
"115 -196 OFFCURVE",
"164 -170 CURVE SMOOTH",
"213 -144 OFFCURVE",
"236 -94 OFFCURVE",
"257 5 CURVE SMOOTH",
"326 329 LINE",
"140 329 LINE",
"69 -9 LINE SMOOTH",
"66 -24 OFFCURVE",
"62 -35 OFFCURVE",
"59 -43 CURVE",
"51 -59 OFFCURVE",
"35 -67 OFFCURVE",
"3 -68 CURVE SMOOTH",
"-14 -69 OFFCURVE",
"-36 -69 OFFCURVE",
"-65 -69 CURVE",
"-92 -197 LINE"
);
},
{
closed = 1;
nodes = (
"456 369 LINE",
"486 510 LINE",
"364 510 LINE",
"373 554 LINE SMOOTH",
"376 569 OFFCURVE",
"380 580 OFFCURVE",
"384 588 CURVE",
"391 604 OFFCURVE",
"407 612 OFFCURVE",
"440 613 CURVE SMOOTH",
"456 614 OFFCURVE",
"479 614 OFFCURVE",
"508 614 CURVE",
"535 742 LINE",
"448 742 OFFCURVE",
"385 742 OFFCURVE",
"338 734 CURVE SMOOTH",
"291 726 OFFCURVE",
"260 711 OFFCURVE",
"237 681 CURVE SMOOTH",
"213 651 OFFCURVE",
"198 605 OFFCURVE",
"185 540 CURVE SMOOTH",
"179 510 LINE",
"85 510 LINE",
"55 369 LINE"
);
}
);
width = 545;
}
);
note = florin;
unicode = 0192;
},
{
glyphname = franc;
layers = (
{
color = -1;
layerId = "CCCBC4F5-0E52-43D6-BD5E-05F7881D6474";
paths = (
{
closed = 1;
nodes = (
"265 0 LINE",
"265 688 LINE",
"65 688 LINE",
"65 0 LINE"
);
},
{
closed = 1;
nodes = (
"74 101 LINE",
"74 164 LINE",
"0 164 LINE",
"0 101 LINE"
);
},
{
closed = 1;
nodes = (
"464 101 LINE",
"464 164 LINE",
"307 164 LINE",
"307 101 LINE"
);
},
{
closed = 1;
nodes = (
"504 251 LINE",
"504 404 LINE",
"307 404 LINE",
"307 251 LINE"
);
},
{
closed = 1;
nodes = (
"541 535 LINE",
"541 688 LINE",
"307 688 LINE",
"307 535 LINE"
);
}
);
width = 576;
}
);
unicode = 20A3;
},
{
glyphname = guarani;
layers = (
{
color = -1;
layerId = "CCCBC4F5-0E52-43D6-BD5E-05F7881D6474";
paths = (
{
closed = 1;
nodes = (
"298 -8 LINE",
"298 222 LINE",
"257 224 OFFCURVE",
"251 240 OFFCURVE",
"251 344 CURVE SMOOTH",
"251 433 OFFCURVE",
"254 459 OFFCURVE",
"297 468 CURVE",
"297 696 LINE",
"249 696 LINE",
"249 614 LINE",
"87 600 OFFCURVE",
"48 532 OFFCURVE",
"48 344 CURVE SMOOTH",
"48 156 OFFCURVE",
"78 88 OFFCURVE",
"249 75 CURVE",
"249 -8 LINE"
);
},
{
closed = 1;
nodes = (
"387 -8 LINE",
"387 74 LINE",
"561 85 OFFCURVE",
"568 149 OFFCURVE",
"568 283 CURVE SMOOTH",
"568 393 LINE",
"313 393 LINE",
"313 289 LINE",
"369 289 LINE",
"369 273 LINE SMOOTH",
"369 233 OFFCURVE",
"368 224 OFFCURVE",
"339 223 CURVE",
"339 -8 LINE"
);
},
{
closed = 1;
nodes = (
"541 594 LINE",
"497 603 OFFCURVE",
"440 611 OFFCURVE",
"387 615 CURVE",
"387 696 LINE",
"340 696 LINE",
"340 471 LINE",
"349 471 OFFCURVE",
"360 471 OFFCURVE",
"372 471 CURVE SMOOTH",
"405 471 OFFCURVE",
"470 466 OFFCURVE",
"541 458 CURVE"
);
}
);
width = 620;
}
);
unicode = 20B2;
},
{
glyphname = kip;
layers = (
{
color = -1;
layerId = "CCCBC4F5-0E52-43D6-BD5E-05F7881D6474";
paths = (
{
closed = 1;
nodes = (
"686 0 LINE",
"446 364 LINE",
"683 688 LINE",
"465 688 LINE",
"307 456 LINE",
"307 241 LINE",
"462 0 LINE"
);
},
{
closed = 1;
nodes = (
"145 290 LINE",
"145 409 LINE",
"5 409 LINE",
"5 290 LINE"
);
},
{
closed = 1;
nodes = (
"265 0 LINE",
"265 688 LINE",
"65 688 LINE",
"65 0 LINE"
);
},
{
closed = 1;
nodes = (
"666 290 LINE",
"666 409 LINE",
"407 409 LINE",
"407 290 LINE"
);
}
);
width = 683;
}
);
unicode = 20AD;
},
{
glyphname = lira;
layers = (
{
color = -1;
layerId = "CCCBC4F5-0E52-43D6-BD5E-05F7881D6474";
paths = (
{
closed = 1;
nodes = (
"569 0 LINE",
"569 154 LINE",
"321 154 LINE",
"321 228 LINE",
"482 228 LINE",
"482 325 LINE",
"41 325 LINE",
"41 228 LINE",
"115 228 LINE",
"115 154 LINE",
"41 154 LINE",
"41 0 LINE"
);
},
{
closed = 1;
nodes = (
"482 366 LINE",
"482 462 LINE",
"322 462 LINE",
"325 494 OFFCURVE",
"332 515 OFFCURVE",
"350 528 CURVE",
"365 540 OFFCURVE",
"394 542 OFFCURVE",
"441 542 CURVE SMOOTH",
"464 542 OFFCURVE",
"516 538 OFFCURVE",
"558 533 CURVE",
"558 678 LINE",
"519 688 OFFCURVE",
"448 696 OFFCURVE",
"392 696 CURVE SMOOTH",
"184 696 OFFCURVE",
"124 631 OFFCURVE",
"117 462 CURVE",
"41 462 LINE",
"41 366 LINE"
);
}
);
width = 608;
}
);
unicode = 20A4;
},
{
glyphname = liraTurkish;
layers = (
{
color = -1;
layerId = "CCCBC4F5-0E52-43D6-BD5E-05F7881D6474";
paths = (
{
closed = 1;
nodes = (
"391 526 LINE",
"391 583 LINE",
"10 364 LINE",
"10 306 LINE"
);
},
{
closed = 1;
nodes = (
"275 0 LINE",
"275 401 LINE",
"75 286 LINE",
"75 0 LINE"
);
},
{
closed = 1;
nodes = (
"391 411 LINE",
"391 468 LINE",
"10 249 LINE",
"10 191 LINE"
);
},
{
closed = 1;
nodes = (
"431 -2 OFFCURVE",
"497 23 OFFCURVE",
"537 70 CURVE SMOOTH",
"575 116 OFFCURVE",
"584 178 OFFCURVE",
"584 251 CURVE",
"411 251 LINE",
"411 226 OFFCURVE",
"411 203 OFFCURVE",
"399 188 CURVE",
"386 173 OFFCURVE",
"364 162 OFFCURVE",
"317 162 CURVE",
"317 -2 LINE"
);
},
{
closed = 1;
nodes = (
"275 459 LINE",
"275 688 LINE",
"75 688 LINE",
"75 344 LINE"
);
}
);
width = 604;
}
);
unicode = 20BA;
},
{
glyphname = manat;
layers = (
{
background = {
paths = (
{
closed = 1;
nodes = (
"380 471 LINE",
"389 471 OFFCURVE",
"400 471 OFFCURVE",
"412 471 CURVE SMOOTH",
"445 471 OFFCURVE",
"510 466 OFFCURVE",
"581 458 CURVE",
"581 594 LINE",
"537 603 OFFCURVE",
"480 611 OFFCURVE",
"427 615 CURVE",
"427 696 LINE",
"380 696 LINE"
);
},
{
closed = 1;
nodes = (
"379 -8 LINE",
"427 -8 LINE",
"427 74 LINE",
"601 85 OFFCURVE",
"608 149 OFFCURVE",
"608 283 CURVE SMOOTH",
"608 393 LINE",
"353 393 LINE",
"353 289 LINE",
"409 289 LINE",
"409 273 LINE SMOOTH",
"409 233 OFFCURVE",
"408 224 OFFCURVE",
"379 223 CURVE"
);
},
{
closed = 1;
nodes = (
"338 222 LINE",
"297 224 OFFCURVE",
"291 240 OFFCURVE",
"291 344 CURVE SMOOTH",
"291 433 OFFCURVE",
"294 459 OFFCURVE",
"337 468 CURVE",
"337 696 LINE",
"289 696 LINE",
"289 614 LINE",
"127 600 OFFCURVE",
"88 532 OFFCURVE",
"88 344 CURVE SMOOTH",
"88 156 OFFCURVE",
"118 88 OFFCURVE",
"289 75 CURVE",
"289 -8 LINE",
"338 -8 LINE"
);
}
);
};
color = -1;
layerId = "CCCBC4F5-0E52-43D6-BD5E-05F7881D6474";
paths = (
{
closed = 1;
nodes = (
"651 0 LINE",
"651 306 LINE SMOOTH",
"651 415 OFFCURVE",
"645 493 OFFCURVE",
"604 544 CURVE SMOOTH",
"563 595 OFFCURVE",
"488 618 OFFCURVE",
"349 618 CURVE",
"349 465 LINE",
"398 465 OFFCURVE",
"423 459 OFFCURVE",
"435 435 CURVE SMOOTH",
"447 410 OFFCURVE",
"447 365 OFFCURVE",
"447 286 CURVE SMOOTH",
"447 0 LINE"
);
},
{
closed = 1;
nodes = (
"251 0 LINE",
"251 613 LINE",
"159 602 OFFCURVE",
"108 573 OFFCURVE",
"80 523 CURVE SMOOTH",
"52 473 OFFCURVE",
"47 401 OFFCURVE",
"47 306 CURVE SMOOTH",
"47 0 LINE"
);
},
{
closed = 1;
nodes = (
"371 151 LINE",
"371 696 LINE",
"323 696 LINE",
"323 151 LINE"
);
}
);
width = 698;
}
);
unicode = 20BC;
},
{
glyphname = naira;
layers = (
{
color = -1;
layerId = "CCCBC4F5-0E52-43D6-BD5E-05F7881D6474";
paths = (
{
closed = 1;
nodes = (
"661 0 LINE",
"661 29 LINE",
"275 688 LINE",
"75 688 LINE",
"75 660 LINE",
"462 0 LINE"
);
},
{
closed = 1;
nodes = (
"265 0 LINE",
"265 252 LINE",
"225 321 LINE",
"75 321 LINE",
"75 0 LINE"
);
},
{
closed = 1;
nodes = (
"121 225 LINE",
"121 321 LINE",
"10 321 LINE",
"10 225 LINE"
);
},
{
closed = 1;
nodes = (
"121 366 LINE",
"121 462 LINE",
"10 462 LINE",
"10 366 LINE"
);
},
{
closed = 1;
nodes = (
"198 366 LINE",
"75 577 LINE",
"75 366 LINE"
);
},
{
closed = 1;
nodes = (
"661 321 LINE",
"539 321 LINE",
"661 112 LINE"
);
},
{
closed = 1;
nodes = (
"726 225 LINE",
"726 321 LINE",
"615 321 LINE",
"615 225 LINE"
);
},
{
closed = 1;
nodes = (
"726 366 LINE",
"726 462 LINE",
"615 462 LINE",
"615 366 LINE"
);
},
{
closed = 1;
nodes = (
"661 366 LINE",
"661 688 LINE",
"471 688 LINE",
"471 437 LINE",
"512 366 LINE"
);
}
);
width = 736;
}
);
unicode = 20A6;
},
{
glyphname = peseta;
layers = (
{
color = -1;
layerId = "CCCBC4F5-0E52-43D6-BD5E-05F7881D6474";
paths = (
{
closed = 1;
nodes = (
"634 401 LINE",
"635 417 OFFCURVE",
"635 433 OFFCURVE",
"635 451 CURVE SMOOTH",
"635 530 OFFCURVE",
"628 589 OFFCURVE",
"596 629 CURVE SMOOTH",
"564 668 OFFCURVE",
"506 688 OFFCURVE",
"405 688 CURVE SMOOTH",
"322 688 LINE",
"322 545 LINE",
"346 545 LINE SMOOTH",
"385 545 OFFCURVE",
"406 543 OFFCURVE",
"418 532 CURVE",
"430 520 OFFCURVE",
"432 500 OFFCURVE",
"432 451 CURVE SMOOTH",
"432 429 OFFCURVE",
"432 413 OFFCURVE",
"430 401 CURVE"
);
},
{
closed = 1;
nodes = (
"280 0 LINE",
"280 356 LINE",
"80 356 LINE",
"80 0 LINE"
);
},
{
closed = 1;
nodes = (
"280 400 LINE",
"280 688 LINE",
"80 688 LINE",
"80 400 LINE"
);
},
{
closed = 1;
nodes = (
"405 214 LINE SMOOTH",
"509 214 OFFCURVE",
"566 238 OFFCURVE",
"598 279 CURVE SMOOTH",
"614 300 OFFCURVE",
"625 326 OFFCURVE",
"629 356 CURVE",
"322 356 LINE",
"322 214 LINE"
);
},
{
closed = 1;
nodes = (
"699 400 LINE",
"699 509 LINE",
"5 509 LINE",
"5 400 LINE"
);
}
);
width = 704;
}
);
unicode = 20A7;
},
{
glyphname = peso;
layers = (
{
color = -1;
layerId = "CCCBC4F5-0E52-43D6-BD5E-05F7881D6474";
paths = (
{
closed = 1;
nodes = (
"280 0 LINE",
"280 431 LINE",
"80 431 LINE",
"80 0 LINE"
);
},
{
closed = 1;
nodes = (
"136 335 LINE",
"136 431 LINE",
"5 431 LINE",
"5 335 LINE"
);
},
{
closed = 1;
nodes = (
"136 476 LINE",
"136 572 LINE",
"5 572 LINE",
"5 476 LINE"
);
},
{
closed = 1;
nodes = (
"280 476 LINE",
"280 688 LINE",
"80 688 LINE",
"80 476 LINE"
);
},
{
closed = 1;
nodes = (
"405 214 LINE SMOOTH",
"509 214 OFFCURVE",
"566 238 OFFCURVE",
"598 279 CURVE SMOOTH",
"627 316 OFFCURVE",
"634 367 OFFCURVE",
"635 431 CURVE",
"432 431 LINE",
"431 404 OFFCURVE",
"428 390 OFFCURVE",
"418 381 CURVE",
"406 369 OFFCURVE",
"385 367 OFFCURVE",
"346 367 CURVE SMOOTH",
"322 367 LINE",
"322 214 LINE"
);
},
{
closed = 1;
nodes = (
"699 335 LINE",
"699 431 LINE",
"588 431 LINE",
"588 335 LINE"
);
},
{
closed = 1;
nodes = (
"635 476 LINE",
"633 543 OFFCURVE",
"625 593 OFFCURVE",
"596 629 CURVE SMOOTH",
"564 668 OFFCURVE",
"506 688 OFFCURVE",
"405 688 CURVE SMOOTH",
"322 688 LINE",
"322 535 LINE",
"346 535 LINE SMOOTH",
"385 535 OFFCURVE",
"406 533 OFFCURVE",
"418 522 CURVE",
"427 513 OFFCURVE",
"431 500 OFFCURVE",
"432 476 CURVE"
);
},
{
closed = 1;
nodes = (
"699 476 LINE",
"699 572 LINE",
"588 572 LINE",
"588 476 LINE"
);
}
);
width = 704;
}
);
unicode = 20B1;
},
{
glyphname = ruble;
layers = (
{
color = -1;
layerId = "CCCBC4F5-0E52-43D6-BD5E-05F7881D6474";
paths = (
{
closed = 1;
nodes = (
"390 214 LINE SMOOTH",
"494 214 OFFCURVE",
"551 238 OFFCURVE",
"583 279 CURVE SMOOTH",
"615 320 OFFCURVE",
"620 379 OFFCURVE",
"620 451 CURVE SMOOTH",
"620 530 OFFCURVE",
"613 589 OFFCURVE",
"581 629 CURVE SMOOTH",
"549 668 OFFCURVE",
"491 688 OFFCURVE",
"390 688 CURVE SMOOTH",
"307 688 LINE",
"307 535 LINE",
"331 535 LINE SMOOTH",
"370 535 OFFCURVE",
"391 533 OFFCURVE",
"403 522 CURVE",
"415 510 OFFCURVE",
"417 490 OFFCURVE",
"417 451 CURVE SMOOTH",
"417 412 OFFCURVE",
"415 392 OFFCURVE",
"403 381 CURVE",
"391 369 OFFCURVE",
"370 367 OFFCURVE",
"331 367 CURVE SMOOTH",
"307 367 LINE",
"307 214 LINE"
);
},
{
closed = 1;
nodes = (
"74 101 LINE",
"74 164 LINE",
"0 164 LINE",
"0 101 LINE"
);
},
{
closed = 1;
nodes = (
"265 0 LINE",
"265 164 LINE",
"65 164 LINE",
"65 0 LINE"
);
},
{
closed = 1;
nodes = (
"74 214 LINE",
"74 277 LINE",
"0 277 LINE",
"0 214 LINE"
);
},
{
closed = 1;
nodes = (
"464 101 LINE",
"464 164 LINE",
"307 164 LINE",
"307 101 LINE"
);
},
{
closed = 1;
nodes = (
"265 214 LINE",
"265 688 LINE",
"65 688 LINE",
"65 214 LINE"
);
}
);
width = 645;
}
);
unicode = 20BD;
},
{
glyphname = rupeeIndian;
layers = (
{
background = {
paths = (
{
closed = 1;
nodes = (
"183 592 LINE",
"183 688 LINE",
"286 688 LINE SMOOTH",
"382 688 OFFCURVE",
"437 669 OFFCURVE",
"469 631 CURVE SMOOTH",
"478 620 OFFCURVE",
"485 606 OFFCURVE",
"491 592 CURVE"
);
},
{
closed = 1;
nodes = (
"502 547 LINE",
"505 522 OFFCURVE",
"506 493 OFFCURVE",
"506 461 CURVE SMOOTH",
"506 413 OFFCURVE",
"503 371 OFFCURVE",
"491 336 CURVE SMOOTH",
"479 301 OFFCURVE",
"446 267 OFFCURVE",
"387 257 CURVE",
"521 0 LINE",
"311 0 LINE",
"183 234 LINE",
"183 387 LINE",
"217 387 LINE SMOOTH",
"256 387 OFFCURVE",
"277 389 OFFCURVE",
"289 399 CURVE SMOOTH",
"301 409 OFFCURVE",
"303 428 OFFCURVE",
"303 461 CURVE SMOOTH",
"303 494 OFFCURVE",
"301 514 OFFCURVE",
"289 524 CURVE SMOOTH",
"277 534 OFFCURVE",
"256 535 OFFCURVE",
"217 535 CURVE SMOOTH",
"183 535 LINE",
"183 547 LINE"
);
},
{
closed = 1;
nodes = (
"572 547 LINE",
"572 451 LINE",
"16 451 LINE",
"16 547 LINE"
);
},
{
closed = 1;
nodes = (
"572 688 LINE",
"572 592 LINE",
"16 592 LINE",
"16 688 LINE"
);
}
);
};
color = -1;
layerId = "CCCBC4F5-0E52-43D6-BD5E-05F7881D6474";
paths = (
{
closed = 1;
nodes = (
"521 0 LINE",
"387 257 LINE",
"446 267 OFFCURVE",
"479 301 OFFCURVE",
"491 336 CURVE SMOOTH",
"496 351 OFFCURVE",
"500 369 OFFCURVE",
"502 387 CURVE",
"183 387 LINE",
"183 234 LINE",
"311 0 LINE"
);
},
{
closed = 1;
nodes = (
"592 451 LINE",
"592 547 LINE",
"16 547 LINE",
"16 451 LINE"
);
},
{
closed = 1;
nodes = (
"504 508 LINE",
"504 511 OFFCURVE",
"504 515 OFFCURVE",
"504 518 CURVE SMOOTH",
"504 553 OFFCURVE",
"497 597 OFFCURVE",
"469 631 CURVE SMOOTH",
"437 669 OFFCURVE",
"382 688 OFFCURVE",
"286 688 CURVE SMOOTH",
"183 688 LINE",
"183 592 LINE",
"217 592 LINE SMOOTH",
"256 592 OFFCURVE",
"277 591 OFFCURVE",
"289 581 CURVE SMOOTH",
"301 571 OFFCURVE",
"303 551 OFFCURVE",
"303 518 CURVE SMOOTH",
"303 514 OFFCURVE",
"303 511 OFFCURVE",
"303 508 CURVE"
);
},
{
closed = 1;
nodes = (
"592 592 LINE",
"592 688 LINE",
"16 688 LINE",
"16 592 LINE"
);
}
);
width = 608;
}
);
unicode = 20B9;
},
{
glyphname = sterling;
layers = (
{
color = -1;
layerId = "CCCBC4F5-0E52-43D6-BD5E-05F7881D6474";
paths = (
{
closed = 1;
nodes = (
"484 280 LINE",
"484 429 LINE",
"315 429 LINE",
"315 692 LINE",
"235 684 OFFCURVE",
"186 661 OFFCURVE",
"156 619 CURVE SMOOTH",
"126 577 OFFCURVE",
"115 514 OFFCURVE",
"115 429 CURVE",
"40 429 LINE",
"40 280 LINE"
);
},
{
closed = 1;
nodes = (
"571 0 LINE",
"571 153 LINE",
"315 153 LINE",
"315 240 LINE",
"114 240 LINE",
"114 153 LINE",
"40 153 LINE",
"40 0 LINE"
);
},
{
closed = 1;
nodes = (
"560 676 LINE",
"547 680 OFFCURVE",
"531 683 OFFCURVE",
"514 686 CURVE SMOOTH",
"485 691 OFFCURVE",
"442 696 OFFCURVE",
"393 696 CURVE SMOOTH",
"374 696 LINE SMOOTH",
"368 696 OFFCURVE",
"362 696 OFFCURVE",
"357 695 CURVE",
"357 534 LINE",
"376 541 OFFCURVE",
"404 543 OFFCURVE",
"443 543 CURVE SMOOTH",
"462 543 OFFCURVE",
"491 541 OFFCURVE",
"516 538 CURVE SMOOTH",
"530 536 OFFCURVE",
"545 534 OFFCURVE",
"560 533 CURVE"
);
}
);
width = 609;
}
);
note = sterling;
unicode = 00A3;
},
{
glyphname = won;
layers = (
{
color = -1;
layerId = "CCCBC4F5-0E52-43D6-BD5E-05F7881D6474";
paths = (
{
closed = 1;
nodes = (
"409 0 LINE SMOOTH",
"409 0 OFFCURVE",
"412 11 OFFCURVE",
"417 33 CURVE SMOOTH",
"422 54 OFFCURVE",
"428 83 OFFCURVE",
"437 120 CURVE SMOOTH",
"446 157 OFFCURVE",
"455 199 OFFCURVE",
"466 247 CURVE SMOOTH",
"500 398 LINE",
"506 398 LINE",
"518 345 OFFCURVE",
"530 295 OFFCURVE",
"542 247 CURVE SMOOTH",
"553 199 OFFCURVE",
"563 157 OFFCURVE",
"572 120 CURVE SMOOTH",
"593 33 LINE SMOOTH",
"598 11 OFFCURVE",
"601 0 OFFCURVE",
"601 0 CURVE SMOOTH",
"772 0 LINE",
"608 688 LINE",
"403 688 LINE",
"328 344 LINE",
"398 0 LINE"
);
},
{
closed = 1;
nodes = (
"216 225 LINE",
"216 321 LINE",
"5 321 LINE",
"5 225 LINE"
);
},
{
closed = 1;
nodes = (
"356 0 LINE",
"290 321 LINE",
"101 321 LINE",
"109 286 OFFCURVE",
"118 251 OFFCURVE",
"126 217 CURVE SMOOTH",
"153 107 LINE SMOOTH",
"160 74 OFFCURVE",
"166 48 OFFCURVE",
"171 29 CURVE SMOOTH",
"176 10 OFFCURVE",
"178 0 OFFCURVE",
"178 0 CURVE SMOOTH"
);
},
{
closed = 1;
nodes = (
"116 366 LINE",
"116 462 LINE",
"5 462 LINE",
"5 366 LINE"
);
},
{
closed = 1;
nodes = (
"281 366 LINE",
"214 688 LINE",
"15 688 LINE",
"91 366 LINE"
);
},
{
closed = 1;
nodes = (
"827 0 LINE SMOOTH",
"827 0 OFFCURVE",
"829 10 OFFCURVE",
"834 29 CURVE SMOOTH",
"839 48 OFFCURVE",
"845 74 OFFCURVE",
"853 107 CURVE SMOOTH",
"860 139 OFFCURVE",
"869 176 OFFCURVE",
"879 217 CURVE SMOOTH",
"904 321 LINE",
"739 321 LINE",
"815 0 LINE"
);
},
{
closed = 1;
nodes = (
"1001 225 LINE",
"1001 321 LINE",
"790 321 LINE",
"790 225 LINE"
);
},
{
closed = 1;
nodes = (
"1001 366 LINE",
"1001 462 LINE",
"890 462 LINE",
"890 366 LINE"
);
},
{
closed = 1;
nodes = (
"914 366 LINE",
"937 461 OFFCURVE",
"962 569 OFFCURVE",
"991 688 CURVE",
"792 688 LINE",
"735 366 LINE"
);
}
);
width = 1006;
}
);
unicode = 20A9;
},
{
glyphname = yen;
layers = (
{
color = -1;
layerId = "CCCBC4F5-0E52-43D6-BD5E-05F7881D6474";
paths = (
{
closed = 1;
nodes = (
"591 350 LINE",
"591 447 LINE",
"509 447 LINE",
"618 688 LINE",
"418 688 LINE",
"322 420 LINE",
"315 420 LINE",
"219 688 LINE",
"15 688 LINE",
"36 639 OFFCURVE",
"58 590 OFFCURVE",
"84 534 CURVE SMOOTH",
"123 447 LINE",
"41 447 LINE",
"41 350 LINE"
);
},
{
closed = 1;
nodes = (
"416 0 LINE",
"416 213 LINE",
"591 213 LINE",
"591 310 LINE",
"41 310 LINE",
"41 213 LINE",
"216 213 LINE",
"216 0 LINE"
);
}
);
width = 633;
}
);
note = yen;
unicode = 00A5;
},
{
glyphname = plus;
layers = (
{
color = -1;
layerId = "CCCBC4F5-0E52-43D6-BD5E-05F7881D6474";
paths = (
{
closed = 1;
nodes = (
"337 53 LINE",
"337 186 LINE",
"470 186 LINE",
"470 320 LINE",
"337 320 LINE",
"337 453 LINE",
"203 453 LINE",
"203 320 LINE",
"70 320 LINE",
"70 186 LINE",
"203 186 LINE",
"203 53 LINE"
);
}
);
width = 540;
}
);
note = plus;
unicode = 002B;
},
{
glyphname = minus;
layers = (
{
color = -1;
layerId = "CCCBC4F5-0E52-43D6-BD5E-05F7881D6474";
paths = (
{
closed = 1;
nodes = (
"470 186 LINE",
"470 320 LINE",
"70 320 LINE",
"70 186 LINE"
);
}
);
width = 540;
}
);
note = minus;
unicode = 2212;
},
{
glyphname = multiply;
layers = (
{
color = -1;
layerId = "CCCBC4F5-0E52-43D6-BD5E-05F7881D6474";
paths = (
{
closed = 1;
nodes = (
"259 158 LINE",
"353 64 LINE",
"448 159 LINE",
"354 253 LINE",
"448 347 LINE",
"353 442 LINE",
"259 348 LINE",
"165 442 LINE",
"70 347 LINE",
"164 253 LINE",
"70 159 LINE",
"165 64 LINE"
);
}
);
width = 518;
}
);
note = multiply;
unicode = 00D7;
},
{
glyphname = divide;
layers = (
{
color = -1;
layerId = "CCCBC4F5-0E52-43D6-BD5E-05F7881D6474";
paths = (
{
closed = 1;
nodes = (
"470 186 LINE",
"470 320 LINE",
"70 320 LINE",
"70 186 LINE"
);
},
{
closed = 1;
nodes = (
"337 16 LINE",
"337 126 LINE",
"203 126 LINE",
"203 16 LINE"
);
},
{
closed = 1;
nodes = (
"337 380 LINE",
"337 490 LINE",
"203 490 LINE",
"203 380 LINE"
);
}
);
width = 540;
}
);
note = divide;
unicode = 00F7;
},
{
glyphname = equal;
layers = (
{
color = -1;
layerId = "CCCBC4F5-0E52-43D6-BD5E-05F7881D6474";
paths = (
{
closed = 1;
nodes = (
"470 286 LINE",
"470 420 LINE",
"70 420 LINE",
"70 286 LINE"
);
},
{
closed = 1;
nodes = (
"470 86 LINE",
"470 220 LINE",
"70 220 LINE",
"70 86 LINE"
);
}
);
width = 540;
}
);
note = equal;
unicode = 003D;
},
{
glyphname = notequal;
layers = (
{
color = -1;
layerId = "CCCBC4F5-0E52-43D6-BD5E-05F7881D6474";
paths = (
{
closed = 1;
nodes = (
"204 0 LINE",
"244 86 LINE",
"470 86 LINE",
"470 220 LINE",
"306 220 LINE",
"337 286 LINE",
"470 286 LINE",
"470 420 LINE",
"400 420 LINE",
"442 510 LINE",
"329 510 LINE",
"287 420 LINE",
"70 420 LINE",
"70 286 LINE",
"224 286 LINE",
"193 220 LINE",
"70 220 LINE",
"70 86 LINE",
"131 86 LINE",
"91 0 LINE"
);
}
);
width = 540;
}
);
note = notequal;
unicode = 2260;
},
{
glyphname = greater;
layers = (
{
color = -1;
layerId = "CCCBC4F5-0E52-43D6-BD5E-05F7881D6474";
paths = (
{
closed = 1;
nodes = (
"145 71 OFFCURVE",
"211 95 OFFCURVE",
"270 116 CURVE SMOOTH",
"295 125 OFFCURVE",
"320 133 OFFCURVE",
"343 142 CURVE SMOOTH",
"366 151 OFFCURVE",
"388 158 OFFCURVE",
"407 165 CURVE",
"429 172 OFFCURVE",
"450 180 OFFCURVE",
"470 187 CURVE",
"470 319 LINE",
"70 461 LINE",
"70 327 LINE",
"305 253 LINE",
"70 179 LINE",
"70 45 LINE"
);
}
);
width = 541;
}
);
note = greater;
unicode = 003E;
},
{
glyphname = less;
layers = (
{
color = -1;
layerId = "CCCBC4F5-0E52-43D6-BD5E-05F7881D6474";
paths = (
{
closed = 1;
nodes = (
"471 179 LINE",
"236 253 LINE",
"471 327 LINE",
"471 461 LINE",
"71 319 LINE",
"71 187 LINE",
"88 181 LINE SMOOTH",
"111 173 OFFCURVE",
"149 159 OFFCURVE",
"197 142 CURVE SMOOTH",
"221 133 OFFCURVE",
"246 125 OFFCURVE",
"271 116 CURVE SMOOTH",
"330 95 OFFCURVE",
"396 71 OFFCURVE",
"471 45 CURVE"
);
}
);
width = 541;
}
);
note = less;
unicode = 003C;
},
{
glyphname = greaterequal;
layers = (
{
color = -1;
layerId = "CCCBC4F5-0E52-43D6-BD5E-05F7881D6474";
paths = (
{
closed = 1;
nodes = (
"145 200 OFFCURVE",
"212 224 OFFCURVE",
"271 245 CURVE SMOOTH",
"296 254 OFFCURVE",
"321 262 OFFCURVE",
"344 271 CURVE SMOOTH",
"367 280 OFFCURVE",
"389 287 OFFCURVE",
"408 294 CURVE",
"430 301 OFFCURVE",
"451 309 OFFCURVE",
"471 316 CURVE",
"471 448 LINE",
"70 590 LINE",
"70 456 LINE",
"306 382 LINE",
"70 308 LINE",
"70 174 LINE"
);
},
{
closed = 1;
nodes = (
"471 0 LINE",
"471 134 LINE",
"70 134 LINE",
"70 0 LINE"
);
}
);
width = 541;
}
);
note = greaterequal;
unicode = 2265;
},
{
glyphname = lessequal;
layers = (
{
color = -1;
layerId = "CCCBC4F5-0E52-43D6-BD5E-05F7881D6474";
paths = (
{
closed = 1;
nodes = (
"470 308 LINE",
"235 382 LINE",
"470 456 LINE",
"470 590 LINE",
"70 448 LINE",
"70 316 LINE",
"87 310 LINE SMOOTH",
"110 302 OFFCURVE",
"148 288 OFFCURVE",
"196 271 CURVE SMOOTH",
"220 262 OFFCURVE",
"245 254 OFFCURVE",
"270 245 CURVE SMOOTH",
"329 224 OFFCURVE",
"395 200 OFFCURVE",
"470 174 CURVE"
);
},
{
closed = 1;
nodes = (
"470 0 LINE",
"470 134 LINE",
"70 134 LINE",
"70 0 LINE"
);
}
);
width = 541;
}
);
note = lessequal;
unicode = 2264;
},
{
glyphname = plusminus;
layers = (
{
color = -1;
layerId = "CCCBC4F5-0E52-43D6-BD5E-05F7881D6474";
paths = (
{
closed = 1;
nodes = (
"337 184 LINE",
"337 317 LINE",
"470 317 LINE",
"470 451 LINE",
"337 451 LINE",
"337 584 LINE",
"203 584 LINE",
"203 451 LINE",
"70 451 LINE",
"70 317 LINE",
"203 317 LINE",
"203 184 LINE"
);
},
{
closed = 1;
nodes = (
"470 0 LINE",
"470 134 LINE",
"70 134 LINE",
"70 0 LINE"
);
}
);
width = 540;
}
);
note = plusminus;
unicode = 00B1;
},
{
glyphname = approxequal;
layers = (
{
color = -1;
layerId = "CCCBC4F5-0E52-43D6-BD5E-05F7881D6474";
paths = (
{
closed = 1;
nodes = (
"140 265 LINE",
"140 294 OFFCURVE",
"140 305 OFFCURVE",
"163 305 CURVE SMOOTH",
"173 305 OFFCURVE",
"185 304 OFFCURVE",
"199 301 CURVE SMOOTH",
"213 298 OFFCURVE",
"228 294 OFFCURVE",
"245 291 CURVE SMOOTH",
"278 284 OFFCURVE",
"315 277 OFFCURVE",
"350 277 CURVE SMOOTH",
"399 277 OFFCURVE",
"425 292 OFFCURVE",
"438 318 CURVE SMOOTH",
"450 344 OFFCURVE",
"450 381 OFFCURVE",
"450 429 CURVE",
"357 429 LINE",
"357 400 OFFCURVE",
"357 389 OFFCURVE",
"334 389 CURVE SMOOTH",
"324 389 OFFCURVE",
"312 391 OFFCURVE",
"298 394 CURVE SMOOTH",
"284 397 OFFCURVE",
"269 400 OFFCURVE",
"252 403 CURVE SMOOTH",
"219 410 OFFCURVE",
"182 417 OFFCURVE",
"147 417 CURVE SMOOTH",
"98 417 OFFCURVE",
"72 403 OFFCURVE",
"60 377 CURVE SMOOTH",
"47 351 OFFCURVE",
"47 313 OFFCURVE",
"47 265 CURVE"
);
},
{
closed = 1;
nodes = (
"140 78 LINE",
"140 107 OFFCURVE",
"140 118 OFFCURVE",
"163 118 CURVE SMOOTH",
"173 118 OFFCURVE",
"185 117 OFFCURVE",
"199 114 CURVE SMOOTH",
"213 111 OFFCURVE",
"228 107 OFFCURVE",
"245 104 CURVE SMOOTH",
"278 97 OFFCURVE",
"315 90 OFFCURVE",
"350 90 CURVE SMOOTH",
"399 90 OFFCURVE",
"425 105 OFFCURVE",
"438 131 CURVE SMOOTH",
"450 157 OFFCURVE",
"450 194 OFFCURVE",
"450 242 CURVE",
"357 242 LINE",
"357 213 OFFCURVE",
"357 202 OFFCURVE",
"334 202 CURVE SMOOTH",
"324 202 OFFCURVE",
"312 204 OFFCURVE",
"298 207 CURVE SMOOTH",
"284 210 OFFCURVE",
"269 213 OFFCURVE",
"252 216 CURVE SMOOTH",
"219 223 OFFCURVE",
"182 230 OFFCURVE",
"147 230 CURVE SMOOTH",
"98 230 OFFCURVE",
"72 216 OFFCURVE",
"60 190 CURVE SMOOTH",
"47 164 OFFCURVE",
"47 126 OFFCURVE",
"47 78 CURVE"
);
}
);
width = 497;
}
);
note = approxequal;
unicode = 2248;
},
{
glyphname = asciitilde;
layers = (
{
color = -1;
layerId = "CCCBC4F5-0E52-43D6-BD5E-05F7881D6474";
paths = (
{
closed = 1;
nodes = (
"140 222 LINE",
"140 251 OFFCURVE",
"140 262 OFFCURVE",
"163 262 CURVE SMOOTH",
"173 262 OFFCURVE",
"185 261 OFFCURVE",
"199 258 CURVE SMOOTH",
"213 255 OFFCURVE",
"228 251 OFFCURVE",
"245 248 CURVE SMOOTH",
"278 241 OFFCURVE",
"315 234 OFFCURVE",
"350 234 CURVE SMOOTH",
"399 234 OFFCURVE",
"425 249 OFFCURVE",
"438 275 CURVE SMOOTH",
"450 301 OFFCURVE",
"450 338 OFFCURVE",
"450 386 CURVE",
"357 386 LINE",
"357 357 OFFCURVE",
"357 346 OFFCURVE",
"334 346 CURVE SMOOTH",
"324 346 OFFCURVE",
"312 348 OFFCURVE",
"298 351 CURVE SMOOTH",
"284 354 OFFCURVE",
"269 357 OFFCURVE",
"252 360 CURVE SMOOTH",
"219 367 OFFCURVE",
"182 374 OFFCURVE",
"147 374 CURVE SMOOTH",
"98 374 OFFCURVE",
"72 360 OFFCURVE",
"60 334 CURVE SMOOTH",
"47 308 OFFCURVE",
"47 270 OFFCURVE",
"47 222 CURVE"
);
}
);
width = 497;
}
);
note = asciitilde;
unicode = 007E;
},
{
glyphname = logicalnot;
layers = (
{
color = -1;
layerId = "CCCBC4F5-0E52-43D6-BD5E-05F7881D6474";
paths = (
{
closed = 1;
nodes = (
"469 53 LINE",
"469 320 LINE",
"70 320 LINE",
"70 186 LINE",
"335 186 LINE",
"335 53 LINE"
);
}
);
width = 540;
}
);
note = logicalnot;
unicode = 00AC;
},
{
glyphname = asciicircum;
layers = (
{
color = -1;
layerId = "CCCBC4F5-0E52-43D6-BD5E-05F7881D6474";
paths = (
{
closed = 1;
nodes = (
"139 444 LINE",
"213 629 LINE",
"287 444 LINE",
"421 444 LINE",
"394 501 OFFCURVE",
"371 552 OFFCURVE",
"350 597 CURVE SMOOTH",
"331 636 OFFCURVE",
"314 672 OFFCURVE",
"301 701 CURVE SMOOTH",
"294 718 OFFCURVE",
"286 734 OFFCURVE",
"279 749 CURVE",
"147 749 LINE",
"5 444 LINE"
);
}
);
width = 426;
}
);
note = asciicircum;
unicode = 005E;
},
